<svg xmlns="http://www.w3.org/2000/svg" xmlns:xlink="http://www.w3.org/1999/xlink" viewBox="0 0 458 254.471">
  <defs>
    <style>
      .cls-1 {
        fill: #fff;
      }

      .cls-2, .cls-3 {
        fill: #606580;
      }

      .cls-2 {
        font-size: 13px;
      }

      .cls-2, .cls-3, .cls-4, .cls-5 {
        font-family: Tahoma;
      }

      .cls-3, .cls-4, .cls-5 {
        font-size: 11px;
      }

      .cls-11, .cls-4, .cls-8 {
        fill: #b1b4c2;
      }

      .cls-5 {
        fill: #ff0f0f;
      }

      .cls-6 {
        fill: none;
        stroke: #e4e7ed;
      }

      .cls-7 {
        fill: url(#linear-gradient);
      }

      .cls-8 {
        fill-rule: evenodd;
      }

      .cls-10, .cls-11, .cls-9 {
        stroke: none;
      }

      .cls-10 {
        fill: #e4e7ed;
      }

      .cls-12 {
        filter: url(#Union_54);
      }
    </style>
    <filter id="Union_54" x="0" y="0" width="458" height="254.471" filterUnits="userSpaceOnUse">
      <feOffset dy="3" input="SourceAlpha"/>
      <feGaussianBlur stdDeviation="3" result="blur"/>
      <feFlood flood-opacity="0.161"/>
      <feComposite operator="in" in2="blur"/>
      <feComposite in="SourceGraphic"/>
    </filter>
    <linearGradient id="linear-gradient" x1="0.5" x2="0.5" y2="1" gradientUnits="objectBoundingBox">
      <stop offset="0" stop-color="#d5d7de"/>
      <stop offset="1" stop-color="#fff" stop-opacity="0"/>
    </linearGradient>
  </defs>
  <g id="Group_618" data-name="Group 618" transform="translate(9 6)">
    <g class="cls-12" transform="matrix(1, 0, 0, 1, -9, -6)">
      <g id="Union_54-2" data-name="Union 54" class="cls-1" transform="translate(9 6)">
        <path class="cls-9" d="M 435.9996032714844 235.9714202880859 L 3.999616622924805 235.9714202880859 C 2.069949865341187 235.9714202880859 0.5000054836273193 234.4010925292969 0.5000054836273193 232.4709320068359 L 0.5000054836273193 14.68259143829346 C 0.5000054836273193 12.75242519378662 2.069949865341187 11.18209171295166 3.999616622924805 11.18209171295166 L 209.6867218017578 11.18209171295166 L 209.8990020751953 11.18209171295166 L 210.0464477539063 11.02936935424805 L 219.9996337890625 0.7198440432548523 L 229.95361328125 11.02936935424805 L 230.1010589599609 11.18209171295166 L 230.3133392333984 11.18209171295166 L 435.9996032714844 11.18209171295166 C 437.9297790527344 11.18209171295166 439.5001220703125 12.75242519378662 439.5001220703125 14.68259143829346 L 439.5001220703125 232.4709320068359 C 439.5001220703125 234.4010925292969 437.9297790527344 235.9714202880859 435.9996032714844 235.9714202880859 Z"/>
        <path class="cls-10" d="M 435.9996032714844 235.4714202880859 C 437.6541137695313 235.4714202880859 439.0001220703125 234.1254272460938 439.0001220703125 232.4709320068359 L 439.0001220703125 14.68259143829346 C 439.0001220703125 13.02809143066406 437.6541137695313 11.68209171295166 435.9996032714844 11.68209171295166 L 230.3133392333984 11.68209171295166 L 229.8887786865234 11.68209171295166 L 229.5939483642578 11.37670230865479 L 219.9996490478516 1.439706802368164 L 210.4061737060547 11.37664699554443 L 210.1112823486328 11.68209171295166 L 209.6867218017578 11.68209171295166 L 3.999616622924805 11.68209171295166 C 2.345616579055786 11.68209171295166 1.000005483627319 13.02809143066406 1.000005483627319 14.68259143829346 L 1.000005483627319 232.4709320068359 C 1.000005483627319 234.1254272460938 2.345616579055786 235.4714202880859 3.999616622924805 235.4714202880859 L 435.9996032714844 235.4714202880859 M 435.9996032714844 236.4714202880859 L 3.999616622924805 236.4714202880859 C 1.791005492210388 236.4714202880859 5.479600531543838e-06 234.680419921875 5.479600531543838e-06 232.4709320068359 L 5.479600531543838e-06 14.68259143829346 C 5.479600531543838e-06 12.47309112548828 1.791005492210388 10.68209171295166 3.999616622924805 10.68209171295166 L 209.6867218017578 10.68209171295166 L 219.9996185302734 -1.970757330127526e-05 L 230.3133392333984 10.68209171295166 L 435.9996032714844 10.68209171295166 C 438.2091064453125 10.68209171295166 440.0001220703125 12.47309112548828 440.0001220703125 14.68259143829346 L 440.0001220703125 232.4709320068359 C 440.0001220703125 234.680419921875 438.2091064453125 236.4714202880859 435.9996032714844 236.4714202880859 Z"/>
      </g>
    </g>
    <text id="РВС_5_ОНБ_" data-name="РВС №5 [ОНБ]" class="cls-2" transform="translate(41 35.273)"><tspan x="0" y="0">РВС №5 [ОНБ]</tspan></text>
    <text id="Продукт:" class="cls-3" transform="translate(15 70.206)"><tspan x="0" y="0">Продукт:</tspan></text>
    <text id="Тип:" class="cls-3" transform="translate(284 35.269)"><tspan x="0" y="0">Тип:</tspan></text>
    <text id="Масса_на_начало:" data-name="Масса на начало:" class="cls-3" transform="translate(15 113.127)"><tspan x="0" y="0">Масса на начало:</tspan></text>
    <text id="Масса_на_конец:" data-name="Масса на конец:" class="cls-3" transform="translate(15 156.049)"><tspan x="0" y="0">Масса на конец:</tspan></text>
    <text id="Допустимый_небаланс:" data-name="Допустимый небаланс:" class="cls-3" transform="translate(142 156.049)"><tspan x="0" y="0">Допустимый небаланс:</tspan></text>
    <text id="Nodsl_test:" data-name="Nodsl test:" class="cls-3" transform="translate(299 113.127)"><tspan x="0" y="0">Nodsl test:</tspan></text>
    <text id="Небаланс:" class="cls-3" transform="translate(142 113.127)"><tspan x="0" y="0">Небаланс:</tspan></text>
    <text id="Nodal_test_critical_value:" data-name="Nodal test critical value:" class="cls-3" transform="translate(299 156.049)"><tspan x="0" y="0">Nodal test critical value:</tspan></text>
    <text id="Произведены_расчеты" data-name="Произведены расчеты" class="cls-3" transform="translate(15 215.94)"><tspan x="0" y="0">Произведены расчеты</tspan></text>
    <text id="Бензин_неэтилированный_Регуляр-92_АИ-92-К5_" data-name="Бензин неэтилированный Регуляр-92 (АИ-92-К5)" class="cls-4" transform="translate(15 89.171)"><tspan x="0" y="0">Бензин неэтилированный Регуляр-92 (АИ-92-К5)</tspan></text>
    <text id="Резервуар" class="cls-4" transform="translate(314 35.269)"><tspan x="0" y="0">Резервуар</tspan></text>
    <text id="_316565_кг" data-name="316565 кг" class="cls-4" transform="translate(15 132.093)"><tspan x="0" y="0">316565 кг</tspan></text>
    <text id="_302901_кг" data-name="302901 кг" class="cls-4" transform="translate(15 175.014)"><tspan x="0" y="0">302901 кг</tspan></text>
    <text id="_-7812_кг" data-name="-7812 кг" class="cls-5" transform="translate(142 132.093)"><tspan x="0" y="0">-7812 кг</tspan></text>
    <text id="_3381_кг" data-name="3381 кг" class="cls-4" transform="translate(142 175.014)"><tspan x="0" y="0">3381 кг</tspan></text>
    <text id="_2.600" data-name="2.600" class="cls-5" transform="translate(299 132.093)"><tspan x="0" y="0">2.600</tspan></text>
    <text id="_1.960" data-name="1.960" class="cls-4" transform="translate(299 175.014)"><tspan x="0" y="0">1.960</tspan></text>
    <line id="Line_1751" data-name="Line 1751" class="cls-6" x2="411" transform="translate(15 192.962)"/>
    <line id="Line_1752" data-name="Line 1752" class="cls-6" y2="75.862" transform="translate(127 103.125)"/>
    <line id="Line_1753" data-name="Line 1753" class="cls-6" y2="75.862" transform="translate(284.5 103.125)"/>
    <rect id="Rectangle_2104" data-name="Rectangle 2104" class="cls-7" width="438.403" height="3.993" transform="translate(1.204 50.222)"/>
    <g id="Group_617" data-name="Group 617" transform="translate(416.05 26.316)">
      <g id="Path_3118" data-name="Path 3118" class="cls-1" transform="translate(1.414 0) rotate(45)">
        <path class="cls-9" d="M 0.9968085289001465 1.497268557548523 L 0.9963384866714478 1.497268557548523 C 0.8633084893226624 1.497268557548523 0.7383385300636292 1.445528507232666 0.6444684863090515 1.3515784740448 C 0.5505985021591187 1.257628560066223 0.4989685118198395 1.132608532905579 0.4990884959697723 0.9995384812355042 C 0.4993385076522827 0.7238385081291199 0.7238385081291199 0.4993385076522827 0.9995384812355042 0.4990884959697723 L 10.99044895172119 0.4899885058403015 C 11.123948097229 0.4899885058403015 11.2489185333252 0.5417284965515137 11.34278869628906 0.6356785297393799 C 11.43665885925293 0.7296285033226013 11.48828887939453 0.8546485304832458 11.48816871643066 0.9877185225486755 C 11.48791885375977 1.263418555259705 11.26341819763184 1.487918496131897 10.98771858215332 1.488168478012085 L 0.9968085289001465 1.497268557548523 Z"/>
        <path class="cls-11" d="M 10.99089813232422 0.9899886250495911 L 0.9963588714599609 0.9972686171531677 L 10.99091815948486 0.9899886250495911 L 10.99089813232422 0.9899886250495911 M 10.99091339111328 -0.01001179218292236 C 11.54227542877197 -0.01001179218292236 11.98866844177246 0.4366917610168457 11.98816871643066 0.9881685972213745 C 11.98766803741455 1.539948582649231 11.53994846343994 1.987668633460999 10.98816871643066 1.988168597221375 L 0.9972686767578125 1.997268676757813 C 0.9969654083251953 1.997268915176392 0.9966468811035156 1.997269034385681 0.9963436126708984 1.997269034385681 C 0.444981575012207 1.997269034385681 -0.00141143798828125 1.550565481185913 -0.000911712646484375 0.9990886449813843 C -0.0004110336303710938 0.4473086595535278 0.4473085403442383 -0.0004113912582397461 0.9990882873535156 -0.0009113550186157227 L 10.98998832702637 -0.01001143455505371 C 10.99029159545898 -0.01001167297363281 10.99061012268066 -0.01001179218292236 10.99091339111328 -0.01001179218292236 Z"/>
      </g>
      <g id="Path_3119" data-name="Path 3119" class="cls-1" transform="translate(9.9 1.412) rotate(135)">
        <path class="cls-9" d="M 10.99273872375488 1.508190989494324 L 10.99225902557373 1.508190989494324 L 1.001369118690491 1.499090909957886 C 0.7256590723991394 1.498840928077698 0.5011590719223022 1.274340987205505 0.5009090900421143 0.9986409544944763 C 0.5007890462875366 0.8655909299850464 0.5524290800094604 0.7405809164047241 0.6463090777397156 0.6466109156608582 C 0.7401890754699707 0.5526509284973145 0.8651490807533264 0.5009109377861023 0.9981590509414673 0.5009109377861023 L 10.98952865600586 0.5100109577178955 C 11.26523876190186 0.5102609395980835 11.48973941802979 0.7347609400749207 11.48998928070068 1.01046097278595 C 11.49010944366455 1.143510937690735 11.43846893310547 1.268520951271057 11.34458923339844 1.362490892410278 C 11.25070953369141 1.456450939178467 11.12574863433838 1.508190989494324 10.99273872375488 1.508190989494324 Z"/>
        <path class="cls-11" d="M 0.998164176940918 0.0009105205535888672 C 0.9985008239746094 0.0009105205535888672 0.9987525939941406 0.0009105205535888672 0.999089241027832 0.0009109973907470703 L 10.98998928070068 0.01001095771789551 C 11.54176902770996 0.01051092147827148 11.98948860168457 0.4582309722900391 11.98998928070068 1.010010957717896 C 11.99048900604248 1.561454176902771 11.54404926300049 2.008191347122192 10.9927339553833 2.008191347122192 C 10.99239730834961 2.008191347122192 10.99214553833008 2.008191347122192 10.99180889129639 2.008190870285034 L 1.000908851623535 1.999090909957886 C 0.4491291046142578 1.99859094619751 0.001409530639648438 1.550870895385742 0.0009088516235351563 0.9990909099578857 C 0.0004091262817382813 0.4476476907730103 0.4468488693237305 0.0009105205535888672 0.998164176940918 0.0009105205535888672 Z"/>
      </g>
    </g>
    <path id="Path_2332" data-name="Path 2332" class="cls-8" d="M180.778,2205.487v-8.459h-.511v.51h-.729v-.51h0l-.146-.073-.146-.073v-.51h0l.146.073.146.072v-.583h-.146l-.146-.072-.438-.146-.583-.146-.583-.146H177.5l-.511-.073-.51-.073-1.167-.146h-.583l-.583-.072H172.1l-.948.072-.948.073-.948.146-.876.146-.8.146-.365.073-.292.073-.219.073-.219.072v.584h0l.219-.146.292-.073v.51h0l-.292.146-.219.073v8.459H165.39v1.094h15.971v-1.094h-.583Zm-11.668,0v-8.533h0l1.094-.146v8.678Zm6.418-9.262v-.51h0l.8.073.729.073v.583h0l-.729-.146-.8-.073h0Zm-.583-.073h-.8l-.729-.073v-.51h.729l.8.073Zm-2.115-.073H172.1l-.8.073v-.511h0l.8-.073h.729Zm-2.115.146h0l-.8.073-.8.073v-.51h0l.8-.073.8-.073Zm8.824,6.637h.729v1.021h-.729Zm.729-.583h-.729v-1.021h.729Zm-.729-1.531v-1.094h.729v1.094Zm.729-2.625v1.021h-.729v-1.021Zm-1.6-1.9v.511h0l-.51-.146-.51-.073v-.51h0l.51.073.51.146h0Zm-11.084-.072h0l.438-.073.583-.146v.584h0l-.583.073-.438.073v-.51Zm0,1.969h0v-.875h0l.51-.146v8.387h-.51Zm11.96,7.366v-1.021h.729v1.021Z" transform="translate(-150.39 -2169.793)"/>
  </g>
</svg>
