<svg xmlns="http://www.w3.org/2000/svg" viewBox="0 0 1254 154">
  <defs>
    <style>
      .cls-1 {
        fill: #dfe9f6;
      }

      .cls-2 {
        fill: #dfedf9;
      }

      .cls-11, .cls-16, .cls-18, .cls-29, .cls-3, .cls-5 {
        fill: #fff;
      }

      .cls-27, .cls-4 {
        fill: #ff0f0f;
      }

      .cls-29, .cls-5 {
        stroke: #e4e7ed;
      }

      .cls-17, .cls-19, .cls-20, .cls-6 {
        fill: #2378d9;
      }

      .cls-7 {
        fill: #19a0e0;
      }

      .cls-24, .cls-31, .cls-8, .cls-9 {
        fill: none;
      }

      .cls-8 {
        stroke: #2378d9;
      }

      .cls-9 {
        stroke: #19a0e0;
      }

      .cls-10 {
        fill: #f9f9fc;
      }

      .cls-10, .cls-11 {
        stroke: #ebebeb;
      }

      .cls-12 {
        fill: rgba(96,101,128,0.5);
      }

      .cls-12, .cls-13, .cls-14, .cls-15, .cls-16, .cls-17, .cls-21 {
        fill-rule: evenodd;
      }

      .cls-13 {
        fill: #8acdee;
      }

      .cls-14 {
        fill: #89cdee;
      }

      .cls-15 {
        fill: #3ba83b;
      }

      .cls-18, .cls-19, .cls-25, .cls-26, .cls-27 {
        font-size: 14px;
      }

      .cls-18, .cls-19, .cls-20, .cls-25, .cls-26, .cls-27 {
        font-family: Tahoma;
      }

      .cls-20 {
        font-size: 12px;
      }

      .cls-21, .cls-25 {
        fill: #606580;
      }

      .cls-22 {
        fill: #dfe5f0;
      }

      .cls-23 {
        fill: #20599b;
      }

      .cls-24 {
        stroke: #20599b;
      }

      .cls-26 {
        fill: #40aa55;
      }

      .cls-28 {
        fill: #b1b4c2;
      }

      .cls-29 {
        stroke-miterlimit: 22.926;
      }

      .cls-30 {
        stroke: none;
      }
    </style>
  </defs>
  <g id="Group_1303" data-name="Group 1303" transform="translate(-310 -256)">
    <rect id="Rectangle_1984" data-name="Rectangle 1984" class="cls-1" width="471" height="154" rx="4" transform="translate(310 256)"/>
    <rect id="Rectangle_1962" data-name="Rectangle 1962" class="cls-2" width="365" height="77" rx="4" transform="translate(798 256)"/>
    <rect id="Rectangle_1995" data-name="Rectangle 1995" class="cls-3" width="110" height="20" rx="2" transform="translate(318 296)"/>
    <rect id="Rectangle_1966" data-name="Rectangle 1966" class="cls-3" width="143" height="20" rx="2" transform="translate(806 296)"/>
    <rect id="Rectangle_1989" data-name="Rectangle 1989" class="cls-3" width="88" height="20" rx="2" transform="translate(517 296)"/>
    <rect id="Rectangle_1967" data-name="Rectangle 1967" class="cls-4" width="95" height="20" rx="2" transform="translate(1041 296)"/>
    <rect id="Rectangle_1985" data-name="Rectangle 1985" class="cls-3" width="110" height="20" rx="2" transform="translate(646 296)"/>
    <g id="Rectangle_1977" data-name="Rectangle 1977" class="cls-5" transform="translate(1176 296)">
      <rect class="cls-30" width="49" height="20" rx="2"/>
      <rect class="cls-31" x="0.5" y="0.5" width="48" height="19" rx="1.5"/>
    </g>
    <rect id="Rectangle_1986" data-name="Rectangle 1986" class="cls-3" width="110" height="20" rx="2" transform="translate(646 333)"/>
    <rect id="Rectangle_1987" data-name="Rectangle 1987" class="cls-3" width="110" height="20" rx="2" transform="translate(646 370)"/>
    <path id="Rectangle_1996" data-name="Rectangle 1996" class="cls-6" d="M4,0H79a0,0,0,0,1,0,0V23a4,4,0,0,1-4,4H0a0,0,0,0,1,0,0V4A4,4,0,0,1,4,0Z" transform="translate(310 256)"/>
    <path id="Rectangle_1980" data-name="Rectangle 1980" class="cls-7" d="M4,0H114a0,0,0,0,1,0,0V23a4,4,0,0,1-4,4H0a0,0,0,0,1,0,0V4A4,4,0,0,1,4,0Z" transform="translate(798 256)"/>
    <line id="Line_1653" data-name="Line 1653" class="cls-8" x1="33.308" transform="translate(425.5 306.5)"/>
    <line id="Line_1629" data-name="Line 1629" class="cls-9" x1="33.308" transform="translate(954.5 306.5)"/>
    <line id="Line_1652" data-name="Line 1652" class="cls-8" x1="33.308" transform="translate(480.5 306.5)"/>
    <line id="Line_1630" data-name="Line 1630" class="cls-9" x1="33.308" transform="translate(1001.5 306.5)"/>
    <line id="Line_1648" data-name="Line 1648" class="cls-8" x1="33.308" transform="translate(609.5 306.5)"/>
    <line id="Line_1736" data-name="Line 1736" class="cls-8" x1="43.308" transform="translate(756.5 306.5)"/>
    <line id="Line_1631" data-name="Line 1631" class="cls-9" x1="33.308" transform="translate(1137.5 306.5)"/>
    <line id="Line_1649" data-name="Line 1649" class="cls-8" y2="74" transform="translate(626.5 306.5)"/>
    <line id="Line_1650" data-name="Line 1650" class="cls-8" x1="16.654" transform="translate(626.154 343.5)"/>
    <line id="Line_1651" data-name="Line 1651" class="cls-8" x1="16.654" transform="translate(626.154 380.5)"/>
    <path id="Path_1779" data-name="Path 1779" class="cls-6" d="M-722.533,1085.84l-2.268,3.968h4.875Z" transform="translate(1548.308 1028.8) rotate(90)"/>
    <path id="Path_1715" data-name="Path 1715" class="cls-7" d="M-722.533,1085.84l-2.268,3.968h4.875Z" transform="translate(2077.308 1028.8) rotate(90)"/>
    <path id="Path_1770" data-name="Path 1770" class="cls-6" d="M-722.533,1085.84l-2.268,3.968h4.875Z" transform="translate(1603.308 1028.8) rotate(90)"/>
    <path id="Path_1716" data-name="Path 1716" class="cls-7" d="M-722.533,1085.84l-2.268,3.968h4.875Z" transform="translate(2124.308 1028.8) rotate(90)"/>
    <path id="Path_1764" data-name="Path 1764" class="cls-6" d="M-722.533,1085.84l-2.268,3.968h4.875Z" transform="translate(1732.308 1028.8) rotate(90)"/>
    <path id="Path_1804" data-name="Path 1804" class="cls-6" d="M-722.533,1085.84l-2.268,3.968h4.875Z" transform="translate(1889.308 1028.8) rotate(90)"/>
    <path id="Path_1717" data-name="Path 1717" class="cls-7" d="M-722.533,1085.84l-2.268,3.968h4.875Z" transform="translate(2260.308 1028.8) rotate(90)"/>
    <path id="Path_1765" data-name="Path 1765" class="cls-6" d="M-722.533,1085.84l-2.268,3.968h4.875Z" transform="translate(1732.308 1065.8) rotate(90)"/>
    <path id="Path_1766" data-name="Path 1766" class="cls-6" d="M-722.533,1085.84l-2.268,3.968h4.875Z" transform="translate(1732.308 1102.8) rotate(90)"/>
    <g id="Ellipse_538" data-name="Ellipse 538" class="cls-10" transform="translate(418 298)">
      <circle class="cls-30" cx="8" cy="8" r="8"/>
      <circle class="cls-31" cx="8" cy="8" r="7.5"/>
    </g>
    <g id="Ellipse_517" data-name="Ellipse 517" class="cls-10" transform="translate(941 298)">
      <circle class="cls-30" cx="8" cy="8" r="8"/>
      <circle class="cls-31" cx="8" cy="8" r="7.5"/>
    </g>
    <g id="Ellipse_532" data-name="Ellipse 532" class="cls-10" transform="translate(597 298)">
      <circle class="cls-30" cx="8" cy="8" r="8"/>
      <circle class="cls-31" cx="8" cy="8" r="7.5"/>
    </g>
    <g id="Ellipse_539" data-name="Ellipse 539" class="cls-10" transform="translate(748 298)">
      <circle class="cls-30" cx="8" cy="8" r="8"/>
      <circle class="cls-31" cx="8" cy="8" r="7.5"/>
    </g>
    <g id="Ellipse_518" data-name="Ellipse 518" class="cls-10" transform="translate(1128 298)">
      <circle class="cls-30" cx="8" cy="8" r="8"/>
      <circle class="cls-31" cx="8" cy="8" r="7.5"/>
    </g>
    <g id="Ellipse_525" data-name="Ellipse 525" class="cls-10" transform="translate(1217 298)">
      <circle class="cls-30" cx="8" cy="8" r="8"/>
      <circle class="cls-31" cx="8" cy="8" r="7.5"/>
    </g>
    <g id="Ellipse_536" data-name="Ellipse 536" class="cls-11" transform="translate(463 298)">
      <circle class="cls-30" cx="8" cy="8" r="8"/>
      <circle class="cls-31" cx="8" cy="8" r="7.5"/>
    </g>
    <g id="Ellipse_528" data-name="Ellipse 528" class="cls-11" transform="translate(992 298)">
      <circle class="cls-30" cx="8" cy="8" r="8"/>
      <circle class="cls-31" cx="8" cy="8" r="7.5"/>
    </g>
    <path id="Path_1785" data-name="Path 1785" class="cls-12" d="M4042.9,439.25l3.479,3.478-3.479,3.478v-2.332h-2.247v-2.294h2.247Z" transform="translate(-3617.15 -136.25)"/>
    <path id="Path_1732" data-name="Path 1732" class="cls-13" d="M4042.9,439.25l3.479,3.478-3.479,3.478v-2.332h-2.247v-2.294h2.247Z" transform="translate(-3094.15 -136.25)"/>
    <path id="Path_1767" data-name="Path 1767" class="cls-12" d="M4042.9,439.25l3.479,3.478-3.479,3.478v-2.332h-2.247v-2.294h2.247Z" transform="translate(-3438.15 -136.25)"/>
    <path id="Path_1805" data-name="Path 1805" class="cls-12" d="M4042.9,439.25l3.479,3.478-3.479,3.478v-2.332h-2.247v-2.294h2.247Z" transform="translate(-3287.15 -136.25)"/>
    <path id="Path_1733" data-name="Path 1733" class="cls-14" d="M4042.9,439.25l3.479,3.478-3.479,3.478v-2.332h-2.247v-2.294h2.247Z" transform="translate(-2907.15 -136.25)"/>
    <path id="Path_1740" data-name="Path 1740" class="cls-14" d="M4042.9,439.25l3.479,3.478-3.479,3.478v-2.332h-2.247v-2.294h2.247Z" transform="translate(-2818.15 -136.25)"/>
    <path id="Path_1771" data-name="Path 1771" class="cls-15" d="M111.306,5903.577l-.026-.051-.025-.05-.051-.026-.026-.05-.025-.051-.051-.025-.025-.051-.051-.026-.026-.05-.051-.051-.025-.025-.051-.026-.025-.051-.051-.026-.026-.05-.051-.026-.051-.025-.051-.051-.026-.025-.051-.026-.051-.051-.025-.026-.051-.025-.051-.025-.051-.026-.051-.025-.051-.025-.051-.026-.051-.026-.026-.025-.051-.026-.051-.025v-.638h.281l.051-.026h.077l.025-.025.051-.026h.025l.026-.025.051-.025.025-.025h.026l.025-.026.051-.025.025-.051.026-.025.025-.025.026-.025.025-.026v-.051l.026-.026.025-.025.026-.051v-.026l.026-.05v-.077l.025-.051v-.74l-.025-.05v-.077l-.026-.051v-.025l-.026-.026-.025-.051-.026-.026v-.025l-.025-.051-.026-.025-.025-.026-.026-.025-.025-.025-.051-.026-.025-.025-.026-.025-.025-.026-.051-.025h-.026l-.025-.025-.051-.026h-.076l-.026-.025h-.128l-.051-.025h-3.063l-.051.025h-.128l-.026.025h-.076l-.051.026-.025.025h-.026l-.051.025-.025.026-.026.025-.051.025-.026.026-.025.025-.026.025-.025.026-.026.025-.025.051-.026.025-.025.026v.051l-.026.026-.026.025v.077l-.025.051v.842l.025.05v.077l.026.026.026.051v.025l.025.026.026.051.025.026.026.025.025.025.026.025.025.051.026.025.051.026h.026l.025.025.051.025.026.025h.025l.051.026.025.025h.077l.051.026h.281v.638l-.1.051-.128.051-.1.076-.1.051-.077.077-.1.076-.1.051-.077.077-.1.077-.077.1-.077.077-.077.076-.077.1-.077.1-.077.077-.051.1-.077.1-.051.1-.051.1-.051.1-.051.128-.051.1-.051.1-.025.127-.026.1-.026.127-.025.1-.026.128-.025.127v.23l-.026.127.026.179v.153l.025.179.026.153.051.179.026.153.077.153.051.153.051.153.077.128.077.153.1.127.1.127.077.128.128.127.1.1.1.127.128.1.128.1.128.076.128.1.153.077.153.077.128.051.153.077.153.05.179.026.153.05.153.026.179.025h.153l.179.025.179-.025h.153l.179-.025.153-.026.179-.05.153-.026.153-.05.153-.077.153-.051.128-.077.153-.077.128-.1.128-.076.128-.1.128-.1.1-.127.128-.1.1-.127.1-.128.077-.127.1-.127.077-.153.077-.128.051-.153.077-.153.051-.153.026-.153.051-.179.026-.153.025-.179v-.153l.026-.179v-.077l-.026-.05v-.255l-.025-.077v-.128l-.026-.051v-.077l-.025-.051-.026-.076v-.051l-.026-.077-.025-.051v-.051l-.026-.077-.025-.051-.026-.077-.025-.051-.026-.051-.025-.051-.026-.077-.026-.051-.051-.051-.025-.051-.026-.077-.025-.051-.051-.051-.026-.051-.051-.051Zm-2.884,1.838v-.153l-.025-.026v-.076l-.026-.025v-.025l-.026-.026-.025-.051v-.025l-.026-.025-.025-.025-.026-.026-.025-.025-.026-.026-.025-.025-.026-.025h-.026l-.025-.026-.026-.025h-.051l-.025-.025h-.026l-.025-.025h-.051l-.025-.026h-.28l-.051.026H107.5l-.025.025h-.051l-.025.025h-.026l-.025.025-.051.026h-.026l-.025.025-.026.025-.026.026-.025.025v.026l-.026.025-.025.025-.026.025-.025.051v.026l-.026.025v.025l-.025.051v.051l-.026.051v.2l.026.026v.076h-.587v.1l.025.1v.1l.026.127.025.1.026.077.051.1.026.1.051.1.051.077.051.1.051.077.077.076.051.077.077.077.077.077.077.077.077.077.077.05.077.051.1.051.077.051.1.05.1.051.077.026.1.051.1.025.1.026h.1l.128.025h.433l.1-.025h.1l.1-.026.1-.025.1-.051.1-.026.077-.051.1-.05.1-.051.077-.051.077-.051.077-.05.077-.077.077-.077.077-.077.077-.077.051-.077.077-.076.051-.077.051-.1.051-.077.051-.1.026-.1.051-.1.026-.077.025-.1.026-.127.025-.1v-.2h-2.374v-.025l.025-.025v-.153Zm.281-1.787v.025h0v.026h0v.025h0v.025h0l-.025.026h0v.025h-.026v.025h-.025v.025H108.6v.026h-.051v.025h-.178v-.025h-.051v-.026h-.026v-.025h-.025v-.025h-.026v-.025h0l-.025-.026h0v-.025h0v-.025h0v-.026h0v-.025h0v-.026h0v-.025h0v-.025h0v-.026h.025v-.025h0l.026-.025h0l.025-.026h0l.026-.025h.025v-.025h.077l.026-.026h.025l.026.026h.076v.025h.026l.026.025h0l.025.026h0l.026.025h0v.025h.025v.026h0v.025h0v.025h0v.026Zm1,1v.077h-.026v.077l-.025.025h0v.026l-.026.025v.025H109.6v.025l-.026.025h0l-.025.026h0l-.026.025h-.026l-.025.025h0l-.026.026h-.051v.025h-.28l-.025-.025h-.026l-.026-.026h-.025v-.025h-.026l-.025-.025h0l-.026-.026h0l-.025-.025v-.025h-.026v-.025l-.025-.025v-.026h-.026v-.076l-.026-.025h0v-.179h.026v-.076l.026-.025h0l.025-.026v-.025l.026-.025h0l.025-.025h0l.026-.026v-.025h.025l.026-.025h.025l.026-.026h.026l.025-.025h.128v-.026l.025.026h.128v.025h.051l.026.026h.025l.026.025h.026v.025l.025.026h0l.026.025h0l.025.025v.025l.026.026h0v.025l.025.025v.051h0l.026.026v.076Zm-1.1,3.445h-.255l-.128-.025-.128-.026-.128-.025-.128-.025-.1-.051-.128-.05-.1-.051-.128-.051-.1-.051-.1-.077-.1-.077-.1-.077-.077-.076-.1-.077-.077-.1-.077-.077-.077-.1-.077-.1-.051-.1-.077-.1-.051-.127-.051-.1-.051-.128-.051-.1-.026-.127-.025-.127-.026-.127v-.128l-.026-.127v-.331l.026-.1v-.1l.026-.077.025-.1.026-.1.025-.077.026-.1.025-.1.051-.077.026-.1.051-.077.051-.077.051-.077.051-.1.051-.077.077-.076.051-.077.077-.051.051-.077.077-.077.077-.051.077-.077.077-.051.077-.05.1-.051.077-.051.077-.051.1-.025.1-.051.077-.025.026-.025h.025l.026-.026h.025v-.025h.026l.025-.026h0v-.025h.026v-.025h.026v-.025h0v-.026h.025v-.051h0v-.025h.026v-.026h0v-.051h0v-1.4h0v-.051h0l-.026-.025h0v-.052h0l-.025-.025h0v-.025h-.026v-.026h0l-.026-.025h-.025v-.025h-.026l-.025-.026h-.051l-.026-.025H107.1v-.025h-.025l-.026-.025h0v-.025h0v-.026h-.025v-.025h0v-.357h0l.025-.025h0v-.026h0l.026-.025h0l.025-.025h3.012l.025.025h.026v.025h0v.026h.025v.025h0v.357h0v.025h0v.026h-.025V5901h0v.025h-.051v.025h-.638l-.026.025h-.051l-.025.026h-.026v.025h-.025l-.026.025h0l-.026.026h0v.025h-.025v.025h0v.026l-.026.025h0v.025h0v.051h-.025v1.4l.025.025h0v.026h0v.026h0v.051h.026v.025h0v.026h.025v.025h0l.026.025h0l.026.025h0l.025.026h.026v.025h.025l.026.026h.025l.026.025.077.025.1.051.1.025.077.051.1.051.077.051.077.05.077.051.077.077.077.051.077.077.077.051.051.077.077.076.051.077.051.077.051.077.051.077.051.077.051.1.026.077.051.1.025.077.051.1.026.1.025.077v.1l.026.1.026.1v.562l-.026.127-.026.127-.025.128-.026.127-.051.1-.051.128-.051.1-.051.127-.051.1-.077.1-.077.1-.077.1-.077.076-.077.1-.1.076-.077.077-.1.077-.1.077-.1.077-.1.051-.1.051-.128.051-.1.051-.128.051-.128.025-.128.026-.128.025-.128.025H108.6Z" transform="translate(362.277 -5597.859)"/>
    <path id="Path_1743" data-name="Path 1743" class="cls-15" d="M111.306,5903.577l-.026-.051-.025-.05-.051-.026-.026-.05-.025-.051-.051-.025-.025-.051-.051-.026-.026-.05-.051-.051-.025-.025-.051-.026-.025-.051-.051-.026-.026-.05-.051-.026-.051-.025-.051-.051-.026-.025-.051-.026-.051-.051-.025-.026-.051-.025-.051-.025-.051-.026-.051-.025-.051-.025-.051-.026-.051-.026-.026-.025-.051-.026-.051-.025v-.638h.281l.051-.026h.077l.025-.025.051-.026h.025l.026-.025.051-.025.025-.025h.026l.025-.026.051-.025.025-.051.026-.025.025-.025.026-.025.025-.026v-.051l.026-.026.025-.025.026-.051v-.026l.026-.05v-.077l.025-.051v-.74l-.025-.05v-.077l-.026-.051v-.025l-.026-.026-.025-.051-.026-.026v-.025l-.025-.051-.026-.025-.025-.026-.026-.025-.025-.025-.051-.026-.025-.025-.026-.025-.025-.026-.051-.025h-.026l-.025-.025-.051-.026h-.076l-.026-.025h-.128l-.051-.025h-3.063l-.051.025h-.128l-.026.025h-.076l-.051.026-.025.025h-.026l-.051.025-.025.026-.026.025-.051.025-.026.026-.025.025-.026.025-.025.026-.026.025-.025.051-.026.025-.025.026v.051l-.026.026-.026.025v.077l-.025.051v.842l.025.05v.077l.026.026.026.051v.025l.025.026.026.051.025.026.026.025.025.025.026.025.025.051.026.025.051.026h.026l.025.025.051.025.026.025h.025l.051.026.025.025h.077l.051.026h.281v.638l-.1.051-.128.051-.1.076-.1.051-.077.077-.1.076-.1.051-.077.077-.1.077-.077.1-.077.077-.077.076-.077.1-.077.1-.077.077-.051.1-.077.1-.051.1-.051.1-.051.1-.051.128-.051.1-.051.1-.025.127-.026.1-.026.127-.025.1-.026.128-.025.127v.23l-.026.127.026.179v.153l.025.179.026.153.051.179.026.153.077.153.051.153.051.153.077.128.077.153.1.127.1.127.077.128.128.127.1.1.1.127.128.1.128.1.128.076.128.1.153.077.153.077.128.051.153.077.153.05.179.026.153.05.153.026.179.025h.153l.179.025.179-.025h.153l.179-.025.153-.026.179-.05.153-.026.153-.05.153-.077.153-.051.128-.077.153-.077.128-.1.128-.076.128-.1.128-.1.1-.127.128-.1.1-.127.1-.128.077-.127.1-.127.077-.153.077-.128.051-.153.077-.153.051-.153.026-.153.051-.179.026-.153.025-.179v-.153l.026-.179v-.077l-.026-.05v-.255l-.025-.077v-.128l-.026-.051v-.077l-.025-.051-.026-.076v-.051l-.026-.077-.025-.051v-.051l-.026-.077-.025-.051-.026-.077-.025-.051-.026-.051-.025-.051-.026-.077-.026-.051-.051-.051-.025-.051-.026-.077-.025-.051-.051-.051-.026-.051-.051-.051Zm-2.884,1.838v-.153l-.025-.026v-.076l-.026-.025v-.025l-.026-.026-.025-.051v-.025l-.026-.025-.025-.025-.026-.026-.025-.025-.026-.026-.025-.025-.026-.025h-.026l-.025-.026-.026-.025h-.051l-.025-.025h-.026l-.025-.025h-.051l-.025-.026h-.28l-.051.026H107.5l-.025.025h-.051l-.025.025h-.026l-.025.025-.051.026h-.026l-.025.025-.026.025-.026.026-.025.025v.026l-.026.025-.025.025-.026.025-.025.051v.026l-.026.025v.025l-.025.051v.051l-.026.051v.2l.026.026v.076h-.587v.1l.025.1v.1l.026.127.025.1.026.077.051.1.026.1.051.1.051.077.051.1.051.077.077.076.051.077.077.077.077.077.077.077.077.077.077.05.077.051.1.051.077.051.1.05.1.051.077.026.1.051.1.025.1.026h.1l.128.025h.433l.1-.025h.1l.1-.026.1-.025.1-.051.1-.026.077-.051.1-.05.1-.051.077-.051.077-.051.077-.05.077-.077.077-.077.077-.077.077-.077.051-.077.077-.076.051-.077.051-.1.051-.077.051-.1.026-.1.051-.1.026-.077.025-.1.026-.127.025-.1v-.2h-2.374v-.025l.025-.025v-.153Zm.281-1.787v.025h0v.026h0v.025h0v.025h0l-.025.026h0v.025h-.026v.025h-.025v.025H108.6v.026h-.051v.025h-.178v-.025h-.051v-.026h-.026v-.025h-.025v-.025h-.026v-.025h0l-.025-.026h0v-.025h0v-.025h0v-.026h0v-.025h0v-.026h0v-.025h0v-.025h0v-.026h.025v-.025h0l.026-.025h0l.025-.026h0l.026-.025h.025v-.025h.077l.026-.026h.025l.026.026h.076v.025h.026l.026.025h0l.025.026h0l.026.025h0v.025h.025v.026h0v.025h0v.025h0v.026Zm1,1v.077h-.026v.077l-.025.025h0v.026l-.026.025v.025H109.6v.025l-.026.025h0l-.025.026h0l-.026.025h-.026l-.025.025h0l-.026.026h-.051v.025h-.28l-.025-.025h-.026l-.026-.026h-.025v-.025h-.026l-.025-.025h0l-.026-.026h0l-.025-.025v-.025h-.026v-.025l-.025-.025v-.026h-.026v-.076l-.026-.025h0v-.179h.026v-.076l.026-.025h0l.025-.026v-.025l.026-.025h0l.025-.025h0l.026-.026v-.025h.025l.026-.025h.025l.026-.026h.026l.025-.025h.128v-.026l.025.026h.128v.025h.051l.026.026h.025l.026.025h.026v.025l.025.026h0l.026.025h0l.025.025v.025l.026.026h0v.025l.025.025v.051h0l.026.026v.076Zm-1.1,3.445h-.255l-.128-.025-.128-.026-.128-.025-.128-.025-.1-.051-.128-.05-.1-.051-.128-.051-.1-.051-.1-.077-.1-.077-.1-.077-.077-.076-.1-.077-.077-.1-.077-.077-.077-.1-.077-.1-.051-.1-.077-.1-.051-.127-.051-.1-.051-.128-.051-.1-.026-.127-.025-.127-.026-.127v-.128l-.026-.127v-.331l.026-.1v-.1l.026-.077.025-.1.026-.1.025-.077.026-.1.025-.1.051-.077.026-.1.051-.077.051-.077.051-.077.051-.1.051-.077.077-.076.051-.077.077-.051.051-.077.077-.077.077-.051.077-.077.077-.051.077-.05.1-.051.077-.051.077-.051.1-.025.1-.051.077-.025.026-.025h.025l.026-.026h.025v-.025h.026l.025-.026h0v-.025h.026v-.025h.026v-.025h0v-.026h.025v-.051h0v-.025h.026v-.026h0v-.051h0v-1.4h0v-.051h0l-.026-.025h0v-.052h0l-.025-.025h0v-.025h-.026v-.026h0l-.026-.025h-.025v-.025h-.026l-.025-.026h-.051l-.026-.025H107.1v-.025h-.025l-.026-.025h0v-.025h0v-.026h-.025v-.025h0v-.357h0l.025-.025h0v-.026h0l.026-.025h0l.025-.025h3.012l.025.025h.026v.025h0v.026h.025v.025h0v.357h0v.025h0v.026h-.025V5901h0v.025h-.051v.025h-.638l-.026.025h-.051l-.025.026h-.026v.025h-.025l-.026.025h0l-.026.026h0v.025h-.025v.025h0v.026l-.026.025h0v.025h0v.051h-.025v1.4l.025.025h0v.026h0v.026h0v.051h.026v.025h0v.026h.025v.025h0l.026.025h0l.026.025h0l.025.026h.026v.025h.025l.026.026h.025l.026.025.077.025.1.051.1.025.077.051.1.051.077.051.077.05.077.051.077.077.077.051.077.077.077.051.051.077.077.076.051.077.051.077.051.077.051.077.051.077.051.1.026.077.051.1.025.077.051.1.026.1.025.077v.1l.026.1.026.1v.562l-.026.127-.026.127-.025.128-.026.127-.051.1-.051.128-.051.1-.051.127-.051.1-.077.1-.077.1-.077.1-.077.076-.077.1-.1.076-.077.077-.1.077-.1.077-.1.077-.1.051-.1.051-.128.051-.1.051-.128.051-.128.025-.128.026-.128.025-.128.025H108.6Z" transform="translate(891.277 -5597.859)"/>
    <path id="Path_1786" data-name="Path 1786" class="cls-16" d="M164.516,2500.788v-12h0v-.082h0v-.081h-.081v-.082h-.081v-.082h-.163l-.081-.081h-2.041v.081h-.245v.082h-.081v.082h-.081v.081h0v.082h0v12h-1.306v.082h-.082v.082h-.081v.082h0v.082h0v.979h0v.082h0v.082h0l.081.082h0l.082.081h.163v.082h15.267v-.082h.244v-.081h.081v-.082h0v-.082h0v-.082h.081v-.979h-.081v-.082h0v-.082h0l-.081-.082h0l-.081-.082h-1.224v-3.347h-1.633V2491.4H171.7v6.041h-2.123v-8.654h0v-.082h0v-.081H169.5v-.082h-.081v-.082h-.163l-.081-.081H167.13v.081h-.244v.082H166.8v.082h-.081v.081h0v.082h0v8.654h-1.47v3.347h-.734Zm3.1-7.021h-.408v-3.347h.408Zm1.877,7.184v-2.694h.49v2.694Zm.979,0v-2.694h.49v2.694Zm.979,0v-2.694h.49v2.694Zm.979,0v-2.694h.49v2.694Zm.979,0v-2.694h.49v2.694Zm-10.858-7.184h-.408v-3.347h.408Z" transform="translate(159.811 -2225.775)"/>
    <path id="Path_1769" data-name="Path 1769" class="cls-17" d="M180.806,2205.506v-8.474h-.512v.511h-.73v-.511h0l-.146-.073-.146-.073v-.511h0l.146.073.146.073v-.584h-.146l-.146-.073-.439-.146-.585-.146-.585-.146h-.146l-.512-.073-.511-.073-1.169-.146h-.585l-.584-.073h-2.045l-.95.073-.95.073-.95.146-.877.146-.8.146-.365.073-.293.073-.219.073-.219.073v.585h0l.219-.146.293-.073v.511h0l-.293.146-.219.073v8.475h-1.1v1.1h16v-1.1h-.585Zm-11.689,0v-8.548h0l1.1-.146v8.694Zm6.429-9.279v-.511h0l.8.073.73.073v.584h0l-.73-.146-.8-.073h0Zm-.584-.073h-.8l-.73-.073v-.511h.73l.8.073Zm-2.119-.073h-.73l-.8.073v-.512h0l.8-.073h.73Zm-2.119.146h0l-.8.073-.8.073v-.511h0l.8-.073.8-.073Zm8.84,6.649h.73v1.023h-.73Zm.73-.584h-.73v-1.023h.73Zm-.73-1.534v-1.1h.73v1.1Zm.73-2.63v1.023h-.73v-1.023Zm-1.608-1.9v.512h0l-.511-.146-.511-.073v-.511h0l.511.073.511.146h0Zm-11.1-.073h0l.439-.073.585-.146v.585h0l-.585.073-.439.073v-.511Zm0,1.973h0v-.877h0l.511-.146v8.4h-.511Zm11.982,7.379v-1.023h.73v1.023Z" transform="translate(360.61 -1895.061)"/>
    <path id="Path_1760" data-name="Path 1760" class="cls-16" d="M180.806,2205.506v-8.474h-.512v.511h-.73v-.511h0l-.146-.073-.146-.073v-.511h0l.146.073.146.073v-.584h-.146l-.146-.073-.439-.146-.585-.146-.585-.146h-.146l-.512-.073-.511-.073-1.169-.146h-.585l-.584-.073h-2.045l-.95.073-.95.073-.95.146-.877.146-.8.146-.365.073-.293.073-.219.073-.219.073v.585h0l.219-.146.293-.073v.511h0l-.293.146-.219.073v8.475h-1.1v1.1h16v-1.1h-.585Zm-11.689,0v-8.548h0l1.1-.146v8.694Zm6.429-9.279v-.511h0l.8.073.73.073v.584h0l-.73-.146-.8-.073h0Zm-.584-.073h-.8l-.73-.073v-.511h.73l.8.073Zm-2.119-.073h-.73l-.8.073v-.512h0l.8-.073h.73Zm-2.119.146h0l-.8.073-.8.073v-.511h0l.8-.073.8-.073Zm8.84,6.649h.73v1.023h-.73Zm.73-.584h-.73v-1.023h.73Zm-.73-1.534v-1.1h.73v1.1Zm.73-2.63v1.023h-.73v-1.023Zm-1.608-1.9v.512h0l-.511-.146-.511-.073v-.511h0l.511.073.511.146h0Zm-11.1-.073h0l.439-.073.585-.146v.585h0l-.585.073-.439.073v-.511Zm0,1.973h0v-.877h0l.511-.146v8.4h-.511Zm11.982,7.379v-1.023h.73v1.023Z" transform="translate(641.61 -1931.061)"/>
    <path id="Path_1747" data-name="Path 1747" class="cls-16" d="M180.806,2205.506v-8.474h-.512v.511h-.73v-.511h0l-.146-.073-.146-.073v-.511h0l.146.073.146.073v-.584h-.146l-.146-.073-.439-.146-.585-.146-.585-.146h-.146l-.512-.073-.511-.073-1.169-.146h-.585l-.584-.073h-2.045l-.95.073-.95.073-.95.146-.877.146-.8.146-.365.073-.293.073-.219.073-.219.073v.585h0l.219-.146.293-.073v.511h0l-.293.146-.219.073v8.475h-1.1v1.1h16v-1.1h-.585Zm-11.689,0v-8.548h0l1.1-.146v8.694Zm6.429-9.279v-.511h0l.8.073.73.073v.584h0l-.73-.146-.8-.073h0Zm-.584-.073h-.8l-.73-.073v-.511h.73l.8.073Zm-2.119-.073h-.73l-.8.073v-.512h0l.8-.073h.73Zm-2.119.146h0l-.8.073-.8.073v-.511h0l.8-.073.8-.073Zm8.84,6.649h.73v1.023h-.73Zm.73-.584h-.73v-1.023h.73Zm-.73-1.534v-1.1h.73v1.1Zm.73-2.63v1.023h-.73v-1.023Zm-1.608-1.9v.512h0l-.511-.146-.511-.073v-.511h0l.511.073.511.146h0Zm-11.1-.073h0l.439-.073.585-.146v.585h0l-.585.073-.439.073v-.511Zm0,1.973h0v-.877h0l.511-.146v8.4h-.511Zm11.982,7.379v-1.023h.73v1.023Z" transform="translate(884.61 -1895.061)"/>
    <path id="Path_1761" data-name="Path 1761" class="cls-17" d="M96.556,6320.037v-.607H94.219v.607h0l-.182.091-.152.091-.182.091-.152.121-.182.122-.121.151-.152.122-.121.151H91.914v3.886h1.063l.091.122.121.121.152.121.091.091.152.122.152.091.152.091.121.061.182.091.152.062.182.061.152.03.182.062h.182l.182.03h.334l.213-.03h.152l.182-.062.182-.03.152-.061.152-.062.182-.091.121-.061.152-.091.152-.091.152-.122.091-.091.152-.121.121-.121.091-.122h1.063v-3.886H97.8l-.122-.151-.121-.122-.152-.151-.152-.122-.182-.121-.182-.091-.152-.091-.182-.091h0Zm-9.3,1.523h2.88v3.2H87.26Zm13.12,0h2.88v3.2h-2.88Zm-.727-4.37h-8.53v-.79h8.531v.79Zm-6.709-.79h0Zm-2.216,8.857h.79v-4.675h-.79Zm8.53-4.675v4.675h.79v-4.675Zm-2.307-2.307H93.825v.79h3.127Z" transform="translate(565.74 -6015.4)"/>
    <path id="Path_1762" data-name="Path 1762" class="cls-17" d="M96.556,6320.037v-.607H94.219v.607h0l-.182.091-.152.091-.182.091-.152.121-.182.122-.121.151-.152.122-.121.151H91.914v3.886h1.063l.091.122.121.121.152.121.091.091.152.122.152.091.152.091.121.061.182.091.152.062.182.061.152.03.182.062h.182l.182.03h.334l.213-.03h.152l.182-.062.182-.03.152-.061.152-.062.182-.091.121-.061.152-.091.152-.091.152-.122.091-.091.152-.121.121-.121.091-.122h1.063v-3.886H97.8l-.122-.151-.121-.122-.152-.151-.152-.122-.182-.121-.182-.091-.152-.091-.182-.091h0Zm-9.3,1.523h2.88v3.2H87.26Zm13.12,0h2.88v3.2h-2.88Zm-.727-4.37h-8.53v-.79h8.531v.79Zm-6.709-.79h0Zm-2.216,8.857h.79v-4.675h-.79Zm8.53-4.675v4.675h.79v-4.675Zm-2.307-2.307H93.825v.79h3.127Z" transform="translate(565.74 -5978.4)"/>
    <g id="Group_412" data-name="Group 412" transform="translate(-228.805 -447.913)">
      <path id="Path_82" data-name="Path 82" class="cls-6" d="M3157.692,5439.8c.071.105,1.744,2.588,1.744,3.571a1.868,1.868,0,1,1-3.736,0c0-.984,1.673-3.466,1.744-3.571a.147.147,0,0,1,.119-.061h.009A.147.147,0,0,1,3157.692,5439.8Zm.024,4.692a.15.15,0,0,0-.149-.15.972.972,0,0,1-.972-.971.149.149,0,1,0-.3,0,1.27,1.27,0,0,0,1.27,1.27.149.149,0,0,0,.149-.149Z" transform="translate(-2597.962 -4688.343)"/>
      <path id="Path_83" data-name="Path 83" class="cls-6" d="M3105.108,5396.277a4.522,4.522,0,0,1-4.817-.929l.374-.222a.291.291,0,0,0-.006-.552l-1.822-1.029c-.266-.15-.486-.021-.492.287l-.044,2.141c-.005.308.2.433.463.278l.517-.305a5.647,5.647,0,0,0,5.838,1.533C3106.262,5397.173,3105.695,5396.037,3105.108,5396.277Zm-7.328-4.882v-.055a1.787,1.787,0,0,1,.071-.424,5.693,5.693,0,0,1,4.432-4.431v1.172a4.551,4.551,0,0,0-3.37,3.787c-.037.532-1.112.816-1.133-.049Zm5.005-2.755,1.85-1.109a.313.313,0,0,0,0-.585l-1.868-1.13c-.269-.163-.485-.041-.483.273l.01,2.276c0,.313.22.438.49.276Zm6.4,5.456-.97-.575.59.342a5.674,5.674,0,0,0-1.682-6.116c-.579-.521-1.432.048-.885.743a4.521,4.521,0,0,1,1.558,4.783l-.5-.3c-.261-.154-.469-.026-.464.285l.032,2.136c.006.311.222.442.486.292l1.83-1.042a.291.291,0,0,0,.006-.551Z" transform="translate(-2543.975 -4638.013)"/>
    </g>
    <text id="ОНПЗ" class="cls-18" transform="translate(343 275)"><tspan x="0" y="0">ОНПЗ</tspan></text>
    <text id="Омская_НБ" data-name="Омская НБ" class="cls-18" transform="translate(831 275)"><tspan x="0" y="0">Омская НБ</tspan></text>
    <text id="АИ-92-К5" class="cls-19" transform="translate(347 312)"><tspan x="0" y="0">АИ-92-К5</tspan></text>
    <text id="СИКНП_УУ-104" data-name="СИКНП УУ-104" class="cls-19" transform="translate(835 312)"><tspan x="0" y="0">СИКНП УУ-104</tspan></text>
    <text id="Р-32" class="cls-19" transform="translate(552 312)"><tspan x="0" y="0">Р-32</tspan></text>
    <text id="РВС_5" data-name="РВС №5" class="cls-18" transform="translate(1072 312)"><tspan x="0" y="0">РВС №5</tspan></text>
    <text id="PLA92GPN" class="cls-20" transform="translate(675 311)"><tspan x="0" y="0">PLA92GPN</tspan></text>
    <text id="PLbenz8-10" class="cls-20" transform="translate(675 348)"><tspan x="0" y="0">PLbenz8-10</tspan></text>
    <text id="ЖД" class="cls-20" transform="translate(675 385)"><tspan x="0" y="0">ЖД</tspan></text>
    <g id="Group_410" data-name="Group 410" transform="translate(811 298)">
      <path id="Path_48" data-name="Path 48" class="cls-6" d="M154.63,4006.5a8,8,0,1,0,8,8A8.009,8.009,0,0,0,154.63,4006.5Zm.686,2.148v-.742a6.6,6.6,0,0,1,3.489,1.449l-3.592,3.592a1.8,1.8,0,0,1,1.057.882l3.5-3.5a6.6,6.6,0,0,1,1.449,3.489h-.742a.686.686,0,0,0,0,1.372h.742a6.64,6.64,0,0,1-5.907,5.908v-1.473a.686.686,0,1,0-1.371,0v1.473a6.641,6.641,0,0,1-5.908-5.908h.742a.686.686,0,1,0,0-1.372h-.742a6.641,6.641,0,0,1,5.908-5.908v.742a.686.686,0,1,0,1.371,0Z" transform="translate(-146.63 -4006.5)"/>
      <path id="Path_49" data-name="Path 49" class="cls-17" d="M233,4092.47a1.788,1.788,0,1,1-1.788,1.788A1.788,1.788,0,0,1,233,4092.47Z" transform="translate(-224.944 -4086.101)"/>
    </g>
    <path id="Path_1751" data-name="Path 1751" class="cls-21" d="M41.845,6749.217h0l-.17.019-.14.067-.14.073-.11.085-.1.121-.067.122-.055.158-.018.158h0l.018.158.055.14.067.158.1.1.11.1.14.073.14.037.17.018h0l.14-.018.158-.037.158-.073.1-.1.091-.1.085-.158.036-.14.018-.158h0l-.018-.158-.036-.158-.085-.122-.091-.121-.1-.085-.158-.073-.158-.067-.14-.019Zm0,1.064h0l-.121-.019-.067-.049-.055-.091-.018-.1h0l.018-.1.055-.073.067-.067.121-.019h0l.091.019.1.067.055.073.018.1h0l-.018.1-.055.091-.1.049-.091.019Zm4.862-1.064h0l-.158.019-.158.067-.14.073-.1.085-.1.121-.091.122-.03.158-.018.158h0l.018.158.03.14.091.158.1.1.1.1.14.073.158.037.158.018h0l.158-.018.14-.037.14-.073.14-.1.085-.1.073-.158.036-.14.018-.158h0l-.018-.158-.036-.158-.073-.122-.085-.121-.14-.085-.14-.073-.14-.067-.158-.019Zm0,1.064h0l-.1-.019-.073-.049-.067-.091-.037-.1h0l.037-.1.067-.073.073-.067.1-.019h0l.1.019.091.067.048.073.018.1h0l-.018.1-.048.091-.091.049-.1.019Zm7.1-1.519v-.912h0l-.018-.085-.037-.054-.03-.049-.055-.054-.121-.085-.176-.091-.893-.3-.328-1.045h0l-.073-.158-.036-.091-.067-.048-.036-.055-.067-.036-.073-.018-.085-.019h-.456l-.334-.31-.225-.194-.262-.212-.3-.189-.334-.158-.176-.073-.189-.085-.213-.055-.189-.036h0v1.313h0v3.342H47.529l.121-.037.127-.049.1-.073.067-.085.091-.14.048-.121.055-.158.036-.14.048-.279.018-.262.036-.249h0l-.036-.243-.018-.261-.048-.3-.036-.14-.055-.14-.048-.122-.091-.14-.067-.091-.1-.067-.127-.073-.121-.019h-1.4v-.522H44.539v.522H41.883v-.522H40.291v.522h-1.4l-.14.019-.1.073-.1.067-.091.091-.067.14-.055.122-.048.14-.055.14-.055.3-.018.261-.018.243h0l.018.249.018.262.055.279.055.14.048.158.055.121.067.14.091.085.1.073.1.049.14.037H38.14v1.051h.547v-.036h0v-.1l.018-.122.048-.194.121-.195.127-.17.152-.127.194-.085.213-.085h.1l.121-.019h0l.158.019.176.03.14.092.158.066.14.109.085.121.085.14.091.158h0l.067-.158.073-.14.121-.121.121-.109.158-.066.14-.092.176-.03.17-.019h0l.11.019h.121l.206.085.176.085.158.127.121.17.121.195.055.194.018.122v.1h0v.036h2.674v-.036h0v-.1l.018-.122.067-.194.11-.195.121-.17.17-.127.194-.085.194-.085H46.6l.1-.019h0l.121.019h.091l.207.085.194.085.158.127.14.17.1.195.067.194.018.122v.1h0l.036.018.195.019h3.13v-.037h0v-.1l.012-.122.073-.194.1-.194.121-.17.176-.127.194-.085.207-.085h.091l.1-.018h0l.121.018h.1l.213.085.194.085.17.127.121.17.11.194.067.194.018.122v.1h0v.037h.364l.091-.019.067-.037.073-.048.067-.073.036-.1.037-.1.018-.14.018-.146h0l-.018-.14-.018-.1-.018-.1-.036-.1-.067-.073-.055-.049-.055-.036-.067-.018h0Zm-3.616-1.787v-.839h1.24l.1.019.055.055.048.049.037.073.279.8Zm2.06,2.242h0l-.14.019-.158.067-.121.073-.14.085-.085.121-.073.122-.055.158-.012.158h0l.012.158.055.14.073.158.085.1.14.1.121.073.158.037.14.018h0l.176-.018.158-.037.121-.073.121-.1.1-.1.073-.158.048-.14.018-.158h0l-.018-.158L53,6749.7l-.073-.122-.1-.121-.121-.085-.121-.073-.158-.067-.176-.019Zm0,1.064h0l-.085-.019-.091-.049-.048-.091-.036-.1h0l.036-.1.048-.073.091-.067.085-.019h0l.121.019.073.067.049.073.055.1h0l-.055.1-.049.091-.073.049-.121.019Zm-12.464-1.064h0l-.158.019-.158.067-.14.073-.121.085-.085.121-.073.122-.067.158v.158h0v.158l.067.14.073.158.085.1.121.1.14.073.158.037.158.018h0l.158-.018.158-.037.121-.073.121-.1.085-.1.073-.158.067-.14.018-.158h0l-.018-.158-.067-.158-.073-.122-.085-.121-.121-.085-.121-.073-.158-.067-.158-.019Zm0,1.064h0l-.1-.019-.091-.049-.049-.091-.036-.1h0l.036-.1.049-.073.091-.067.1-.019h0l.1.019.073.067.067.073.018.1h0l-.018.1-.067.091-.073.049-.1.019Z" transform="translate(1144.859 -6442.351)"/>
    <path id="Path_2330" data-name="Path 2330" class="cls-17" d="M29826.963,5859.886a.64.64,0,1,1,1.252-.259A.64.64,0,0,1,29826.963,5859.886Zm-2.637,0a.64.64,0,1,1,1.254-.259A.64.64,0,0,1,29824.326,5859.886Zm11.775-.065a.641.641,0,0,1,1.273-.151A.641.641,0,0,1,29836.1,5859.821Zm-2.637,0a.642.642,0,0,1,1.275-.151A.642.642,0,0,1,29833.465,5859.821Zm-4.58-1.231c-.518,0-.453,0-.541-.13.109-.065-.15-.065.262-.108h4.557c.238.043.088-.043.2.108-.064.151.193.151-.562.13Zm-5.357-4.062a.533.533,0,0,1,.563-.367h13.523a.582.582,0,0,1,.561.367Zm4.9-.778c-1.037,0-3.65-.043-4.559,0-1.166.065-1.037,2.657-.928,3.457.193,1.6,1.166.8,1.555,1.491a2.615,2.615,0,0,0-.453.389,1.155,1.155,0,0,0,.258,1.6,1.137,1.137,0,0,0,1.6-.324.943.943,0,0,0,.107-.26l.086-.259c0-.022.023-.022.023-.043h.279a3.958,3.958,0,0,1,.174.454,1.134,1.134,0,0,0,.236.324,1.2,1.2,0,0,0,.822.324c.973-.022,1.016-.843,1.166-1.1l4.17.021c.15.432.086.476.389.778a1.107,1.107,0,0,0,1.879-.8l.367.021a2.426,2.426,0,0,0,.217.6,1.623,1.623,0,0,0,.41.367,1.139,1.139,0,0,0,1.641-1.188c-.086-.519-.344-.648-.646-.886.475-.562.584-.173,1.059-.475a1.487,1.487,0,0,0,.518-1.016c.109-.929.3-3.435-1.08-3.435h-4.516c-.064-.54-.236-.8-.777-.885a22.218,22.218,0,0,0-3.176.021.841.841,0,0,0-.5.324c-.26.346-.021.432-.281.54Z" transform="translate(-29170.074 -5476.32)"/>
    <rect id="Rectangle_2249" data-name="Rectangle 2249" class="cls-22" width="292" height="77" rx="4" transform="translate(1272 256)"/>
    <rect id="Rectangle_2250" data-name="Rectangle 2250" class="cls-3" width="168.581" height="19" rx="2" transform="translate(1374.512 285)"/>
    <rect id="Rectangle_2251" data-name="Rectangle 2251" class="cls-3" width="168.581" height="19" rx="2" transform="translate(1374.512 310)"/>
    <path id="Rectangle_2252" data-name="Rectangle 2252" class="cls-23" d="M4,0H74a0,0,0,0,1,0,0V23a4,4,0,0,1-4,4H0a0,0,0,0,1,0,0V4A4,4,0,0,1,4,0Z" transform="translate(1272 256)"/>
    <line id="Line_1928" data-name="Line 1928" class="cls-24" x1="17" transform="translate(1309.5 306.5)"/>
    <line id="Line_1929" data-name="Line 1929" class="cls-24" x1="14" transform="translate(1326.5 294.5)"/>
    <line id="Line_1931" data-name="Line 1931" class="cls-24" x1="14" transform="translate(1326.5 319.5)"/>
    <line id="Line_1933" data-name="Line 1933" class="cls-24" y1="25" transform="translate(1326.5 294.5)"/>
    <line id="Line_1934" data-name="Line 1934" class="cls-9" x1="42" transform="translate(1240.5 306.5)"/>
    <path id="Path_2472" data-name="Path 2472" class="cls-23" d="M-722.533,1085.84l-2.268,3.968h4.875Z" transform="translate(2429.308 1016.8) rotate(90)"/>
    <path id="Path_2473" data-name="Path 2473" class="cls-23" d="M-722.533,1085.84l-2.268,3.968h4.875Z" transform="translate(2429.308 1041.8) rotate(90)"/>
    <path id="Path_2474" data-name="Path 2474" class="cls-7" d="M-722.533,1085.84l-2.268,3.968h4.875Z" transform="translate(2371.308 1028.8) rotate(90)"/>
    <g id="Ellipse_621" data-name="Ellipse 621" class="cls-11" transform="translate(1289 298)">
      <circle class="cls-30" cx="8" cy="8" r="8"/>
      <circle class="cls-31" cx="8" cy="8" r="7.5"/>
    </g>
    <path id="Path_2475" data-name="Path 2475" class="cls-15" d="M111.306,5903.577l-.026-.051-.025-.05-.051-.026-.026-.05-.025-.051-.051-.025-.025-.051-.051-.026-.026-.05-.051-.051-.025-.025-.051-.026-.025-.051-.051-.026-.026-.05-.051-.026-.051-.025-.051-.051-.026-.025-.051-.026-.051-.051-.025-.026-.051-.025-.051-.025-.051-.026-.051-.025-.051-.025-.051-.026-.051-.026-.026-.025-.051-.026-.051-.025v-.638h.281l.051-.026h.077l.025-.025.051-.026h.025l.026-.025.051-.025.025-.025h.026l.025-.026.051-.025.025-.051.026-.025.025-.025.026-.025.025-.026v-.051l.026-.026.025-.025.026-.051v-.026l.026-.05v-.077l.025-.051v-.74l-.025-.05v-.077l-.026-.051v-.025l-.026-.026-.025-.051-.026-.026v-.025l-.025-.051-.026-.025-.025-.026-.026-.025-.025-.025-.051-.026-.025-.025-.026-.025-.025-.026-.051-.025h-.026l-.025-.025-.051-.026h-.076l-.026-.025h-.128l-.051-.025h-3.063l-.051.025h-.128l-.026.025h-.076l-.051.026-.025.025h-.026l-.051.025-.025.026-.026.025-.051.025-.026.026-.025.025-.026.025-.025.026-.026.025-.025.051-.026.025-.025.026v.051l-.026.026-.026.025v.077l-.025.051v.842l.025.05v.077l.026.026.026.051v.025l.025.026.026.051.025.026.026.025.025.025.026.025.025.051.026.025.051.026h.026l.025.025.051.025.026.025h.025l.051.026.025.025h.077l.051.026h.281v.638l-.1.051-.128.051-.1.076-.1.051-.077.077-.1.076-.1.051-.077.077-.1.077-.077.1-.077.077-.077.076-.077.1-.077.1-.077.077-.051.1-.077.1-.051.1-.051.1-.051.1-.051.128-.051.1-.051.1-.025.127-.026.1-.026.127-.025.1-.026.128-.025.127v.23l-.026.127.026.179v.153l.025.179.026.153.051.179.026.153.077.153.051.153.051.153.077.128.077.153.1.127.1.127.077.128.128.127.1.1.1.127.128.1.128.1.128.076.128.1.153.077.153.077.128.051.153.077.153.05.179.026.153.05.153.026.179.025h.153l.179.025.179-.025h.153l.179-.025.153-.026.179-.05.153-.026.153-.05.153-.077.153-.051.128-.077.153-.077.128-.1.128-.076.128-.1.128-.1.1-.127.128-.1.1-.127.1-.128.077-.127.1-.127.077-.153.077-.128.051-.153.077-.153.051-.153.026-.153.051-.179.026-.153.025-.179v-.153l.026-.179v-.077l-.026-.05v-.255l-.025-.077v-.128l-.026-.051v-.077l-.025-.051-.026-.076v-.051l-.026-.077-.025-.051v-.051l-.026-.077-.025-.051-.026-.077-.025-.051-.026-.051-.025-.051-.026-.077-.026-.051-.051-.051-.025-.051-.026-.077-.025-.051-.051-.051-.026-.051-.051-.051Zm-2.884,1.838v-.153l-.025-.026v-.076l-.026-.025v-.025l-.026-.026-.025-.051v-.025l-.026-.025-.025-.025-.026-.026-.025-.025-.026-.026-.025-.025-.026-.025h-.026l-.025-.026-.026-.025h-.051l-.025-.025h-.026l-.025-.025h-.051l-.025-.026h-.28l-.051.026H107.5l-.025.025h-.051l-.025.025h-.026l-.025.025-.051.026h-.026l-.025.025-.026.025-.026.026-.025.025v.026l-.026.025-.025.025-.026.025-.025.051v.026l-.026.025v.025l-.025.051v.051l-.026.051v.2l.026.026v.076h-.587v.1l.025.1v.1l.026.127.025.1.026.077.051.1.026.1.051.1.051.077.051.1.051.077.077.076.051.077.077.077.077.077.077.077.077.077.077.05.077.051.1.051.077.051.1.05.1.051.077.026.1.051.1.025.1.026h.1l.128.025h.433l.1-.025h.1l.1-.026.1-.025.1-.051.1-.026.077-.051.1-.05.1-.051.077-.051.077-.051.077-.05.077-.077.077-.077.077-.077.077-.077.051-.077.077-.076.051-.077.051-.1.051-.077.051-.1.026-.1.051-.1.026-.077.025-.1.026-.127.025-.1v-.2h-2.374v-.025l.025-.025v-.153Zm.281-1.787v.025h0v.026h0v.025h0v.025h0l-.025.026h0v.025h-.026v.025h-.025v.025H108.6v.026h-.051v.025h-.178v-.025h-.051v-.026h-.026v-.025h-.025v-.025h-.026v-.025h0l-.025-.026h0v-.025h0v-.025h0v-.026h0v-.025h0v-.026h0v-.025h0v-.025h0v-.026h.025v-.025h0l.026-.025h0l.025-.026h0l.026-.025h.025v-.025h.077l.026-.026h.025l.026.026h.076v.025h.026l.026.025h0l.025.026h0l.026.025h0v.025h.025v.026h0v.025h0v.025h0v.026Zm1,1v.077h-.026v.077l-.025.025h0v.026l-.026.025v.025H109.6v.025l-.026.025h0l-.025.026h0l-.026.025h-.026l-.025.025h0l-.026.026h-.051v.025h-.28l-.025-.025h-.026l-.026-.026h-.025v-.025h-.026l-.025-.025h0l-.026-.026h0l-.025-.025v-.025h-.026v-.025l-.025-.025v-.026h-.026v-.076l-.026-.025h0v-.179h.026v-.076l.026-.025h0l.025-.026v-.025l.026-.025h0l.025-.025h0l.026-.026v-.025h.025l.026-.025h.025l.026-.026h.026l.025-.025h.128v-.026l.025.026h.128v.025h.051l.026.026h.025l.026.025h.026v.025l.025.026h0l.026.025h0l.025.025v.025l.026.026h0v.025l.025.025v.051h0l.026.026v.076Zm-1.1,3.445h-.255l-.128-.025-.128-.026-.128-.025-.128-.025-.1-.051-.128-.05-.1-.051-.128-.051-.1-.051-.1-.077-.1-.077-.1-.077-.077-.076-.1-.077-.077-.1-.077-.077-.077-.1-.077-.1-.051-.1-.077-.1-.051-.127-.051-.1-.051-.128-.051-.1-.026-.127-.025-.127-.026-.127v-.128l-.026-.127v-.331l.026-.1v-.1l.026-.077.025-.1.026-.1.025-.077.026-.1.025-.1.051-.077.026-.1.051-.077.051-.077.051-.077.051-.1.051-.077.077-.076.051-.077.077-.051.051-.077.077-.077.077-.051.077-.077.077-.051.077-.05.1-.051.077-.051.077-.051.1-.025.1-.051.077-.025.026-.025h.025l.026-.026h.025v-.025h.026l.025-.026h0v-.025h.026v-.025h.026v-.025h0v-.026h.025v-.051h0v-.025h.026v-.026h0v-.051h0v-1.4h0v-.051h0l-.026-.025h0v-.052h0l-.025-.025h0v-.025h-.026v-.026h0l-.026-.025h-.025v-.025h-.026l-.025-.026h-.051l-.026-.025H107.1v-.025h-.025l-.026-.025h0v-.025h0v-.026h-.025v-.025h0v-.357h0l.025-.025h0v-.026h0l.026-.025h0l.025-.025h3.012l.025.025h.026v.025h0v.026h.025v.025h0v.357h0v.025h0v.026h-.025V5901h0v.025h-.051v.025h-.638l-.026.025h-.051l-.025.026h-.026v.025h-.025l-.026.025h0l-.026.026h0v.025h-.025v.025h0v.026l-.026.025h0v.025h0v.051h-.025v1.4l.025.025h0v.026h0v.026h0v.051h.026v.025h0v.026h.025v.025h0l.026.025h0l.026.025h0l.025.026h.026v.025h.025l.026.026h.025l.026.025.077.025.1.051.1.025.077.051.1.051.077.051.077.05.077.051.077.077.077.051.077.077.077.051.051.077.077.076.051.077.051.077.051.077.051.077.051.077.051.1.026.077.051.1.025.077.051.1.026.1.025.077v.1l.026.1.026.1v.562l-.026.127-.026.127-.025.128-.026.127-.051.1-.051.128-.051.1-.051.127-.051.1-.077.1-.077.1-.077.1-.077.076-.077.1-.1.076-.077.077-.1.077-.1.077-.1.077-.1.051-.1.051-.128.051-.1.051-.128.051-.128.025-.128.026-.128.025-.128.025H108.6Z" transform="translate(1188.277 -5597.859)"/>
    <text id="АЗС" class="cls-18" transform="translate(1305 275)"><tspan x="0" y="0">АЗС</tspan></text>
    <text id="Количество_АЗС_30" data-name="Количество АЗС 30" class="cls-25" transform="translate(1421 275)"><tspan x="0" y="0">Количество АЗС 30</tspan></text>
    <text id="_2" data-name="2" class="cls-26" transform="translate(1536 300)"><tspan x="-7.643" y="0">2</tspan></text>
    <text id="_8" data-name="8" class="cls-27" transform="translate(1536 325)"><tspan x="-7.643" y="0">8</tspan></text>
    <text id="АЗС_норма:" data-name="АЗС норма:" class="cls-25" transform="translate(1383 300)"><tspan x="0" y="0">АЗС норма:</tspan></text>
    <text id="АЗС_отклонения:" data-name="АЗС отклонения:" class="cls-25" transform="translate(1383 325)"><tspan x="0" y="0">АЗС отклонения:</tspan></text>
    <path id="Path_2476" data-name="Path 2476" class="cls-16" d="M197.6,3307.8l-.486-1.476-.261.1-.81.288.423,1.17v1.206l-.558.279v3.483l.279-.135v6.524h0l-.018.117-.045.126-.036.081-.081.1-.081.054-.1.063-.1.018-.126.027h0l-.117-.027-.1-.018-.108-.063-.081-.054-.081-.1-.054-.081-.027-.126-.018-.117v-9.692h0v-.18l-.036-.162-.045-.161-.036-.162-.081-.153-.081-.126-.1-.144-.126-.117-.117-.1-.126-.1-.136-.108-.161-.054-.144-.063-.161-.036-.18-.027-.162-.018h-.261V3306.1h-8.531v14.929h-.63v1.071h9.791v-1.071h-.63v-12.068h.261l.108.027.117.018.1.063.081.081.063.072.063.108.036.1v9.809h0l.018.18.018.162.045.18.063.144.054.162.108.135.1.126.1.117.117.117.144.107.144.081.135.054.161.063.162.045.161.036h.36l.161-.036.162-.045.161-.063.144-.054.135-.081.144-.107.117-.117.108-.117.1-.126.081-.135.081-.162.054-.144.045-.18.018-.162.018-.18v-7.091l.288-.144v-4.2Zm-5.723,3.663h-.8l-.126-.243-.135-.243-.161-.2-.2-.207.882-1.062-.54-.423-.909,1.107h0l-.243-.1-.279-.081-.288-.063-.279-.018h0l-.2.018-.18.018-.189.027-.18.054-.161.063-.153.063-.161.1-.162.081-.144.117-.144.1-.117.126-.117.135-.108.144-.1.162-.081.144-.081.18H185.7v-4.212h6.173v4.212Z" transform="translate(1098.1 -3044.1)"/>
    <g id="Group_693" data-name="Group 693" transform="translate(1861.328 375.519) rotate(180)">
      <rect id="Rectangle_3" data-name="Rectangle 3" class="cls-28" width="19.779" height="8.272" rx="4.136" transform="translate(492.329 52.234)"/>
      <ellipse id="Ellipse_1" data-name="Ellipse 1" class="cls-29" cx="5.167" cy="5.167" rx="5.167" ry="5.167" transform="translate(501.995 51.203)"/>
    </g>
    <g id="Group_694" data-name="Group 694" transform="translate(1861.328 350.519) rotate(180)">
      <rect id="Rectangle_3-2" data-name="Rectangle 3" class="cls-28" width="19.779" height="8.272" rx="4.136" transform="translate(492.329 52.234)"/>
      <ellipse id="Ellipse_1-2" data-name="Ellipse 1" class="cls-29" cx="5.167" cy="5.167" rx="5.167" ry="5.167" transform="translate(501.995 51.203)"/>
    </g>
  </g>
</svg>
