<svg xmlns="http://www.w3.org/2000/svg" xmlns:xlink="http://www.w3.org/1999/xlink" viewBox="0 0 1785.26 1582.4"><defs><radialGradient id="radial-gradient" cx="892.71" cy="796.81" r="366.01" gradientUnits="userSpaceOnUse"><stop offset="0" stop-color="#2378d9" stop-opacity="0"/><stop offset="1" stop-color="#2378d9" stop-opacity="0.4"/></radialGradient><radialGradient id="radial-gradient-2" cx="4371.46" cy="1887.22" r="115.67" gradientTransform="translate(-3477.73 -1093.73)" gradientUnits="userSpaceOnUse"><stop offset="0" stop-color="#004b6a"/><stop offset="1" stop-color="#002b3f"/></radialGradient><linearGradient id="linear-gradient" x1="5444.65" y1="6934" x2="5454.65" y2="6934" gradientTransform="translate(-3929.38 -6542.9)" gradientUnits="userSpaceOnUse"><stop offset="0" stop-color="#11121a"/><stop offset="1" stop-color="#20222e" stop-opacity="0"/></linearGradient><linearGradient id="linear-gradient-2" x1="5047.08" y1="6037.47" x2="5057.08" y2="6037.47" gradientTransform="translate(-3537.82 -5691.86)" xlink:href="#linear-gradient"/><linearGradient id="linear-gradient-3" x1="4823.87" y1="6660.34" x2="4833.87" y2="6660.34" xlink:href="#linear-gradient"/><linearGradient id="linear-gradient-4" x1="4773.42" y1="6658.25" x2="4783.42" y2="6658.25" gradientTransform="translate(-3884.93 -6586.3)" xlink:href="#linear-gradient"/><linearGradient id="linear-gradient-5" x1="4201.39" y1="6934.43" x2="4211.39" y2="6934.43" xlink:href="#linear-gradient"/><linearGradient id="linear-gradient-6" x1="5047.51" y1="7280.73" x2="5057.51" y2="7280.73" gradientTransform="translate(-4781.51 -6934.69)" xlink:href="#linear-gradient"/><linearGradient id="linear-gradient-7" x1="4201.39" y1="7833.04" x2="4211.39" y2="7833.04" xlink:href="#linear-gradient"/><linearGradient id="linear-gradient-8" x1="5946.12" y1="7280.73" x2="5956.12" y2="7280.73" gradientTransform="translate(-5680.12 -6036.08)" xlink:href="#linear-gradient"/><linearGradient id="linear-gradient-9" x1="4823.12" y1="8071.28" x2="4833.12" y2="8071.28" xlink:href="#linear-gradient"/><linearGradient id="linear-gradient-10" x1="6184.36" y1="6659.01" x2="6194.36" y2="6659.01" gradientTransform="translate(-5296.63 -5176.12)" xlink:href="#linear-gradient"/><linearGradient id="linear-gradient-11" x1="5444" y1="7833.04" x2="5454" y2="7833.04" xlink:href="#linear-gradient"/><linearGradient id="linear-gradient-12" x1="5946.12" y1="6038.12" x2="5956.12" y2="6038.12" gradientTransform="translate(-4437.51 -4793.47)" xlink:href="#linear-gradient"/></defs>
    <g id="Слой_2" data-name="Слой 2"><g id="Layer_1" data-name="Layer 1"><text transform="translate(1322.73 394.3)" font-size="40" fill="#fff" font-family="Tahoma, Tahoma"><tspan letter-spacing="-0.01em">4</tspan><tspan x="21.45" y="0" letter-spacing="-0.02em">,</tspan><tspan x="32.6" y="0">70 </tspan><tspan x="88.77" y="0" font-size="30">%</tspan></text><text transform="translate(1591.72 394.3)" font-size="40" fill="#606580" font-family="Tahoma, Tahoma"><tspan letter-spacing="-0.01em">4</tspan><tspan x="21.45" y="0" letter-spacing="-0.02em">,</tspan><tspan x="32.6" y="0">75 </tspan><tspan x="88.77" y="0" font-size="30">%</tspan></text><text transform="translate(1448.76 318.98)" font-size="34" fill="#fff" font-family="Tahoma, Tahoma" letter-spacing="0em">Т<tspan x="20" y="0" letter-spacing="-0.01em">о</tspan><tspan x="38" y="0" letter-spacing="0em">п</tspan><tspan x="57" y="0" letter-spacing="0em">л</tspan><tspan x="76" y="0" letter-spacing="0em">и</tspan><tspan x="95" y="0" letter-spacing="0em">в</tspan><tspan x="113" y="0" letter-spacing="-0.01em">о</tspan></text><polyline points="569.32 601.2 564.99 603.7 564.99 608.7" fill="none" stroke="#606580" stroke-miterlimit="10" stroke-width="2"/><line x1="564.99" y1="618.69" x2="564.99" y2="973.29" fill="none" stroke="#606580" stroke-miterlimit="10" stroke-width="2" stroke-dasharray="9.99 9.99"/><polyline points="564.99 978.29 564.99 983.29 569.32 985.79" fill="none" stroke="#606580" stroke-miterlimit="10" stroke-width="2"/><line x1="577.97" y1="990.78" x2="885.07" y2="1168.09" fill="none" stroke="#606580" stroke-miterlimit="10" stroke-width="2" stroke-dasharray="9.99 9.99"/><polyline points="889.4 1170.58 893.73 1173.08 898.06 1170.58" fill="none" stroke="#606580" stroke-miterlimit="10" stroke-width="2"/><line x1="906.71" y1="1165.59" x2="1213.81" y2="988.28" fill="none" stroke="#606580" stroke-miterlimit="10" stroke-width="2" stroke-dasharray="9.99 9.99"/><polyline points="1218.13 985.79 1222.46 983.29 1222.46 978.29" fill="none" stroke="#606580" stroke-miterlimit="10" stroke-width="2"/><line x1="1222.46" y1="968.3" x2="1222.46" y2="613.69" fill="none" stroke="#606580" stroke-miterlimit="10" stroke-width="2" stroke-dasharray="9.99 9.99"/><polyline points="1222.46 608.7 1222.46 603.7 1218.13 601.2" fill="none" stroke="#606580" stroke-miterlimit="10" stroke-width="2"/><line x1="1209.48" y1="596.2" x2="902.38" y2="418.9" fill="none" stroke="#606580" stroke-miterlimit="10" stroke-width="2" stroke-dasharray="9.99 9.99"/><polyline points="898.06 416.4 893.73 413.9 889.4 416.4" fill="none" stroke="#606580" stroke-miterlimit="10" stroke-width="2"/><line x1="880.75" y1="421.4" x2="573.65" y2="598.7" fill="none" stroke="#606580" stroke-miterlimit="10" stroke-width="2" stroke-dasharray="9.99 9.99"/><path d="M893.73,401.75,1233,597.62V989.36L893.73,1185.24,554.47,989.36V597.62L893.73,401.75m0-2.31-341.26,197V990.52l341.26,197,341.26-197V596.46l-341.26-197Z" fill="#3fa9f5"/><polygon points="556.19 598.6 555.61 988.24 893.56 1189.6 1229.81 987.53 1228.99 600.84 893.73 404.02 556.19 598.6" fill-rule="evenodd" opacity="0.5" fill="url(#radial-gradient)"/><g opacity="0.1"><line x1="801.97" y1="740.43" x2="801.11" y2="739.93" fill="none" stroke="#29abe2" stroke-miterlimit="10"/><line x1="799.39" y1="738.94" x2="555.61" y2="598.26" fill="none" stroke="#29abe2" stroke-miterlimit="10" stroke-dasharray="1.99 1.99"/><line x1="554.75" y1="597.76" x2="553.88" y2="597.26" fill="none" stroke="#29abe2" stroke-miterlimit="10"/></g><g opacity="0.1"><line x1="893.73" y1="687.55" x2="893.73" y2="686.55" fill="none" stroke="#29abe2" stroke-miterlimit="10"/><line x1="893.73" y1="684.56" x2="893.73" y2="402.92" fill="none" stroke="#29abe2" stroke-miterlimit="10" stroke-dasharray="1.99 1.99"/><line x1="893.73" y1="401.92" x2="893.73" y2="400.92" fill="none" stroke="#29abe2" stroke-miterlimit="10"/></g><g opacity="0.1"><line x1="801.97" y1="846.46" x2="801.11" y2="846.96" fill="none" stroke="#29abe2" stroke-miterlimit="10"/><line x1="799.37" y1="847.96" x2="553.86" y2="989.24" fill="none" stroke="#29abe2" stroke-miterlimit="10" stroke-dasharray="2 2"/><line x1="552.99" y1="989.74" x2="552.13" y2="990.24" fill="none" stroke="#29abe2" stroke-miterlimit="10"/></g><g opacity="0.1"><line x1="893.48" y1="899.44" x2="893.48" y2="900.44" fill="none" stroke="#29abe2" stroke-miterlimit="10"/><line x1="893.48" y1="902.43" x2="893.58" y2="1184.27" fill="none" stroke="#29abe2" stroke-miterlimit="10" stroke-dasharray="1.99 1.99"/><line x1="893.58" y1="1185.27" x2="893.58" y2="1186.27" fill="none" stroke="#29abe2" stroke-miterlimit="10"/></g><g opacity="0.1"><line x1="1233.57" y1="989.7" x2="1232.7" y2="989.2" fill="none" stroke="#29abe2" stroke-miterlimit="10"/><line x1="1230.98" y1="988.2" x2="987.21" y2="847.46" fill="none" stroke="#29abe2" stroke-miterlimit="10" stroke-dasharray="1.99 1.99"/><line x1="986.34" y1="846.96" x2="985.48" y2="846.46" fill="none" stroke="#29abe2" stroke-miterlimit="10"/></g><g opacity="0.1"><line x1="1234.22" y1="597.82" x2="1233.35" y2="598.32" fill="none" stroke="#29abe2" stroke-miterlimit="10"/><line x1="1231.63" y1="599.32" x2="987.21" y2="739.93" fill="none" stroke="#29abe2" stroke-miterlimit="10" stroke-dasharray="1.99 1.99"/><line x1="986.35" y1="740.43" x2="985.48" y2="740.93" fill="none" stroke="#29abe2" stroke-miterlimit="10"/></g><circle cx="1229.36" cy="986.69" r="3.01" fill="#29abe2"/><circle cx="555.61" cy="988.17" r="3.01" fill="#29abe2"/><circle cx="556.89" cy="599.61" r="3.01" fill="#29abe2"/><circle cx="893.73" cy="172.05" r="3.01" fill="#29abe2"/><circle cx="893.73" cy="404.02" r="3.01" fill="#29abe2"/><circle cx="272.99" cy="1173.7" r="3.01" fill="#29abe2"/><circle cx="893.48" cy="1411.94" r="3.01" fill="#29abe2"/><circle cx="1514.26" cy="1173.99" r="3.01" fill="#29abe2"/><circle cx="1514.26" cy="444.13" r="3.01" fill="#29abe2"/><circle cx="1229.15" cy="600.83" r="3.01" fill="#29abe2"/><circle cx="893.58" cy="1188.94" r="3.35" fill="#29abe2"/><polygon points="786.64 731.66 786.64 855.32 893.73 917.15 1000.82 855.32 1000.82 731.66 893.73 669.84 786.64 731.66" stroke="#464f70" stroke-miterlimit="10" fill-rule="evenodd" fill="url(#radial-gradient-2)"/><path d="M950.89,820.18V809.49l2-.06v4.14c1.78.12,2.42-.32,3.56.82,1.59,1.66,1,5.35-1.14,5.73a25.38,25.38,0,0,1-4.46.06Zm-40.77-9.54.06-1.21h2v1.21c2.67.06,4,1.4,4.07,4.07s-1.4,4.14-4.07,4.14v1.33h-2v-1.27c-1.46-.19-2.1-.06-3-1a4.81,4.81,0,0,1-.13-6.11c.89-.95,1.47-1,3.06-1.14Zm-43.2,9.54h-2V809.49l2-.06v4.14h2.67v-4.14h2v10.75h-2v-5h-2.67Zm62.79-10.69,7.12-.06-.06,1.65h-2.48v9l-2,.06v-9l-2.54-.07Zm-41.41,4.08h3.37v1.65H888.3v3.31H892v1.65h-5.73V809.49l5.73-.06v1.65H888.3Zm-28.06,10H962.6l.06-17.5H860.3Zm-21.56-17.5a9.53,9.53,0,0,0,1-.76,7.67,7.67,0,0,1,3.37-1.27c8.34-.7,12.16,11.57.2,15.65a14.27,14.27,0,0,1-13.68-24.5c2.54-2.16,5-2.92,9.1-3.3V772.85c-8.85-.57-19,5.92-22.65,13.81-12.22,26,18.13,47.84,38.55,31.42,3.5-2.8,2.67-2.22,2.67-6.42,0-2.87.19-11.84-.06-13.43H838.74c-.26,1.15-.06,6.37-.06,7.89Zm104.52-8H948l.06-16c.7,1,2.1,13.42,2.74,16h3.88c.7-2.61,2.1-15,2.61-16l.13,16h4.83l.06-25.45H956c-.82,2-2.48,16-3.24,17.37-.38-.77-2.74-15.08-3.18-17.31l-6.36-.06Zm-95.36-19.85c1.14,1.08,2,6.23,2.1,8.33,0,2.55-.83,6.55-2,8.27-3-4.9-2.48-11.64-.06-16.6ZM843,781.5c-1.14-3-.57-11.7.19-15.39.57-2.86,3.18-10.56,4.65-12.22,1.71,1.53,4.26,9.74,4.77,12.28a39.61,39.61,0,0,1,.63,11.9c-.06.95-.51,3-.51,3.62-.44-4.26.13-6-1.33-11.26-.38-1.59-2.29-7.18-3.37-8.71a1.25,1.25,0,0,0-.19-.26c-1.15,1.34-2.87,6.75-3.5,8.91-1.08,3.88-1,7.06-1.34,11.13Zm4.84,15.08c1.59-1.4,4.13-7.19,5.09-9.86a41,41,0,0,0-2.23-31.81,29.11,29.11,0,0,0-2.86-4.71c-2.17,3.82-3.44,5.54-5,10.12A41.47,41.47,0,0,0,845,791.87c1.21,2.36,2.1,3.31,2.87,4.71Zm51.59,1.53h4.83l.07-22.27,1.46-.06.06,22.33h4.9V772.66H899.43Zm34.1-21c0-2,1.52-1.65,1.52,0v16.42c0,1.14-.25,1.52-1.4,1.14l-.12-1.14Zm-2-4.39c-3,.45-2.86,3.25-2.86,6.24v9.29c0,5.79-1,9.79,3.82,9.86,8.77.12,7.5.19,7.5-15.59,0-2.23.38-6.93-.63-8.46a3.55,3.55,0,0,0-3.25-1.4,36.53,36.53,0,0,0-4.58.06Zm-56.11,15.84c-.13-1.52.45-7.38.57-9.6a14.33,14.33,0,0,1,.13-1.66c.06-1.33.13-1.2.19-1.33s0-.13.07-.13c.38.83.95,11.13.89,12.72ZM870,798.11h2.93c2.23,0,1.72,1.27,2.23-6.68a5.81,5.81,0,0,1,2.35,0l.45,6.68h4.7c.13-1-2.29-23.92-2.48-25.45h-7.69c-.32,2.93-2.68,24.43-2.49,25.45Zm14.89-17.31h4.84c.12-1-.13-3.75.06-4.45a.78.78,0,0,1,1.46-.06,36.22,36.22,0,0,1-.13,6.49c-.44,1.2-2.54.76-3.75.82v2.8c2.55.13,3.95-.7,3.95,2.36,0,1.59.38,4.77-.39,6-1.46.06-1.14-.83-1.14-2.23V789.2h-5c0,6.93-.58,8.91,5,8.91,5.85,0,6.42.19,6.42-7.38,0-1.85.45-4.46-1.46-5.41-.51-.25-1.4-.19-1.84-.45l1.65-.5c1.91-.89,1.65-3.19,1.65-4.9,0-2.93.32-5.73-2.16-6.62-1.53-.51-6.81-.38-7.89.51-1.65,1.4-1.46,5.28-1.27,7.44Zm34.1-5,1.21.19c.51,1.53.32,4.26.32,6.11,0,3.24.44,4.7-1.59,4.51Zm-5,22.33h5l-.06-8.65c2.86-.13,5.47.31,6.23-2.36.51-1.72.25-6.36.25-8.4,0-7.44-2-6-11.38-6Zm-53.63,0h4.9l.06-22.33h4.39l.06-3.12h-9.35Zm51.85,19.15c1.65,0,2-.83,2-2.55,0-1.53-.38-2.42-2-2.42Zm-2-.07v-4.9c-1.53-.12-2,1-2,2.42s.45,2.74,2,2.48Zm42.75,1.4c1.59.26,2.42,0,2.35-1.72-.06-1.52-.82-1.78-2.29-1.59Z" fill="#1d2233" fill-rule="evenodd" opacity="0.7"/><line x1="893.73" y1="172.05" x2="893.73" y2="404.02" fill="none" stroke="#3fa9f5" stroke-miterlimit="10" stroke-dasharray="8"/><line x1="893.73" y1="1188.94" x2="893.73" y2="1414.93" fill="none" stroke="#3fa9f5" stroke-miterlimit="10" stroke-dasharray="8"/><line x1="1229.36" y1="986.69" x2="1514.26" y2="1173.99" fill="none" stroke="#3fa9f5" stroke-miterlimit="10" stroke-dasharray="8"/><line x1="555.61" y1="988.24" x2="272.99" y2="1173.7" fill="none" stroke="#3fa9f5" stroke-miterlimit="10" stroke-dasharray="8"/><line x1="556.89" y1="599.61" x2="272.99" y2="443.84" fill="none" stroke="#3fa9f5" stroke-miterlimit="10" stroke-dasharray="8"/><line x1="1228.99" y1="600.83" x2="1514.26" y2="444.13" fill="none" stroke="#3fa9f5" stroke-miterlimit="10" stroke-dasharray="8"/><rect x="1515.27" y="340.62" width="10" height="100.96" opacity="0.5" fill="url(#linear-gradient)"/><rect x="1509.26" y="76.39" width="10" height="538.46" transform="translate(1859.88 -1168.64) rotate(90)" opacity="0.5" fill="url(#linear-gradient-2)"/><rect x="1244.26" y="274.67" width="540" height="169.46" rx="10" ry="10" fill="none" stroke="#3fa9f5" stroke-miterlimit="10" stroke-width="2"/><text transform="translate(1611.14 430.56)" font-size="20" fill="#606580" font-family="Tahoma, Tahoma">План</text><text transform="translate(1353.04 430.56)" font-size="20" fill="#606580" font-family="Tahoma, Tahoma">Прогноз</text><text transform="translate(701.28 120.63)" font-size="40" fill="#fff" font-family="Tahoma, Tahoma">96,4 <tspan x="90.12" y="0" font-size="30">%</tspan></text><text transform="translate(970.27 120.63)" font-size="40" fill="#606580" font-family="Tahoma, Tahoma">96,3 <tspan x="90.12" y="0" font-size="30">%</tspan></text><text transform="translate(657.98 45.32)" font-size="34" fill="#fff" font-family="Tahoma, Tahoma" letter-spacing="-0.01em">Э<tspan x="20" y="0" letter-spacing="0em">к</tspan><tspan x="37" y="0" letter-spacing="0.01em">с</tspan><tspan x="53" y="0" letter-spacing="0em">п</tspan><tspan x="72" y="0" letter-spacing="0em">л</tspan><tspan x="91" y="0" letter-spacing="0em">у</tspan><tspan x="108" y="0" letter-spacing="0em">а</tspan><tspan x="126" y="0" letter-spacing="0em">т</tspan><tspan x="142" y="0" letter-spacing="0em">а</tspan><tspan x="160" y="0" letter-spacing="-0.01em">ц</tspan><tspan x="179" y="0" letter-spacing="0em">и</tspan><tspan x="198" y="0" letter-spacing="-0.01em">о</tspan><tspan x="216" y="0" letter-spacing="0em">нн</tspan><tspan x="254" y="0" letter-spacing="0em">а</tspan><tspan x="272" y="0" letter-spacing="0em">я</tspan><tspan x="290" y="0" letter-spacing="0.01em"> </tspan><tspan x="301" y="0" letter-spacing="0em">г</tspan><tspan x="315" y="0" letter-spacing="-0.01em">о</tspan><tspan x="333" y="0" letter-spacing="0em">т</tspan><tspan x="349" y="0" letter-spacing="-0.01em">о</tspan><tspan x="367" y="0" letter-spacing="0em">в</tspan><tspan x="385" y="0" letter-spacing="0em">н</tspan><tspan x="404" y="0" letter-spacing="-0.01em">о</tspan><tspan x="422" y="0" letter-spacing="0.01em">с</tspan><tspan x="438" y="0" letter-spacing="0em">т</tspan><tspan x="454" y="0" letter-spacing="0em">ь</tspan></text><rect x="894.49" y="66.95" width="10" height="100.96" opacity="0.5" fill="url(#linear-gradient-3)"/><rect x="888.48" y="-197.28" width="10" height="538.46" transform="translate(965.43 -821.53) rotate(90)" opacity="0.5" fill="url(#linear-gradient-4)"/><rect x="623.48" y="1" width="540" height="169.46" rx="10" ry="10" fill="none" stroke="#3fa9f5" stroke-miterlimit="10" stroke-width="2"/><text transform="translate(996.47 156.89)" font-size="20" fill="#606580" font-family="Tahoma, Tahoma">План</text><text transform="translate(728.38 156.89)" font-size="20" fill="#606580" font-family="Tahoma, Tahoma">Прогноз</text><text transform="translate(63.4 394.72)" font-size="40" fill="#fff" font-family="Tahoma, Tahoma">105<tspan x="65.51" y="0" letter-spacing="-0.02em">,</tspan><tspan x="76.66" y="0">7 </tspan><tspan x="111" y="0" font-size="30">EII</tspan></text><text transform="translate(331.91 394.72)" font-size="40" fill="#606580" font-family="Tahoma, Tahoma">105,6 <tspan x="111.95" y="0" font-size="30">EII</tspan></text><text transform="translate(96 319.41)" font-size="34" fill="#fff" font-family="Tahoma, Tahoma" letter-spacing="-0.01em">Э<tspan x="20" y="0" letter-spacing="0em">н</tspan><tspan x="39" y="0" letter-spacing="0em">е</tspan><tspan x="57" y="0" letter-spacing="0.01em">р</tspan><tspan x="76" y="0" letter-spacing="0em">г</tspan><tspan x="90" y="0" letter-spacing="-0.01em">о</tspan><tspan x="108" y="0" letter-spacing="0em">э</tspan><tspan x="124" y="0" letter-spacing="0em">фф</tspan><tspan x="176" y="0" letter-spacing="0em">е</tspan><tspan x="194" y="0" letter-spacing="0em">к</tspan><tspan x="211" y="0" letter-spacing="0em">т</tspan><tspan x="227" y="0" letter-spacing="0em">и</tspan><tspan x="246" y="0" letter-spacing="0em">в</tspan><tspan x="264" y="0" letter-spacing="0em">н</tspan><tspan x="283" y="0" letter-spacing="-0.01em">о</tspan><tspan x="301" y="0" letter-spacing="0.01em">с</tspan><tspan x="317" y="0" letter-spacing="0em">т</tspan><tspan x="333" y="0" letter-spacing="0em">ь</tspan></text><rect x="272.01" y="341.04" width="10" height="100.96" opacity="0.5" fill="url(#linear-gradient-5)"/><rect x="266" y="76.81" width="10" height="538.46" transform="translate(617.04 75.04) rotate(90)" opacity="0.5" fill="url(#linear-gradient-6)"/><rect x="1" y="275.09" width="540" height="169.46" rx="10" ry="10" fill="none" stroke="#3fa9f5" stroke-miterlimit="10" stroke-width="2"/><text transform="translate(376.66 430.99)" font-size="20" fill="#606580" font-family="Tahoma, Tahoma">План</text><text transform="translate(111.61 430.99)" font-size="20" fill="#606580" font-family="Tahoma, Tahoma">Прогноз</text><text transform="translate(44.63 1293.33)" font-size="40" fill="#fff" font-family="Tahoma, Tahoma">1,636 <tspan x="111.95" y="0" font-size="30">млн.т</tspan></text><text transform="translate(313.62 1293.33)" font-size="40" fill="#606580" font-family="Tahoma, Tahoma">1,635 <tspan x="111.95" y="0" font-size="30">млн.т</tspan></text><text transform="translate(114.5 1218.02)" font-size="34" fill="#fff" font-family="Tahoma, Tahoma" letter-spacing="0em">О<tspan x="24" y="0" letter-spacing="0.01em">б</tspan><tspan x="43" y="0" letter-spacing="-0.01em">ъ</tspan><tspan x="62" y="0" letter-spacing="0em">е</tspan><tspan x="80" y="0" letter-spacing="0.01em">м</tspan><tspan x="102" y="0" letter-spacing="0.01em"> </tspan><tspan x="113" y="0" letter-spacing="0em">п</tspan><tspan x="132" y="0" letter-spacing="0em">е</tspan><tspan x="150" y="0" letter-spacing="0.01em">р</tspan><tspan x="169" y="0" letter-spacing="0em">е</tspan><tspan x="187" y="0" letter-spacing="0.01em">р</tspan><tspan x="206" y="0" letter-spacing="0em">а</tspan><tspan x="224" y="0" letter-spacing="0.01em">б</tspan><tspan x="243" y="0" letter-spacing="-0.01em">о</tspan><tspan x="261" y="0" letter-spacing="0em">т</tspan><tspan x="277" y="0" letter-spacing="0em">к</tspan><tspan x="294" y="0" letter-spacing="0em">и</tspan></text><rect x="272.01" y="1239.65" width="10" height="100.96" opacity="0.5" fill="url(#linear-gradient-7)"/><rect x="266" y="975.42" width="10" height="538.46" transform="translate(1515.65 973.65) rotate(90)" opacity="0.5" fill="url(#linear-gradient-8)"/><rect x="1" y="1173.7" width="540" height="169.46" rx="10" ry="10" fill="none" stroke="#3fa9f5" stroke-miterlimit="10" stroke-width="2"/><text transform="translate(378.82 1329.6)" font-size="20" fill="#606580" font-family="Tahoma, Tahoma">План</text><text transform="translate(111.61 1329.6)" font-size="20" fill="#606580" font-family="Tahoma, Tahoma">Прогноз</text><text transform="translate(700.53 1531.57)" font-size="40" fill="#fff" font-family="Tahoma, Tahoma">93,0 <tspan x="90.12" y="0" font-size="30">%</tspan></text><text transform="translate(969.99 1531.57)" font-size="40" fill="#606580" font-family="Tahoma, Tahoma">92<tspan x="43.67" y="0" letter-spacing="-0.02em">,</tspan><tspan x="54.82" y="0">7 </tspan><tspan x="89.16" y="0" font-size="30">%</tspan></text><text transform="translate(723.23 1456.26)" font-size="34" fill="#fff" font-family="Tahoma, Tahoma" letter-spacing="-0.01em">Г<tspan x="17" y="0" letter-spacing="0em">л</tspan><tspan x="36" y="0" letter-spacing="0em">у</tspan><tspan x="53" y="0" letter-spacing="0.01em">б</tspan><tspan x="72" y="0" letter-spacing="0em">и</tspan><tspan x="91" y="0" letter-spacing="0em">н</tspan><tspan x="110" y="0" letter-spacing="0em">а</tspan><tspan x="128" y="0" letter-spacing="0.01em"> </tspan><tspan x="139" y="0" letter-spacing="0em">п</tspan><tspan x="158" y="0" letter-spacing="0em">е</tspan><tspan x="176" y="0" letter-spacing="0.01em">р</tspan><tspan x="195" y="0" letter-spacing="0em">е</tspan><tspan x="213" y="0" letter-spacing="0.01em">р</tspan><tspan x="232" y="0" letter-spacing="0em">а</tspan><tspan x="250" y="0" letter-spacing="0.01em">б</tspan><tspan x="269" y="0" letter-spacing="-0.01em">о</tspan><tspan x="287" y="0" letter-spacing="0em">т</tspan><tspan x="303" y="0" letter-spacing="0em">к</tspan><tspan x="320" y="0" letter-spacing="0em">и</tspan></text><rect x="893.74" y="1477.89" width="10" height="100.96" opacity="0.5" fill="url(#linear-gradient-9)"/><rect x="887.73" y="1213.66" width="10" height="538.46" transform="translate(2375.62 590.16) rotate(90)" opacity="0.5" fill="url(#linear-gradient-10)"/><rect x="622.73" y="1411.94" width="540" height="169.46" rx="10" ry="10" fill="none" stroke="#3fa9f5" stroke-miterlimit="10" stroke-width="2"/><text transform="translate(993.05 1567.83)" font-size="20" fill="#606580" font-family="Tahoma, Tahoma">План</text><text transform="translate(732.84 1567.83)" font-size="20" fill="#606580" font-family="Tahoma, Tahoma">Прогноз</text><text transform="translate(1327.46 1293.33)" font-size="40" fill="#fff" font-family="Tahoma, Tahoma">100 <tspan x="78.01" y="0" font-size="30">%</tspan></text><text transform="translate(1596.45 1293.33)" font-size="40" fill="#606580" font-family="Tahoma, Tahoma">100 <tspan x="78.01" y="0" font-size="30">%</tspan></text><text transform="translate(1414.11 1218.02)" font-size="34" fill="#fff" font-family="Tahoma, Tahoma" letter-spacing="-0.01em">А<tspan x="20" y="0" letter-spacing="0.01em">сс</tspan><tspan x="52" y="0" letter-spacing="-0.01em">о</tspan><tspan x="70" y="0" letter-spacing="0.01em">р</tspan><tspan x="89" y="0" letter-spacing="0em">т</tspan><tspan x="105" y="0" letter-spacing="0em">и</tspan><tspan x="124" y="0" letter-spacing="0.01em">м</tspan><tspan x="146" y="0" letter-spacing="0em">е</tspan><tspan x="164" y="0" letter-spacing="0em">н</tspan><tspan x="183" y="0" letter-spacing="0em">т</tspan></text><rect x="1514.62" y="1239.65" width="10" height="100.96" opacity="0.5" fill="url(#linear-gradient-11)"/><rect x="1508.61" y="975.42" width="10" height="538.46" transform="translate(2758.26 -268.96) rotate(90)" opacity="0.5" fill="url(#linear-gradient-12)"/><rect x="1243.61" y="1173.7" width="540" height="169.46" rx="10" ry="10" fill="none" stroke="#3fa9f5" stroke-miterlimit="10" stroke-width="2"/><text transform="translate(1618.27 1329.6)" font-size="20" fill="#606580" font-family="Tahoma, Tahoma">План</text><text transform="translate(1350.05 1329.6)" font-size="20" fill="#606580" font-family="Tahoma, Tahoma">Прогноз</text><circle cx="272.99" cy="443.84" r="3.01" fill="#29abe2"/></g></g></svg>
