<svg xmlns="http://www.w3.org/2000/svg" xmlns:xlink="http://www.w3.org/1999/xlink" viewBox="0 0 337.48 389.69"><defs><radialGradient id="radial-gradient" cx="168.74" cy="194.84" r="181.72" gradientUnits="userSpaceOnUse"><stop offset="0" stop-color="#004b6a"/><stop offset="1" stop-color="#002b3f"/></radialGradient></defs><title>benzole-logo</title><g id="Слой_2" data-name="Слой 2"><g id="Layer_1" data-name="Layer 1"><polygon points="0.5 97.71 0.5 291.98 168.74 389.11 336.98 291.98 336.98 97.71 168.74 0.58 0.5 97.71" stroke="#464f70" stroke-miterlimit="10" fill-rule="evenodd" fill="url(#radial-gradient)"/><path d="M266.69,213.37v-17.7l3.37-.1v6.85c2.95.21,4-.53,5.9,1.37,2.63,2.73,1.68,8.84-1.9,9.48a42.89,42.89,0,0,1-7.37.1Zm-67.52-15.8.1-2h3.37v2c4.43.11,6.64,2.32,6.74,6.74,0,4.64-2.31,6.85-6.74,6.85v2.21h-3.37v-2.11c-2.42-.31-3.47-.1-5-1.68a8,8,0,0,1-.21-10.11c1.48-1.58,2.42-1.69,5.06-1.9Zm-71.53,15.8h-3.37v-17.7l3.37-.1v6.85h4.43v-6.85h3.37v17.8h-3.37v-8.22h-4.43Zm104-17.7,11.8-.1-.11,2.74h-4.1v15l-3.38.1v-15l-4.21-.1ZM163,202.42h5.58v2.73H163v5.48h6.1v2.74h-9.48v-17.7l9.48-.1v2.74H163Zm-46.46,16.64H286.07l.11-29H116.69Zm-35.71-29a18.48,18.48,0,0,0,1.69-1.26,12.75,12.75,0,0,1,5.58-2.11c13.8-1.16,20.12,19.17.31,25.91a23.62,23.62,0,0,1-22.64-40.55C70,168.5,74,167.23,80.87,166.6V135c-14.64-.95-31.39,9.8-37.5,22.86-20.23,43,30,79.21,63.84,52,5.79-4.63,4.42-3.68,4.42-10.63,0-4.74.32-19.6-.11-22.23H81c-.43,1.9-.11,10.53-.11,13.06Zm173.07-13.27h8l.1-26.44c1.16,1.68,3.48,22.22,4.53,26.44H273c1.16-4.32,3.48-24.76,4.32-26.44l.21,26.44h8l.11-42.14H275.12c-1.37,3.27-4.11,26.44-5.38,28.76-.63-1.26-4.53-25-5.26-28.65l-10.54-.11ZM96,144c1.9,1.79,3.37,10.33,3.48,13.8,0,4.22-1.37,10.85-3.38,13.7-5-8.12-4.1-19.28-.1-27.5Zm-8,5.37c-1.89-5-.94-19.38.32-25.49,1-4.74,5.27-17.48,7.69-20.22,2.84,2.53,7.06,16.11,7.9,20.33a64.82,64.82,0,0,1,1,19.7c-.1,1.58-.84,5.05-.84,6-.74-7.06.21-10-2.21-18.64-.63-2.64-3.79-11.91-5.58-14.44a1.75,1.75,0,0,0-.32-.42c-1.9,2.21-4.74,11.17-5.79,14.75-1.8,6.43-1.69,11.69-2.22,18.43Zm8,25c2.63-2.32,6.85-11.9,8.43-16.33,5.79-17.17,4.74-36.55-3.69-52.67C99.94,103.61,97,98.24,96,97.5c-3.58,6.32-5.69,9.16-8.32,16.75-5.8,16.53-4.43,36.76,3.58,52.25,2,3.89,3.48,5.47,4.74,7.79Zm85.43,2.53h8l.1-36.87,2.42-.11.11,37h8.11V134.68H181.47Zm56.46-34.76c0-3.27,2.53-2.74,2.53,0v27.17c0,1.9-.42,2.53-2.32,1.9l-.21-1.9Zm-3.37-7.27c-5.06.74-4.74,5.37-4.74,10.32v15.38c0,9.59-1.58,16.22,6.32,16.33,14.54.21,12.43.31,12.43-25.81,0-3.69.63-11.48-1-14-1.06-1.58-2.74-2.32-5.37-2.32a59.5,59.5,0,0,0-7.59.11ZM141.65,161c-.21-2.53.74-12.22.95-15.91a21.46,21.46,0,0,1,.21-2.74c.11-2.21.21-2,.32-2.21s0-.21.1-.21c.63,1.37,1.58,18.43,1.48,21.07Zm-9,15.8h4.84c3.69,0,2.85,2.11,3.69-11.06a9.67,9.67,0,0,1,3.9,0l.73,11.06h7.8c.21-1.69-3.79-39.61-4.11-42.14H136.81c-.53,4.85-4.43,40.45-4.11,42.14Zm24.65-28.65h8c.21-1.69-.21-6.22.11-7.38a1.3,1.3,0,0,1,2.42-.1c.21.73.21,9.9-.21,10.74-.74,2-4.21,1.27-6.21,1.37v4.64c4.21.21,6.53-1.16,6.53,3.89,0,2.64.63,7.9-.64,10-2.42.11-1.89-1.37-1.89-3.69v-5.58h-8.22c0,11.48-1,14.75,8.22,14.75,9.69,0,10.64.31,10.64-12.22,0-3.06.73-7.37-2.43-8.95-.84-.43-2.31-.32-3-.74l2.74-.85c3.16-1.47,2.74-5.26,2.74-8.11,0-4.84.52-9.48-3.58-10.95-2.53-.84-11.28-.63-13.07.84-2.74,2.32-2.42,8.74-2.1,12.33Zm56.46-8.33,2,.32c.84,2.53.53,7.06.53,10.11,0,5.38.73,7.8-2.64,7.48Zm-8.22,37h8.22l-.11-14.33c4.74-.21,9.06.53,10.33-3.9.84-2.84.42-10.53.42-13.9,0-12.32-3.37-10-18.86-10Zm-88.8,0h8.11l.11-37h7.27l.1-5.16H116.9Zm85.85,31.71c2.74,0,3.27-1.37,3.27-4.22,0-2.53-.63-4-3.27-4Zm-3.37-.11v-8.11c-2.53-.21-3.37,1.58-3.37,4s.74,4.53,3.37,4.11Zm70.79,2.32c2.63.42,4,0,3.9-2.85-.11-2.52-1.37-2.95-3.79-2.63Z" fill="#fff" fill-rule="evenodd" opacity="0.7"/><text transform="translate(41.71 264.27)" opacity="0.7" font-size="38.19" fill="#fff" font-family="DINPro-Regular, DINPro Regular" letter-spacing="0em">О<tspan x="26.2" y="0" letter-spacing="0em">МСКИЙ НПЗ</tspan></text></g></g></svg>