<svg xmlns="http://www.w3.org/2000/svg" viewBox="0 0 329.08 379.99"><title>benzol-logo1</title><g id="Слой_2" data-name="Слой 2"><g id="Layer_1" data-name="Layer 1"><polygon points="0.5 95.29 0.5 284.71 164.54 379.42 328.58 284.71 328.58 95.29 164.54 0.58 0.5 95.29" fill="#fff" stroke="#606580" stroke-miterlimit="10" fill-rule="evenodd"/><path d="M260.05,208.06V190.81l3.28-.11v6.68c2.88.2,3.91-.51,5.76,1.33,2.56,2.68,1.64,8.63-1.85,9.25a41.82,41.82,0,0,1-7.19.1Zm-65.84-15.41.1-2h3.29v2c4.31.11,6.47,2.26,6.57,6.58,0,4.52-2.26,6.67-6.57,6.67v2.16h-3.29V206c-2.36-.31-3.39-.11-4.83-1.65a7.76,7.76,0,0,1-.2-9.86c1.44-1.54,2.36-1.64,4.93-1.85Zm-69.74,15.41h-3.29V190.81l3.29-.11v6.68h4.31V190.7h3.29v17.36h-3.29v-8h-4.31Zm101.37-17.25,11.51-.11-.1,2.67h-4V208l-3.29.1V193.48l-4.11-.11ZM159,197.38h5.44v2.67H159v5.34h6v2.67h-9.25V190.81l9.25-.11v2.67h-6Zm-45.3,16.23H279l.1-28.25H113.79ZM78.87,185.36a18.93,18.93,0,0,0,1.64-1.23,12.4,12.4,0,0,1,5.44-2c13.46-1.13,19.62,18.69.31,25.26A23,23,0,0,1,64.18,167.8c4.11-3.49,8-4.73,14.69-5.34V131.64c-14.28-.92-30.61,9.56-36.57,22.29-19.72,41.91,29.27,77.24,62.24,50.74,5.65-4.52,4.32-3.59,4.32-10.37,0-4.62.3-19.11-.11-21.67H79c-.41,1.84-.1,10.27-.1,12.73Zm168.75-12.94h7.81l.1-25.78c1.13,1.64,3.39,21.67,4.41,25.78h6.27c1.13-4.21,3.39-24.14,4.21-25.78l.21,25.78h7.8l.1-41.08H268.26c-1.33,3.18-4,25.78-5.23,28-.62-1.24-4.42-24.35-5.14-27.94l-10.27-.1Zm-154-32c1.84,1.75,3.28,10.07,3.38,13.46,0,4.11-1.33,10.58-3.28,13.35-4.83-7.91-4-18.79-.1-26.81Zm-7.81,5.24c-1.85-4.93-.93-18.9.31-24.85.92-4.63,5.13-17.05,7.5-19.72,2.77,2.46,6.88,15.71,7.7,19.82a63.85,63.85,0,0,1,1,19.21c-.11,1.54-.83,4.93-.83,5.85-.71-6.88.21-9.76-2.15-18.18-.62-2.57-3.7-11.61-5.45-14.07a1.31,1.31,0,0,0-.3-.41C91.81,115.42,89,124.15,88,127.64c-1.75,6.26-1.65,11.4-2.16,18ZM93.66,170c2.56-2.26,6.67-11.61,8.21-15.92,5.65-16.75,4.62-35.65-3.59-51.36-.82-1.64-3.7-6.88-4.62-7.6-3.5,6.16-5.55,8.94-8.12,16.33-5.65,16.13-4.31,35.85,3.49,50.94,2,3.81,3.39,5.35,4.63,7.61ZM177,172.42h7.81l.1-35.95,2.36-.1.11,36h7.91V131.34H177ZM232,138.53c0-3.19,2.46-2.67,2.46,0V165c0,1.84-.41,2.46-2.26,1.84L232,165Zm-3.29-7.09c-4.93.72-4.62,5.24-4.62,10.06v15c0,9.35-1.54,15.82,6.16,15.92,14.17.21,12.12.31,12.12-25.16,0-3.6.62-11.2-1-13.66-1-1.54-2.67-2.26-5.23-2.26a58.4,58.4,0,0,0-7.4.1ZM138.13,157c-.21-2.46.72-11.91.92-15.51a22.41,22.41,0,0,1,.21-2.67c.1-2.15.2-2,.31-2.15s0-.21.1-.21c.62,1.34,1.54,18,1.44,20.54Zm-8.73,15.41h4.72c3.6,0,2.78,2.05,3.6-10.78a9.35,9.35,0,0,1,3.8,0l.72,10.78h7.6c.2-1.64-3.7-38.62-4-41.08H133.4c-.51,4.72-4.31,39.44-4,41.08Zm24-27.94h7.81c.2-1.64-.21-6.06.1-7.19a1.27,1.27,0,0,1,2.36-.1c.21.72.21,9.66-.2,10.48-.72,2-4.11,1.23-6.06,1.33v4.52c4.11.21,6.37-1.13,6.37,3.8,0,2.57.61,7.71-.62,9.76-2.36.1-1.85-1.34-1.85-3.6V158h-8c0,11.2-.92,14.38,8,14.38,9.45,0,10.38.31,10.38-11.91,0-3,.71-7.19-2.37-8.73-.82-.42-2.26-.31-3-.72l2.68-.82c3.08-1.44,2.67-5.14,2.67-7.91,0-4.73.51-9.25-3.5-10.69-2.46-.82-11-.61-12.73.83-2.67,2.26-2.37,8.52-2.06,12Zm55.06-8.11,1.95.31c.82,2.46.51,6.88.51,9.86,0,5.24.72,7.6-2.57,7.29Zm-8,36h8l-.11-14c4.63-.2,8.84.52,10.07-3.8.82-2.77.41-10.27.41-13.56,0-12-3.29-9.75-18.39-9.75Zm-86.58,0h7.91l.1-36H129l.1-5H114Zm83.71,30.92c2.67,0,3.18-1.34,3.18-4.11,0-2.47-.61-3.9-3.18-3.9Zm-3.29-.11v-7.9c-2.46-.21-3.28,1.54-3.28,3.9s.71,4.41,3.28,4Zm69,2.26c2.57.41,3.91,0,3.8-2.77-.1-2.46-1.33-2.88-3.69-2.57Z" fill="#20222e" fill-rule="evenodd"/><text transform="translate(40.68 257.7)" font-size="37.23" fill="#20222e" font-family="DINPro-Regular, DINPro Regular"><tspan letter-spacing="0em">О</tspan><tspan x="25.54" y="0">МСКИЙ НПЗ</tspan></text></g></g></svg>