<svg xmlns="http://www.w3.org/2000/svg" viewBox="0 0 248.54 286.99">
    <g id="Слой_2" data-name="Слой 2"><g id="Layer_1" data-name="Layer 1"><polygon points="0.5 72.03 0.5 214.95 124.27 286.41 248.04 214.95 248.04 72.03 124.27 0.58 0.5 72.03" fill="#20222e" stroke="#606580" stroke-miterlimit="10" fill-rule="evenodd"/><path d="M180.25,152.81V142.52l2-.06v4c1.71.12,2.33-.31,3.43.8,1.53,1.59,1,5.14-1.1,5.51a25.43,25.43,0,0,1-4.29.06ZM141,143.62l.06-1.16h2v1.16c2.57.06,3.86,1.35,3.92,3.92s-1.35,4-3.92,4v1.29h-2v-1.22c-1.41-.19-2-.07-2.88-1a4.62,4.62,0,0,1-.12-5.88c.86-.92,1.41-1,2.94-1.11ZM99.4,152.81h-2V142.52l2-.06v4H102v-4h2v10.35h-2V148H99.4Zm60.45-10.29,6.86-.06-.06,1.59h-2.39v8.7l-2,.06v-8.7l-2.45-.06ZM120,146.44h3.25V148H120v3.19h3.55v1.59H118V142.52l5.51-.06v1.59H120Zm-27,9.68h98.55l.06-16.85H93ZM72.21,139.27a8.87,8.87,0,0,0,1-.73,7.6,7.6,0,0,1,3.24-1.23c8-.67,11.7,11.15.19,15.07A13.73,13.73,0,0,1,63.45,128.8c2.45-2.08,4.78-2.82,8.76-3.18V107.24c-8.52-.55-18.25,5.7-21.81,13.29-11.76,25,17.46,46.06,37.12,30.26,3.37-2.7,2.57-2.14,2.57-6.19,0-2.75.19-11.39-.06-12.92H72.27a75.88,75.88,0,0,0-.06,7.59Zm100.63-7.71h4.65l.06-15.38c.68,1,2,12.93,2.64,15.38h3.73c.68-2.51,2-14.4,2.51-15.38l.13,15.38h4.65l.06-24.5h-6.12c-.8,1.9-2.39,15.37-3.12,16.72-.37-.74-2.64-14.52-3.07-16.66l-6.12-.06ZM81,112.45c1.1,1,2,6,2,8,0,2.45-.8,6.31-2,8-2.88-4.71-2.39-11.2-.06-16Zm-4.66,3.12c-1.1-2.94-.55-11.27.19-14.82C77.11,98,79.62,90.58,81,89c1.65,1.47,4.1,9.37,4.59,11.82a37.63,37.63,0,0,1,.61,11.45c-.06.92-.49,2.94-.49,3.5-.42-4.11.13-5.82-1.28-10.85-.37-1.53-2.21-6.92-3.25-8.39a.83.83,0,0,0-.18-.24c-1.1,1.29-2.76,6.49-3.37,8.57-1,3.74-1,6.8-1.29,10.72ZM81,130.09c1.53-1.35,4-6.92,4.9-9.5A39.43,39.43,0,0,0,83.78,90,27.76,27.76,0,0,0,81,85.44c-2.08,3.67-3.31,5.33-4.84,9.74a39.94,39.94,0,0,0,2.08,30.38c1.17,2.26,2,3.18,2.76,4.53Zm49.67,1.47h4.65l.07-21.44,1.4-.06.07,21.5h4.71v-24.5H130.7Zm32.83-20.21c0-1.9,1.47-1.6,1.47,0v15.8c0,1.1-.25,1.47-1.35,1.1l-.12-1.1Zm-2-4.23c-2.94.43-2.76,3.12-2.76,6v8.94c0,5.58-.92,9.44,3.68,9.5,8.45.12,7.22.18,7.22-15,0-2.14.37-6.67-.61-8.14a3.38,3.38,0,0,0-3.12-1.35,35.69,35.69,0,0,0-4.41.06Zm-54,15.25c-.12-1.47.43-7.1.55-9.25a13.17,13.17,0,0,1,.12-1.59c.06-1.29.12-1.16.19-1.29s0-.12.06-.12c.36.8.92,10.72.85,12.25Zm-5.21,9.19h2.82c2.14,0,1.65,1.22,2.14-6.43a5.43,5.43,0,0,1,2.27,0l.43,6.43h4.53c.12-1-2.2-23-2.39-24.5h-7.41c-.31,2.82-2.57,23.52-2.39,24.5Zm14.33-16.66h4.66c.12-1-.12-3.62.06-4.29a.76.76,0,0,1,1.41-.06,36.37,36.37,0,0,1-.12,6.25c-.43,1.16-2.45.73-3.62.79v2.7c2.45.12,3.8-.68,3.8,2.26,0,1.54.37,4.6-.37,5.82-1.41.06-1.1-.79-1.1-2.14V123h-4.78c0,6.68-.55,8.58,4.78,8.58,5.63,0,6.19.18,6.19-7.11,0-1.77.42-4.28-1.41-5.2-.49-.25-1.35-.19-1.78-.43l1.59-.49c1.84-.86,1.6-3.06,1.6-4.72,0-2.82.3-5.51-2.09-6.37-1.47-.49-6.55-.37-7.59.49-1.59,1.35-1.41,5.09-1.23,7.17Zm32.83-4.84,1.17.18c.49,1.47.3,4.11.3,5.88,0,3.13.43,4.54-1.53,4.35Zm-4.77,21.5h4.77l-.06-8.33c2.76-.12,5.27.3,6-2.27.49-1.65.25-6.12.25-8.08,0-7.17-2-5.82-11-5.82Zm-51.64,0h4.72l.06-21.5h4.23l.06-3h-9ZM143,150c1.59,0,1.9-.79,1.9-2.45,0-1.47-.37-2.32-1.9-2.32Zm-2-.06v-4.71c-1.47-.13-2,.91-2,2.32s.43,2.64,2,2.39Zm41.16,1.35c1.53.24,2.33,0,2.26-1.65-.06-1.47-.79-1.72-2.2-1.54Z" fill="#fff" fill-rule="evenodd" opacity="0.7"/><text transform="translate(49.44 182.41)" opacity="0.7" font-size="22.2" fill="#fff" font-family="DINPro-Regular, DINPro Regular"><tspan letter-spacing="0em">О</tspan><tspan x="15.23" y="0">МСКИЙ НПЗ</tspan></text></g></g></svg>
