<svg xmlns="http://www.w3.org/2000/svg" xmlns:xlink="http://www.w3.org/1999/xlink" viewBox="0 0 1921 965.69"><defs><linearGradient id="linear-gradient" x1="-116.66" y1="-206.96" x2="-91.85" y2="-206.96" gradientTransform="translate(674.94 674.8)" gradientUnits="userSpaceOnUse"><stop offset="0" stop-color="#11121a"/><stop offset="1" stop-color="#20222e" stop-opacity="0"/></linearGradient><linearGradient id="linear-gradient-2" x1="-3698.02" y1="-1694.17" x2="-3673.21" y2="-1694.17" gradientTransform="translate(4646.58 1791.61)" xlink:href="#linear-gradient"/><linearGradient id="linear-gradient-3" x1="-1899.19" y1="3499.05" x2="-1874.38" y2="3499.05" gradientTransform="translate(2847.72 -2575.77)" xlink:href="#linear-gradient"/><linearGradient id="linear-gradient-4" x1="-572" y1="2444.08" x2="-547.19" y2="2444.08" gradientTransform="translate(1799.2 -1985.38)" xlink:href="#linear-gradient"/><linearGradient id="linear-gradient-5" x1="-2961.46" y1="-1386.45" x2="-2936.65" y2="-1386.45" gradientTransform="translate(4188.67 1948.47)" xlink:href="#linear-gradient"/><linearGradient id="linear-gradient-6" x1="-3388.64" y1="-1012.81" x2="-3363.83" y2="-1012.81" gradientTransform="translate(3655.84 1419.64)" xlink:href="#linear-gradient"/><linearGradient id="linear-gradient-7" x1="-1280.7" y1="2817.72" x2="-1255.89" y2="2817.72" gradientTransform="translate(1547.9 -2512.93)" xlink:href="#linear-gradient"/><linearGradient id="linear-gradient-8" x1="-3079.53" y1="-1012.81" x2="-3054.72" y2="-1012.81" gradientTransform="translate(3346.73 1728.74)" xlink:href="#linear-gradient"/><linearGradient id="linear-gradient-9" x1="-1590.09" y1="2817.72" x2="-1565.28" y2="2817.72" gradientTransform="translate(1857.29 -2203.55)" xlink:href="#linear-gradient"/></defs>
    <g id="Слой_2" data-name="Слой 2"><g id="Layer_1" data-name="Layer 1"><polygon points="1916.78 0 0 0 0 85.03 1916.78 85.03 1916.78 0" fill="#272a38" opacity="0.4"/><polygon points="1916.78 935.68 0 935.68 0 965.68 1916.78 965.68 1916.78 935.68" fill="#272a38" opacity="0.4"/><polygon points="553.6 317.19 0 317.19 0 394.42 553.6 394.42 553.6 317.19" fill="#272a38" opacity="0.4"/><polygon points="553.6 626.58 0 626.58 0 703.81 553.6 703.81 553.6 626.58" fill="#272a38" opacity="0.4"/><polygon points="1920.93 471.1 558.28 471.1 558.28 548.33 1920.93 548.33 1920.93 471.1" fill="#272a38" opacity="0.4"/><rect x="558.28" width="24.81" height="935.69" opacity="0.5" fill="url(#linear-gradient)"/><rect x="948.56" y="-862.59" width="24.81" height="1920.07" transform="translate(1058.41 -863.53) rotate(90)" opacity="0.5" fill="url(#linear-gradient-2)"/><rect x="948.53" y="-36.72" width="24.81" height="1920" transform="translate(37.65 1884.21) rotate(-90)" opacity="0.5" fill="url(#linear-gradient-3)"/><text transform="translate(129.17 54.65)" font-size="24" fill="#fff" font-family="Tahoma, Tahoma" style="isolation:isolate">Количество дней без пожара</text><text transform="translate(824.89 54.65)" font-size="24" fill="#fff" font-family="Tahoma, Tahoma"><tspan xml:space="preserve">Пирамида происшествий  в соответствии на август (август 2017/август 2018)</tspan></text><rect x="1227.2" y="-222.63" width="24.81" height="1362.66" transform="translate(780.91 1698.3) rotate(-90)" opacity="0.5" fill="url(#linear-gradient-4)"/><rect x="1227.2" y="-119.31" width="24.81" height="1362.66" transform="translate(1801.63 -677.58) rotate(90)" opacity="0.5" fill="url(#linear-gradient-5)"/><text transform="translate(770.97 519.62)" font-size="24" fill="#fff" font-family="Tahoma, Tahoma"><tspan xml:space="preserve">Пирамида происшествий  в соответствии на август (7 месяцев 2017/7 месяцев 2018)</tspan></text><text transform="translate(277.23 219.48)" font-size="60" fill="#fff" font-family="Tahoma, Tahoma">318</text><rect x="267.2" y="128.15" width="24.81" height="557.34" transform="translate(686.43 127.22) rotate(90)" opacity="0.5" fill="url(#linear-gradient-6)"/><rect x="267.2" y="26.12" width="24.81" height="557.34" transform="translate(-25.18 584.39) rotate(-90)" opacity="0.5" fill="url(#linear-gradient-7)"/><text transform="translate(131.39 364.42)" font-size="24" fill="#fff" font-family="Tahoma, Tahoma" style="isolation:isolate">Количество дней без аварий</text><rect x="267.2" y="437.26" width="24.81" height="557.34" transform="translate(995.54 436.32) rotate(90)" opacity="0.5" fill="url(#linear-gradient-8)"/><rect x="267.2" y="335.5" width="24.81" height="557.34" transform="translate(-334.57 893.78) rotate(-90)" opacity="0.5" fill="url(#linear-gradient-9)"/><text transform="translate(59.52 672.74)" font-size="24" fill="#fff" font-family="Tahoma, Tahoma" style="isolation:isolate">Количество дней без несчастных случаев</text><path d="M203.46,167.31a5.19,5.19,0,0,0-3.8-1.61h-5.4v-4a6.76,6.76,0,0,0-6.75-6.75h-2.7a6.78,6.78,0,0,0-6.75,6.75v4h-16.2v-4a6.76,6.76,0,0,0-6.75-6.75h-2.7a6.78,6.78,0,0,0-6.75,6.75v4h-5.4a5.48,5.48,0,0,0-5.4,5.4v54a5.48,5.48,0,0,0,5.4,5.4h59.4a5.48,5.48,0,0,0,5.4-5.4v-54a5.16,5.16,0,0,0-1.6-3.79Zm-20-5.66a1.34,1.34,0,0,1,.38-1,1.33,1.33,0,0,1,1-.38h2.7a1.3,1.3,0,0,1,1.35,1.35V173.8a1.3,1.3,0,0,1-1.35,1.35h-2.7a1.29,1.29,0,0,1-1-.38,1.31,1.31,0,0,1-.38-1V161.65Zm-32.4,0a1.3,1.3,0,0,1,1.35-1.35h2.7a1.31,1.31,0,0,1,1,.38,1.34,1.34,0,0,1,.38,1V173.8a1.31,1.31,0,0,1-.38,1,1.27,1.27,0,0,1-1,.38h-2.7a1.3,1.3,0,0,1-1.35-1.35V161.65Zm48.6,63.46h-59.4V181.9h59.4Z" fill="#606580" fill-rule="evenodd" opacity="0.5"/><text transform="translate(277.23 528.18)" font-size="60" fill="#fff" font-family="Tahoma, Tahoma">693</text><path d="M203.46,476a5.18,5.18,0,0,0-3.8-1.6h-5.4v-4.05a6.78,6.78,0,0,0-6.75-6.76h-2.7a6.79,6.79,0,0,0-6.75,6.76v4.05h-16.2v-4.05a6.78,6.78,0,0,0-6.75-6.76h-2.7a6.79,6.79,0,0,0-6.75,6.76v4.05h-5.4a5.46,5.46,0,0,0-5.4,5.4v54a5.46,5.46,0,0,0,5.4,5.4h59.4a5.46,5.46,0,0,0,5.4-5.4v-54a5.18,5.18,0,0,0-1.6-3.8Zm-20-5.65a1.35,1.35,0,0,1,.38-1,1.33,1.33,0,0,1,1-.38h2.7a1.3,1.3,0,0,1,1.35,1.36v12.15a1.3,1.3,0,0,1-1.35,1.34h-2.7a1.29,1.29,0,0,1-1-.38,1.3,1.3,0,0,1-.38-1V470.36Zm-32.4,0a1.3,1.3,0,0,1,1.35-1.36h2.7a1.31,1.31,0,0,1,1,.38,1.35,1.35,0,0,1,.38,1v12.15a1.3,1.3,0,0,1-.38,1,1.27,1.27,0,0,1-1,.38h-2.7a1.3,1.3,0,0,1-1.35-1.34V470.36Zm48.6,63.45h-59.4v-43.2h59.4Z" fill="#606580" fill-rule="evenodd" opacity="0.5"/><text transform="translate(277.23 838.88)" font-size="60" fill="#fff" font-family="Tahoma, Tahoma">146</text><path d="M203.46,786.71a5.18,5.18,0,0,0-3.8-1.6h-5.4v-4.05a6.76,6.76,0,0,0-6.75-6.75h-2.7a6.78,6.78,0,0,0-6.75,6.75v4.05h-16.2v-4.05a6.76,6.76,0,0,0-6.75-6.75h-2.7a6.78,6.78,0,0,0-6.75,6.75v4.05h-5.4a5.46,5.46,0,0,0-5.4,5.4v54a5.46,5.46,0,0,0,5.4,5.4h59.4a5.46,5.46,0,0,0,5.4-5.4v-54a5.18,5.18,0,0,0-1.6-3.8Zm-20-5.65a1.31,1.31,0,0,1,.38-1,1.29,1.29,0,0,1,1-.38h2.7a1.3,1.3,0,0,1,1.35,1.35v12.15a1.3,1.3,0,0,1-1.35,1.35h-2.7a1.33,1.33,0,0,1-1-.38,1.34,1.34,0,0,1-.38-1V781.06Zm-32.4,0a1.3,1.3,0,0,1,1.35-1.35h2.7a1.27,1.27,0,0,1,1,.38,1.31,1.31,0,0,1,.38,1v12.15a1.34,1.34,0,0,1-.38,1,1.31,1.31,0,0,1-1,.38h-2.7a1.3,1.3,0,0,1-1.35-1.35V781.06Zm48.6,63.45h-59.4v-43.2h59.4Z" fill="#606580" fill-rule="evenodd" opacity="0.5"/><text transform="translate(1498.63 641.28)" font-size="30" fill="#fff" font-family="Tahoma, Tahoma" style="isolation:isolate">Крупные</text><text transform="translate(1498.63 748.85)" font-size="30" fill="#fff" font-family="Tahoma, Tahoma" style="isolation:isolate">Значительные</text><text transform="translate(1498.63 861.39)" font-size="30" fill="#fff" font-family="Tahoma, Tahoma" style="isolation:isolate">Незначительные</text><text transform="translate(961.65 660.28)" font-size="30" fill="#fff" font-family="Tahoma, Tahoma" style="isolation:isolate">0 / 1</text><text transform="translate(940.58 751.85)" font-size="30" fill="#fff" font-family="Tahoma, Tahoma" style="isolation:isolate">29 / 28 </text><text transform="translate(912.51 868.39)" font-size="30" fill="#fff" font-family="Tahoma, Tahoma" style="isolation:isolate">1195 / 1229</text><line x1="1474.07" y1="634.62" x2="1089.12" y2="634.62" fill="none" stroke="#44e6ea" stroke-linecap="round" stroke-miterlimit="2.61"/><circle cx="1473.88" cy="634.62" r="3.76" fill="#44e6ea"/><circle cx="1089.31" cy="634.62" r="3.76" fill="#44e6ea"/><line x1="1474.1" y1="742.18" x2="1172.41" y2="742.18" fill="none" stroke="#229fc6" stroke-miterlimit="2.61"/><circle cx="1473.91" cy="742.18" r="3.76" fill="#229fc6"/><circle cx="1172.6" cy="742.18" r="3.76" fill="#229fc6"/><line x1="1473.61" y1="854.73" x2="1261.11" y2="854.73" fill="none" stroke="#405bcc" stroke-miterlimit="2.61"/><circle cx="1473.42" cy="854.73" r="3.76" fill="#405bcc"/><circle cx="1261.3" cy="854.73" r="3.76" fill="#405bcc"/><path d="M1224.35,902.89H760.55c-9,0-14.19-9.25-8.93-15.86l64.3-80.76a11.4,11.4,0,0,1,8.92-4.14h336.48a11.36,11.36,0,0,1,9,4.22l63,80.76C1238.51,893.73,1233.29,902.89,1224.35,902.89Z" fill="none" stroke="#405bcc" stroke-miterlimit="2.61" stroke-width="4"/><path d="M1137.29,790.34H848.94c-8.94,0-14.16-9.16-9-15.78l63-80.76a11.39,11.39,0,0,1,9-4.22h162.29a11.36,11.36,0,0,1,9,4.22l63,80.76C1151.45,781.18,1146.23,790.34,1137.29,790.34Z" fill="none" stroke="#229fc6" stroke-miterlimit="2.61" stroke-width="4"/><path d="M1049.66,679.07H936.32c-8.9,0-14.12-9.07-9.05-15.7L984,590a11.69,11.69,0,0,1,18,0l56.64,73.31C1063.82,669.91,1058.6,679.07,1049.66,679.07Z" fill="none" stroke="#44e6ea" stroke-miterlimit="2.61" stroke-width="4"/><text transform="translate(1498.63 177.52)" font-size="30" fill="#fff" font-family="Tahoma, Tahoma" style="isolation:isolate">Крупные</text><text transform="translate(1498.63 285.08)" font-size="30" fill="#fff" font-family="Tahoma, Tahoma" style="isolation:isolate">Значительные</text><text transform="translate(1498.63 397.63)" font-size="30" fill="#fff" font-family="Tahoma, Tahoma" style="isolation:isolate">Незначительные</text><text transform="translate(961.63 196.52)" font-size="30" fill="#fff" font-family="Tahoma, Tahoma" style="isolation:isolate">0 / 0</text><text transform="translate(956.94 288.08)" font-size="30" fill="#fff" font-family="Tahoma, Tahoma" style="isolation:isolate"><tspan xml:space="preserve">5  / 4</tspan></text><text transform="translate(924.18 404.63)" font-size="30" fill="#fff" font-family="Tahoma, Tahoma" style="isolation:isolate"><tspan xml:space="preserve">196  / 131</tspan></text><path d="M1224.35,441.34H760.55c-9,0-14.19-9.24-8.93-15.86l64.3-80.76a11.4,11.4,0,0,1,8.92-4.14h336.48a11.36,11.36,0,0,1,9,4.22l63,80.76C1238.51,432.18,1233.29,441.34,1224.35,441.34Z" fill="none" stroke="#405bcc" stroke-miterlimit="2.61" stroke-width="4"/><path d="M1137.29,328.79H848.94c-8.94,0-14.16-9.16-9-15.78l63-80.76a11.42,11.42,0,0,1,9-4.22h162.29a11.39,11.39,0,0,1,9,4.22l63,80.76C1151.45,319.63,1146.23,328.79,1137.29,328.79Z" fill="none" stroke="#229fc6" stroke-miterlimit="2.61" stroke-width="4"/><path d="M1049.66,217.52H936.32c-8.9,0-14.12-9.07-9.05-15.7L984,128.44a11.68,11.68,0,0,1,18,0l56.64,73.3C1063.82,208.36,1058.6,217.52,1049.66,217.52Z" fill="none" stroke="#44e6ea" stroke-miterlimit="2.61" stroke-width="4"/><line x1="1470.47" y1="170.85" x2="1089.12" y2="170.85" fill="none" stroke="#44e6ea" stroke-linecap="round" stroke-miterlimit="2.61"/><circle cx="1470.29" cy="170.85" r="3.76" fill="#44e6ea"/><circle cx="1089.31" cy="170.85" r="3.76" fill="#44e6ea"/><line x1="1470.47" y1="278.41" x2="1172.41" y2="278.41" fill="none" stroke="#229fc6" stroke-miterlimit="2.61"/><path d="M1470.29,274.65a3.76,3.76,0,1,1-3.76,3.76A3.77,3.77,0,0,1,1470.29,274.65Z" fill="#229fc6"/><circle cx="1172.6" cy="278.41" r="3.76" fill="#229fc6"/><line x1="1470.47" y1="390.96" x2="1261.11" y2="390.96" fill="none" stroke="#405bcc" stroke-miterlimit="2.61"/><circle cx="1470.29" cy="390.96" r="3.76" fill="#405bcc"/><circle cx="1261.3" cy="390.96" r="3.76" fill="#405bcc"/></g></g></svg>
