<svg xmlns="http://www.w3.org/2000/svg" xmlns:xlink="http://www.w3.org/1999/xlink" viewBox="0 0 3839.22 970"><defs><linearGradient id="linear-gradient" x1="2003.92" y1="1289.21" x2="2028.73" y2="1289.21" gradientTransform="translate(-1511.81 -804.46)" gradientUnits="userSpaceOnUse"><stop offset="0" stop-color="#11121a"/><stop offset="1" stop-color="#20222e" stop-opacity="0"/></linearGradient><linearGradient id="linear-gradient-2" x1="2542.34" y1="-453.2" x2="2567.15" y2="-453.2" gradientTransform="translate(-635.14 1272.33)" xlink:href="#linear-gradient"/><linearGradient id="linear-gradient-3" x1="3071.69" y1="-1163.03" x2="3095.69" y2="-1163.03" gradientTransform="translate(-1400 2050.9)" xlink:href="#linear-gradient"/><linearGradient id="linear-gradient-4" x1="4029.21" y1="-1162.53" x2="4053.21" y2="-1162.53" gradientTransform="translate(-1400 2050.9)" xlink:href="#linear-gradient"/></defs>
    <g id="Слой_2" data-name="Слой 2"><g id="Layer_2" data-name="Layer 2"><g id="Ellipse_536" data-name="Ellipse 536"><circle cx="1733.52" cy="445.72" r="64.07" fill="#303545" stroke="#606580" stroke-miterlimit="10"/><circle cx="1733.52" cy="445.72" r="60.06" fill="#303545" stroke="#606580" stroke-miterlimit="10"/></g><path d="M1645.11,442.06l7.2,3.66-7.2,3.66Zm.62,4.36H1517.07V445h128.66Z" fill="#606580"/><path d="M1945,442.06l7.21,3.66-7.21,3.66Zm.63,4.36H1816.94V445h128.67Z" fill="#606580"/><path d="M2541.62,259.87l7.21,3.66-7.21,3.66Zm.62,4.36H2413.58v-1.4h128.66Z" fill="#606580"/><path d="M2541.62,442.39l7.21,3.66-7.21,3.66Zm.62,4.36H2413.58v-1.4h128.66Z" fill="#606580"/><path d="M2410.29,271.91l3.67-7.21,3.66,7.21Zm4.37-.63V446.05h-1.4V271.28Z" fill="#606580"/><path d="M2417.62,621.08l-3.66,7.2-3.67-7.2Zm-4.36.62V446.94h1.4V621.7Z" fill="#0288d1"/><path d="M2541.62,624.25l7.21,3.66-7.21,3.67Zm.62,4.36H2413.58v-1.4h128.66Z" fill="#0288d1"/><path d="M2406.37,442.76l7.21,3.66-7.21,3.66Zm.63,4.36H2278.34v-1.4H2407Z" fill="#0288d1"/><path id="Path_1771" data-name="Path 1771" d="M1754.21,440.23l-.21-.41-.2-.39-.41-.21-.21-.4-.2-.41-.4-.2-.2-.4-.41-.21-.21-.4-.41-.41-.2-.2-.41-.2-.2-.41-.41-.21-.2-.4-.41-.2-.41-.2-.41-.41-.21-.2-.41-.21-.41-.4-.2-.21-.4-.2-.41-.2-.41-.21-.41-.2-.41-.19-.41-.21-.4-.21-.21-.2-.41-.21-.41-.2V426.4h2.25l.41-.2h.62l.2-.2.4-.21h.2l.21-.2.41-.2.2-.2h.21l.2-.21.41-.19.2-.41.21-.2.2-.2.21-.2.2-.21v-.4l.2-.21.2-.2.21-.41v-.2l.21-.4v-.62l.2-.41v-5.93l-.2-.39v-.62l-.21-.41v-.2l-.21-.21-.2-.4-.2-.21v-.2l-.2-.41-.21-.2-.2-.2-.21-.2-.2-.2-.41-.21-.2-.2-.21-.2-.2-.2-.41-.2h-.21l-.2-.2-.4-.21h-.61l-.21-.2h-1l-.4-.2h-24.53l-.41.2h-1l-.21.2h-.6l-.41.21-.2.2h-.21l-.41.2-.2.2-.21.2-.41.2-.21.21-.2.2-.2.2-.2.2-.21.2-.2.41-.21.2-.2.21v.4l-.21.21-.21.2V414l-.2.41v6.74l.2.4v.61l.21.21.21.41v.2l.2.2.21.41.2.21.21.2.2.2.2.2.2.4.21.2.41.21h.21l.2.2.41.2.21.2h.2l.41.21.2.19h.61l.41.21h2.25v5.11l-.8.41-1,.41-.81.61-.8.4-.61.62-.8.61-.8.41-.62.62-.8.61-.62.8-.62.62-.61.61-.62.8-.62.81-.61.61-.41.81-.62.8-.41.8-.4.8-.41.8-.41,1-.41.8-.41.8-.2,1-.21.8-.21,1-.2.81-.2,1-.2,1v1.84l-.21,1,.21,1.43v1.22l.2,1.44.2,1.22.41,1.44.21,1.22.62,1.23.41,1.22.4,1.22.62,1,.62,1.22.8,1,.8,1,.62,1,1,1,.8.8.8,1,1,.8,1,.8,1,.61,1,.8,1.23.62,1.22.62,1,.4,1.22.62,1.23.4,1.43.21,1.23.4,1.22.2,1.44.2h1.22l1.44.2,1.43-.2h1.23l1.43-.2,1.22-.2,1.44-.4,1.22-.21,1.23-.4,1.22-.62,1.23-.4,1-.62,1.23-.62,1-.8,1-.61,1-.8,1-.8.8-1,1-.8.8-1,.8-1,.61-1,.8-1,.62-1.22.62-1,.41-1.22.61-1.22.41-1.23.21-1.22.41-1.44.21-1.22.2-1.44v-1.22l.2-1.43V455l-.2-.4v-2l-.2-.62v-1l-.21-.41v-.62l-.2-.41-.21-.61v-.4l-.21-.62-.2-.41v-.4l-.21-.62-.2-.41-.21-.62-.2-.4-.2-.41-.2-.41-.21-.61-.21-.41-.41-.41-.2-.4-.21-.62-.2-.41-.41-.4-.2-.41-.41-.41ZM1731.11,455v-1.22l-.2-.21v-.61l-.2-.2v-.2l-.21-.21-.2-.4v-.2l-.21-.2-.2-.2-.21-.21-.2-.2-.21-.21-.2-.2-.21-.2h-.21l-.2-.2-.2-.2h-.41l-.2-.2h-.21l-.2-.2h-.41l-.2-.21h-2.24l-.41.21h-.24l-.2.2h-.41l-.2.2h-.21l-.2.2-.41.2h-.2l-.2.2-.21.2-.21.21-.2.2v.21l-.21.2-.2.2-.21.2-.2.4v.21l-.21.2v.2l-.2.41v.4l-.2.41v1.6l.2.21v.61h-4.7v.8l.2.8v.8l.21,1,.2.8.21.62.41.8.21.8.4.81.41.61.41.8.41.62.62.61.4.62.62.62.62.62.62.61.61.62.62.4.62.41.8.4.61.41.8.4.8.41.62.2.8.41.8.2.8.21h.8l1,.2h3.47l.8-.2h.8l.8-.21.8-.2.8-.41.8-.2.62-.41.8-.4.8-.41.62-.4.61-.41.62-.4.62-.62.61-.61.62-.62.62-.62.41-.62.61-.61.41-.62.41-.8.41-.61.41-.81.2-.8.41-.8.21-.62.2-.8.21-1,.2-.8v-1.6h-19v-.2l.2-.2v-1.22Zm2.25-14.31v.2h0v.2h0v.2h0v.2h0l-.2.21h0v.2h-.2v.2h-.2v.2h-.22v.21h-.41v.2h-1.42v-.2h-.41v-.21h-.21v-.2h-.2v-.2h-.21v-.2h0l-.2-.21h0v-.2h0V441h0v-.2h0v-.2h0v-.21h0v-.2h0V440h0v-.21h.2v-.19h0l.21-.2h0l.2-.21h0l.21-.2h.2v-.2h.61l.21-.21h.2l.21.21h.61v.2h.21l.21.2h0l.2.21h0l.2.2h0v.19h.2V440h0v.2h0v.2h0Zm8,8v.61h-.21v.62l-.2.2h0v.21l-.2.2v.2h-.21v.2l-.21.2h0l-.2.2h0l-.21.2h-.21l-.2.2h0l-.21.21h-.4v.2h-2.25l-.2-.2h-.21l-.2-.21h-.2v-.2h-.21l-.2-.2h0l-.21-.2h0l-.2-.2v-.2h-.21v-.2l-.2-.2v-.21h-.21v-.61l-.21-.2h0v-1.43h.21v-.61l.21-.2h0l.2-.21v-.2l.21-.2h0l.2-.2h0l.21-.21v-.19h.2l.21-.2h.2l.2-.21h.21l.2-.2h1V445l.2.21h1v.2h.41l.21.21h.2l.21.2h.21V446l.2.21h0l.21.2h0l.2.2v.2l.2.21h0v.2l.2.2v.4h0l.21.21v.61Zm-8.81,27.58h-2l-1-.2-1-.2-1-.2-1-.2-.8-.41-1-.4-.8-.4-1-.41-.8-.41-.8-.61-.8-.62-.8-.62-.62-.61-.8-.62-.62-.8-.62-.62-.61-.8-.62-.8-.41-.8-.61-.8-.41-1-.41-.8-.41-1-.41-.8-.21-1-.2-1-.2-1v-1l-.21-1v-2.65l.21-.8v-.8l.2-.62.2-.8.21-.81.2-.61.21-.81.2-.8.41-.61.21-.81.41-.61.4-.62.41-.62.41-.8.41-.62.62-.61.41-.62.61-.4.41-.62.62-.62.61-.41.62-.61.62-.41.61-.4.8-.41.62-.4.62-.41.8-.2.8-.41.62-.2.2-.19h.2l.21-.21h.2v-.2h.21l.2-.21h0v-.2h.21v-.2h.21v-.2h0v-.2h.2v-.41h0v-.2h.21v-.21h0V434h0V422.79h0v-.4h0l-.21-.2h0v-.42h0l-.2-.2h0v-.19h-.21v-.21h0l-.21-.2h-.2v-.2h-.21l-.2-.21h-.41l-.2-.2h-5.15v-.2h-.2l-.21-.2h0v-.2h0v-.2h-.2v-.2h0V416.5h0l.2-.2h0v-.21h0l.21-.2h0l.2-.2h24.12l.2.2h.21v.2h0v.21h.2v.2h0v2.86h0v.2h0v.2h-.2v-.17h0v.2h-.41v.2h-5.11l-.21.2h-.41l-.2.21h-.21v.2h-.2l-.21.2h0l-.2.2h0v.2h-.2v.2h0v.21l-.21.2h0v.2h0v.41h-.2v11.21l.2.2h0v.2h0v.21h0v.41h.21v.2h0v.2h.2v.2h0l.2.2h0l.21.2h0l.2.21h.21v.2h.2l.21.21h.2l.21.2.62.19.8.41.8.2.61.41.8.4.62.41.62.4.61.41.62.61.62.41.61.62.62.41.41.61.62.61.4.62.41.62.41.62.41.61.41.62.41.8.21.62.4.8.2.62.41.8.21.8.2.62v.8l.21.81.21.8v4.5l-.21,1-.21,1-.2,1-.21,1-.41.8-.4,1-.41.8-.41,1-.41.8-.62.8-.61.8-.62.8-.62.61-.61.81-.8.61-.62.61-.8.62-.8.62-.8.62-.8.4-.81.41-1,.41-.8.4-1,.41-1,.2-1,.21-1,.2-1,.2h-2.15Z" fill="#3ba83b"/><path id="Path_1786" data-name="Path 1786" d="M1018.27,84.71V47.06h0V46.8h0v-.26H1018v-.25h-.25V46h-.51l-.26-.25h-6.4V46h-.77v.26h-.25v.25h-.26v.26h0v.26h0V84.71h-4.09V85H1005v.25h-.26v.26h0v.26h0v3.07h0v.26h0v.25h0l.26.26h0l.26.26h.51v.25h47.9v-.25h.77v-.26h.25v-.26h0v-.25h0v-.26h.25V85.74h-.25v-.26h0v-.26h0l-.25-.25h0l-.26-.26h-3.84V74.21h-5.12v-19h-4.37v19h-6.66V47.05h0v-.26h0v-.25h-.24v-.26h-.26V46h-.51l-.25-.26h-6.42V46h-.77v.25h-.27v.26h-.25v.25h0v.26h0V74.21h-4.61v10.5h-2.3Zm9.72-22h-1.28V52.18H1028Zm5.89,22.54V76.77h1.54v8.45Zm3.08,0V76.77h1.53v8.45Zm3.07,0V76.77h1.54v8.45Zm3.07,0V76.77h1.54v8.45Zm3.07,0V76.77h1.54v8.45ZM1012.1,62.68h-1.28V52.18h1.28Z" fill="#606580"/><g id="ОНПЗ"><text transform="translate(1070.18 90.09)" font-size="48" fill="#606580" font-family="Tahoma, Tahoma" style="isolation:isolate">ОНПЗ</text></g><rect x="492.11" width="24.81" height="969.5" opacity="0.5" fill="url(#linear-gradient)"/><rect x="1907.2" y="-1100.47" width="24.81" height="3839.22" transform="translate(2738.74 -1100.47) rotate(90)" opacity="0.5" fill="url(#linear-gradient-2)"/><g id="РВС_5_ОНБ_" data-name="РВС 5 ОНБ "><text transform="translate(59.03 930)" font-size="42" fill="#fff" font-family="Tahoma, Tahoma" style="isolation:isolate">Р-32 ОНПЗ</text></g><g id="Продукт:" style="isolation:isolate"><text transform="translate(606.8 861.72)" font-size="30" fill="#606580" font-family="Tahoma, Tahoma" style="isolation:isolate">Продукт:</text></g><g id="Масса_на_начало:" data-name="Масса на начало:" style="isolation:isolate"><text transform="translate(1906.95 861.72)" font-size="30" fill="#606580" font-family="Tahoma, Tahoma" style="isolation:isolate">Выбыло из р-ра:</text></g><g id="Масса_на_конец:" data-name="Масса на конец:" style="isolation:isolate"><text transform="translate(2206.77 861.72)" font-size="30" fill="#606580" font-family="Tahoma, Tahoma" style="isolation:isolate">Отгружено по жд:</text></g><g id="Допустимый_небаланс:" data-name="Допустимый небаланс:" style="isolation:isolate"><text transform="translate(2985.61 861.72)" font-size="30" fill="#606580" font-family="Tahoma, Tahoma" style="isolation:isolate">Допустимый небаланс:</text></g><g id="Небаланс:" style="isolation:isolate"><text transform="translate(2785.12 861.72)" font-size="30" fill="#606580" font-family="Tahoma, Tahoma" style="isolation:isolate">Небаланс:</text></g><g id="Бензин_неэтилированный_Регуляр-92_АИ-92-К5_" data-name="Бензин неэтилированный Регуляр-92 АИ-92-К5 "><text transform="translate(607.18 930)" font-size="42" fill="#fff" font-family="Tahoma, Tahoma" style="isolation:isolate">Бензин неэтилированный Регуляр-92 (АИ-92-К5)</text></g><g id="Резервуар"><text transform="translate(58.66 868.75)" font-size="30" fill="#606580" font-family="Tahoma, Tahoma" style="isolation:isolate">Резервуар</text></g><g id="_316565_кг" data-name=" 316565 кг"><text transform="translate(2206.77 930)" font-size="42" fill="#fff" font-family="Tahoma, Tahoma" style="isolation:isolate">985 026 кг</text></g><g id="_302901_кг" data-name=" 302901 кг"><text transform="translate(1906.95 930)" font-size="42" fill="#fff" font-family="Tahoma, Tahoma" style="isolation:isolate">987 400 кг</text></g><g id="_-7812_кг" data-name=" -7812 кг"><text transform="translate(2785.5 930)" font-size="42" fill="#fbb03b" font-family="Tahoma, Tahoma" style="isolation:isolate">- 2 374</text></g><g id="_3381_кг" data-name=" 3381 кг"><text transform="translate(3025.98 930)" font-size="42" fill="#fff" font-family="Tahoma, Tahoma" style="isolation:isolate">2 468 кг</text></g><rect x="1671.69" y="806.23" width="24" height="163.27" opacity="0.5" fill="url(#linear-gradient-3)"/><rect x="2629.21" y="806.73" width="24" height="163.27" opacity="0.5" fill="url(#linear-gradient-4)"/><rect x="1093.03" y="373.46" width="406.9" height="144.52" rx="8" ry="8" fill="#303545" stroke="#606580" stroke-miterlimit="10"/><rect x="1971.54" y="373.46" width="279.96" height="144.52" rx="8" ry="8" fill="#0288d1" opacity="0.25"/><rect x="2568.91" y="191.27" width="485.9" height="144.52" rx="8" ry="8" fill="#303545" stroke="#606580" stroke-miterlimit="10"/><rect x="2568.91" y="373.46" width="485.9" height="144.52" rx="8" ry="8" fill="#303545" stroke="#606580" stroke-miterlimit="10"/><rect x="2568.91" y="554.95" width="485.9" height="144.52" rx="8" ry="8" fill="none" stroke="#0288d1" stroke-miterlimit="10"/><rect x="2568.91" y="555.65" width="485.9" height="144.52" rx="8" ry="8" fill="#0288d1" opacity="0.25"/><rect x="1971.54" y="373.46" width="279.96" height="144.52" rx="8" ry="8" fill="none" stroke="#0288d1" stroke-miterlimit="10"/><rect x="1006.16" y="127.77" width="2131.83" height="634.02" rx="8" ry="8" fill="none" stroke="#606580" stroke-miterlimit="10"/><path d="M3037.74,594.44l-10.38-21a1.43,1.43,0,0,0-2.62,0l-10.43,21a1.54,1.54,0,0,0,0,1.59,1.4,1.4,0,0,0,1.29.78h20.81a1.42,1.42,0,0,0,1.29-.78,1.58,1.58,0,0,0,0-1.59Zm-13.19-12.08a1.61,1.61,0,0,1,.44-1.16,1.46,1.46,0,0,1,2.11,0,1.57,1.57,0,0,1,.44,1.16v4.84a1.59,1.59,0,0,1-.44,1.13,1.4,1.4,0,0,1-2.11,0,1.64,1.64,0,0,1-.44-1.13v-4.84Zm.44,8.48a1.42,1.42,0,0,1,2.11,0,1.62,1.62,0,0,1,.44,1.14,1.58,1.58,0,0,1-.44,1.13,1.4,1.4,0,0,1-2.11,0,1.62,1.62,0,0,1-.44-1.13A1.66,1.66,0,0,1,3025,590.84Z" fill="#0288d1" fill-rule="evenodd"/><path d="M2237.79,407.46l-10.39-20.95a1.43,1.43,0,0,0-2.62,0l-10.43,20.95a1.56,1.56,0,0,0,0,1.59,1.42,1.42,0,0,0,1.29.78h20.82a1.4,1.4,0,0,0,1.28-.78,1.59,1.59,0,0,0,0-1.59Zm-13.2-12.08a1.58,1.58,0,0,1,.45-1.16,1.45,1.45,0,0,1,2.1,0,1.58,1.58,0,0,1,.45,1.16v4.83a1.57,1.57,0,0,1-.45,1.13,1.37,1.37,0,0,1-2.1,0,1.57,1.57,0,0,1-.45-1.13v-4.83Zm.45,8.48a1.39,1.39,0,0,1,2.1,0,1.66,1.66,0,0,1,0,2.27,1.39,1.39,0,0,1-2.1,0,1.66,1.66,0,0,1,0-2.27Z" fill="#0288d1" fill-rule="evenodd"/><g id="Group_412" data-name="Group 412"><path id="Path_82" data-name="Path 82" d="M1152.63,437.31c.26.39,6.45,9.57,6.45,13.21a6.92,6.92,0,1,1-13.83,0c0-3.64,6.2-12.82,6.46-13.21a.54.54,0,0,1,.44-.23h0A.57.57,0,0,1,1152.63,437.31Zm.09,17.36a.56.56,0,0,0-.56-.55,3.6,3.6,0,0,1-3.59-3.6.56.56,0,0,0-1.11,0,4.69,4.69,0,0,0,4.7,4.7h0a.55.55,0,0,0,.55-.55Z" fill="#fff"/><path id="Path_83" data-name="Path 83" d="M1157.82,462.5a16.75,16.75,0,0,1-17.83-3.44l1.39-.82a1.08,1.08,0,0,0,.66-1.37,1.11,1.11,0,0,0-.69-.68l-6.74-3.8c-1-.56-1.8-.08-1.82,1.06l-.16,7.92c0,1.14.74,1.61,1.71,1l1.91-1.13a20.9,20.9,0,0,0,21.61,5.68C1162.09,465.81,1160,461.61,1157.82,462.5Zm-27.12-18.07v-.2a6.44,6.44,0,0,1,.26-1.57,21.07,21.07,0,0,1,16.4-16.4v4.34a16.84,16.84,0,0,0-12.47,14c-.14,2-4.11,3-4.19-.18Zm18.52-10.19,6.85-4.11a1.15,1.15,0,0,0,.67-1.49,1.14,1.14,0,0,0-.67-.67l-6.91-4.18c-1-.61-1.8-.16-1.79,1l0,8.42c0,1.16.81,1.62,1.81,1Zm23.69,20.19-3.59-2.13,2.18,1.26a21,21,0,0,0-6.22-22.63c-2.15-1.93-5.3.18-3.28,2.75a16.74,16.74,0,0,1,5.77,17.7l-1.85-1.11c-1-.57-1.74-.09-1.72,1.06l.12,7.9c0,1.15.82,1.64,1.8,1.08l6.77-3.85a1.08,1.08,0,0,0,.68-1.36,1,1,0,0,0-.66-.68Z" fill="#fff"/></g><g id="АИ-92-К5" style="isolation:isolate"><text transform="translate(1202.19 465.54)" font-size="46" fill="#fff" font-family="Tahoma, Tahoma" style="isolation:isolate">АИ-92-К5</text></g><path id="Path_1769" data-name="Path 1769" d="M2068.63,463.22V431.48h-1.92v1.91H2064v-1.91h0l-.54-.27-.55-.28V429h0l.55.27.54.28v-2.19h-.54l-.55-.28-1.64-.54-2.19-.55-2.19-.55h-.55l-1.92-.27-1.91-.27-4.38-.55h-2.19l-2.19-.27h-7.66l-3.56.27-3.55.27-3.56.55-3.29.55-3,.54-1.37.28-1.1.27-.82.27-.82.28v2.19h0l.82-.55,1.1-.27v1.91h0l-1.1.55-.82.27v31.74h-4.12v4.13h59.93v-4.13h-2.18Zm-43.78,0v-32h0l4.12-.54v32.56Zm24.08-34.76v-1.91h0l3,.27,2.74.28v2.18h0l-2.74-.54-3-.28Zm-2.19-.27h-3l-2.73-.27V426h2.73l3,.28Zm-7.94-.27h-2.73l-3,.27v-1.92h0l3-.27h2.73Zm-7.93.54h0l-3,.28-3,.27V427.1h0l3-.28,3-.27Zm33.1,24.91h2.74v3.83H2064Zm2.74-2.19H2064v-3.83h2.74Zm-2.74-5.75v-4.12h2.74v4.12Zm2.74-9.85v3.84H2064v-3.84Zm-6-7.11v1.92h0l-1.92-.55-1.91-.27v-1.92h0l1.91.28,1.92.54Zm-41.58-.27h0l1.65-.28,2.19-.54v2.19h0l-2.19.27-1.65.27V428.2Zm0,7.38h0V432.3h0l1.92-.55v31.46h-1.92ZM2064,463.22v-3.83h2.73v3.83Z" fill="#fff"/><g id="Р-32"><text transform="translate(2093.19 463.65)" font-size="46" fill="#fff" font-family="Tahoma, Tahoma" style="isolation:isolate">Р-32</text></g><path id="Path_1761" data-name="Path 1761" d="M2646.4,254v-2.64h-10.18V254h0l-.79.4-.66.39-.8.4-.66.52-.79.54-.53.65-.66.53-.53.66h-4.62V275h4.63l.4.53.53.53.66.53.39.39.67.53.66.4.66.39.53.27.79.4.66.27.8.26.66.13.79.27h.79l.8.13h1.45l.93-.13h.66l.79-.27.8-.13.66-.26.66-.27.79-.4.53-.27.66-.39.66-.4.67-.53.39-.39.66-.53.53-.53.4-.53h4.63V258.07h-4.65l-.53-.66-.53-.53-.66-.65-.66-.54-.79-.52-.8-.4-.66-.39-.79-.4Zm-40.51,6.63h12.55v13.94h-12.53Zm57.15,0h12.55v13.94H2663Zm-3.17-19h-37.15v-3.44h37.16v3.44ZM2621,276.72h3.44V256.35H2621Zm37.15-20.37v20.37h3.45V256.35Zm-10-10.05h-13.6v3.44h13.62Z" fill="#fff"/><path id="Path_1761-2" data-name="Path 1761" d="M2646.4,440.62V438h-10.18v2.65h0l-.79.39-.66.4-.8.39-.66.53-.79.53-.53.66-.66.53-.53.66h-4.62v16.93h4.63l.4.53.53.53.66.52.39.4.67.53.66.4.66.39.53.27.79.39.66.27.8.27.66.13.79.27h.79l.8.13h1.45l.93-.13h.66l.79-.27.8-.13.66-.27.66-.27.79-.39.53-.27.66-.39.66-.4.67-.53.39-.4.66-.52.53-.53.4-.53h4.63V444.71h-4.65l-.53-.66-.53-.53-.66-.66-.66-.53-.79-.53-.8-.39-.66-.4-.79-.39Zm-40.51,6.63h12.55v13.94h-12.53Zm57.15,0h12.55v13.94H2663Zm-3.17-19h-37.15v-3.44h37.16v3.44ZM2621,463.35h3.44V443H2621ZM2658.15,443v20.36h3.45V443Zm-10-10.05h-13.6v3.44h13.62Z" fill="#fff"/><g id="PLA92GPN"><text transform="translate(2716.64 277.03)" font-size="46" fill="#fff" font-family="Tahoma, Tahoma" style="isolation:isolate">P<tspan x="25.36" y="0" letter-spacing="-0.02em">L</tspan><tspan x="47.33" y="0">A92GPN</tspan></text></g><g id="PLbenz8-10"><text transform="translate(2716.64 465.54)" font-size="46" fill="#fff" font-family="Tahoma, Tahoma" style="isolation:isolate">PLbenz8-10</text></g><g id="ЖД"><text transform="translate(2717.06 644.95)" font-size="46" fill="#fff" font-family="Tahoma, Tahoma" style="isolation:isolate">ЖД</text></g><path id="Path_2330" data-name="Path 2330" d="M2621.88,642.82a3.18,3.18,0,0,1,6.16-1.6c0,.11.05.21.07.31a3.18,3.18,0,0,1-6.23,1.29Zm-13.11,0a3.18,3.18,0,1,1,3.76,2.48A3.18,3.18,0,0,1,2608.77,642.82Zm58.56-.32a3.19,3.19,0,1,1,3.53,2.79,3.18,3.18,0,0,1-3.53-2.79Zm-13.12,0a3.2,3.2,0,1,1,3.55,2.79,3.21,3.21,0,0,1-3.55-2.79Zm-22.77-6.12c-2.58,0-2.26,0-2.69-.65.54-.32-.75-.32,1.3-.54h22.66c1.18.22.44-.21,1,.54-.32.75,1,.75-2.8.65Zm-26.65-20.2a2.65,2.65,0,0,1,2.8-1.83h67.25a2.88,2.88,0,0,1,2.79,1.83Zm24.37-3.87c-5.15,0-18.15-.22-22.67,0-5.79.32-5.15,13.21-4.61,17.19,1,8,5.8,4,7.73,7.42a12.55,12.55,0,0,0-2.25,1.93,5.75,5.75,0,0,0,1.28,8,5.65,5.65,0,0,0,7.86-1.47l.1-.14a4.94,4.94,0,0,0,.53-1.3l.43-1.28c0-.11.11-.11.11-.22h1.39a22.9,22.9,0,0,1,.87,2.26,5.64,5.64,0,0,0,1.17,1.61,6,6,0,0,0,4.09,1.62c4.84-.11,5-4.19,5.8-5.47l20.74.1c.75,2.15.43,2.37,1.93,3.87a5.51,5.51,0,0,0,9.34-4l1.83.11a11.82,11.82,0,0,0,1.08,3,8.1,8.1,0,0,0,2,1.83,5.67,5.67,0,0,0,8.16-5.91c-.43-2.58-1.71-3.22-3.22-4.41,2.36-2.79,2.91-.86,5.27-2.36a7.42,7.42,0,0,0,2.57-5c.54-4.63,1.5-17.09-5.37-17.09H2652.9c-.32-2.68-1.17-4-3.86-4.4a111.09,111.09,0,0,0-15.8.11,4.13,4.13,0,0,0-2.48,1.61c-1.29,1.72-.11,2.15-1.4,2.69Z" fill="#fff"/><path d="M24,40H49a0,0,0,0,1,0,0V177.93a0,0,0,0,1,0,0H24a4,4,0,0,1-4-4V44A4,4,0,0,1,24,40Z" fill="#009fe2"/><rect x="29.65" y="40" width="449.69" height="137.93" rx="4" ry="4" fill="#303545"/><text transform="translate(59.07 151.91)" font-size="30" fill="#868fad" font-family="Tahoma, Tahoma"><tspan opacity="0.5">987 400 кг</tspan><tspan x="144.4" y="0" xml:space="preserve"> / 985 026 кг</tspan></text><rect x="316.43" y="53.13" width="121.31" height="49.26" rx="4" ry="4" fill="#0288d1"/><text transform="translate(339.87 88.58)" font-size="31.47" fill="#fff" font-family="Tahoma, Tahoma">-2 374</text><text transform="translate(59.07 88.9)" font-size="31.47" fill="#fff" font-family="Tahoma, Tahoma">АИ-92-К5</text><path d="M24,186.76H49a0,0,0,0,1,0,0V324.69a0,0,0,0,1,0,0H24a4,4,0,0,1-4-4V190.76A4,4,0,0,1,24,186.76Z" fill="#009fe2" opacity="0.3"/><rect x="29.65" y="186.76" width="449.69" height="137.93" rx="4" ry="4" fill="#292e3a"/><text transform="translate(59.07 235.66)" font-size="31.47" fill="#868686" font-family="Tahoma, Tahoma">ДТ-Л-К5</text><path d="M24,336.89H49a0,0,0,0,1,0,0V474.82a0,0,0,0,1,0,0H24a4,4,0,0,1-4-4V340.89A4,4,0,0,1,24,336.89Z" fill="#009fe2" opacity="0.3"/><rect x="29.65" y="336.89" width="449.69" height="137.93" rx="4" ry="4" fill="#292e3a"/><text transform="translate(59.07 385.8)" font-size="31.47" fill="#868686" font-family="Tahoma, Tahoma">ТС-1</text><rect x="316.43" y="202.22" width="121.31" height="49.26" rx="4" ry="4" fill="#0288d1" opacity="0.4"/><text transform="translate(339.87 237.67)" font-size="31.47" fill="#fff" font-family="Tahoma, Tahoma">+ 542</text><rect x="316.43" y="352.36" width="121.31" height="49.26" rx="4" ry="4" fill="#343949"/><text transform="translate(339.87 387.81)" font-size="31.47" fill="#fff" font-family="Tahoma, Tahoma">+ 159</text><g id="_3" data-name=" 3"><text transform="translate(2987.97 925.43)" font-size="42" fill="#fff" font-family="Tahoma, Tahoma" style="isolation:isolate">+</text></g><line id="Line_1216" data-name="Line 1216" x1="2989.55" y1="930.57" x2="3016.27" y2="930.57" fill="none" stroke="#fff" stroke-miterlimit="10" stroke-width="2"/><text transform="translate(59.07 295.69)" font-size="30" fill="#868fad" font-family="Tahoma, Tahoma"><tspan opacity="0.5">639 571 кг</tspan><tspan x="144.4" y="0" xml:space="preserve"> / 640 113 кг</tspan></text><text transform="translate(59.07 443.44)" font-size="30" fill="#868fad" font-family="Tahoma, Tahoma"><tspan opacity="0.5">454 020 кг</tspan><tspan x="144.4" y="0" xml:space="preserve"> / 454 179 кг</tspan></text></g></g></svg>
