<svg xmlns="http://www.w3.org/2000/svg" viewBox="0 0 59.13 29.1">
  <title>logo</title>
  <g id="Слой_2" data-name="Слой 2">
    <g id="реакция">
      <path d="M54.48,27.69V23.46l.8,0v1.64c.71.05,1-.12,1.41.33.63.65.4,2.11-.45,2.26a10.28,10.28,0,0,1-1.76,0ZM38.34,23.91l0-.48h.8v.48a1.46,1.46,0,0,1,1.61,1.61,1.44,1.44,0,0,1-1.61,1.64v.53h-.8v-.5c-.58-.08-.83,0-1.19-.41a1.89,1.89,0,0,1,0-2.41c.35-.38.58-.41,1.21-.46ZM21.25,27.69h-.81V23.46l.81,0v1.64h1.06V23.43h.8v4.26h-.8v-2H21.25Zm24.84-4.23,2.82,0,0,.66h-1v3.57l-.81,0V24.11l-1,0ZM29.71,25.07H31v.66H29.71V27h1.46v.66H28.9V23.46l2.27,0v.66H29.71Zm-11.1,4h40.5l0-6.92H18.63Zm-8.54-6.92a3.68,3.68,0,0,0,.41-.31,3,3,0,0,1,1.33-.5c3.3-.28,4.81,4.58.08,6.19a5.64,5.64,0,0,1-5.42-9.69,5.76,5.76,0,0,1,3.6-1.31V9a10.09,10.09,0,0,0-9,5.46C-3.72,24.69,8.29,33.35,16.37,26.86c1.38-1.11,1.05-.88,1.05-2.54,0-1.14.08-4.69,0-5.32H10.1c-.1.46,0,2.52,0,3.13ZM51.43,19h1.91l0-6.31c.28.4.83,5.31,1.08,6.31H56c.27-1,.83-5.91,1-6.31l0,6.31H59L59,8.89H56.49c-.33.78-1,6.31-1.28,6.87-.16-.3-1.09-6-1.26-6.85l-2.52,0ZM13.7,11.1c.45.43.8,2.47.83,3.3a7,7,0,0,1-.81,3.27,7.12,7.12,0,0,1,0-6.57Zm-1.92,1.28c-.45-1.2-.22-4.63.08-6.09A17.94,17.94,0,0,1,13.7,1.46c.68.6,1.68,3.85,1.89,4.86A15.83,15.83,0,0,1,15.84,11c0,.37-.2,1.2-.2,1.43A19.05,19.05,0,0,0,15.11,8a17,17,0,0,0-1.34-3.44.29.29,0,0,0-.07-.1A14.94,14.94,0,0,0,12.31,8a22.06,22.06,0,0,0-.53,4.4Zm1.92,6a14.11,14.11,0,0,0,2-3.9,16.21,16.21,0,0,0-.88-12.59A12,12,0,0,0,13.7,0a19.64,19.64,0,0,0-2,4,16.41,16.41,0,0,0,.85,12.49c.48.93.84,1.31,1.14,1.86Zm20.41.6H36l0-8.81.58,0,0,8.83h1.94V8.89H34.11Zm13.49-8.3c0-.78.61-.66.61,0v6.49c0,.46-.1.61-.56.46l0-.46Zm-.8-1.74c-1.21.18-1.13,1.28-1.13,2.47v3.67c0,2.29-.38,3.88,1.51,3.9,3.47.05,3,.08,3-6.16,0-.88.15-2.75-.26-3.35a1.38,1.38,0,0,0-1.28-.55,15.49,15.49,0,0,0-1.81,0ZM24.6,15.18c-.05-.61.17-2.92.22-3.8a6.57,6.57,0,0,1,.05-.66c0-.53.05-.48.08-.53s0,0,0,0a42.32,42.32,0,0,1,.36,5ZM22.46,19h1.16c.88,0,.67.51.88-2.64a2.42,2.42,0,0,1,.93,0L25.6,19h1.87c.05-.4-.91-9.46-1-10.06h-3c-.13,1.15-1.06,9.66-1,10.06Zm5.89-6.84h1.91c0-.41-.05-1.49,0-1.76a.3.3,0,0,1,.57,0,13,13,0,0,1-.05,2.57c-.17.48-1,.3-1.48.33v1.1c1,0,1.56-.27,1.56.93a6.33,6.33,0,0,1-.15,2.4c-.58,0-.45-.33-.45-.89V15.43h-2c0,2.74-.22,3.52,2,3.52S32.83,19,32.83,16c0-.73.17-1.76-.58-2.14-.2-.1-.55-.07-.73-.17l.65-.2c.76-.36.66-1.26.66-1.94,0-1.16.12-2.27-.86-2.62a5.92,5.92,0,0,0-3.12.2c-.65.56-.58,2.09-.5,2.95Zm13.49-2,.48.07a9.54,9.54,0,0,1,.12,2.42c0,1.28.18,1.86-.63,1.79Zm-2,8.83h2l0-3.42c1.14,0,2.17.13,2.47-.93a18.1,18.1,0,0,0,.1-3.32c0-2.95-.8-2.39-4.5-2.39ZM18.66,19h1.93l0-8.83h1.74l0-1.23h-3.7Zm20.51,7.58c.66,0,.78-.33.78-1s-.15-.95-.78-.95Zm-.8,0V24.57c-.61-.05-.81.38-.81.95s.18,1.09.81,1Zm16.91.55c.63.1,1,0,.93-.68s-.32-.7-.9-.63Z" style="fill: #fff;fill-rule: evenodd"/>
    </g>
  </g>
</svg>
