<svg xmlns="http://www.w3.org/2000/svg" xmlns:xlink="http://www.w3.org/1999/xlink" viewBox="0 0 545.87 664.39"><defs><clipPath id="clip-path"><rect x="48.56" y="177.97" width="8.9" height="35.92" fill="none"/></clipPath><linearGradient id="Безымянный_градиент_39" x1="-6723.58" y1="943.82" x2="-6723.24" y2="943.82" gradientTransform="matrix(-27.06, -0.25, -0.25, 27.06, -181646.54, -27024.76)" gradientUnits="userSpaceOnUse"><stop offset="0"/><stop offset="1" stop-color="#939394"/></linearGradient><clipPath id="clip-path-2"><rect x="48.78" y="348.57" width="10.85" height="79.57" fill="none"/></clipPath><linearGradient id="Безымянный_градиент_39-2" x1="-6723.72" y1="950.93" x2="-6723.32" y2="950.93" gradientTransform="matrix(-0.01, -27.06, -27.06, 0.01, 25744.14, -181564.02)" xlink:href="#Безымянный_градиент_39"/><linearGradient id="Безымянный_градиент_10" x1="-6705.29" y1="855.33" x2="-6704.86" y2="855.33" gradientTransform="matrix(0, -47.25, -47.25, 0, 40691.28, -316208.9)" gradientUnits="userSpaceOnUse"><stop offset="0"/><stop offset="1" stop-color="#fff"/></linearGradient><clipPath id="clip-path-3"><rect x="9.93" y="595.76" width="534.05" height="20.11" fill="none"/></clipPath><linearGradient id="Безымянный_градиент_9" x1="-6680.59" y1="934.75" x2="-6680.17" y2="934.75" gradientTransform="matrix(-0.01, 47.25, 47.25, 0.01, -43956.6, 316244.44)" gradientUnits="userSpaceOnUse"><stop offset="0" stop-color="#575756"/><stop offset="1" stop-color="#fff"/></linearGradient><clipPath id="clip-path-4"><rect x="402.57" y="-15.52" width="10.85" height="48.7" fill="none"/></clipPath><linearGradient id="Безымянный_градиент_39-3" x1="-6699.5" y1="852.37" x2="-6699.09" y2="852.37" gradientTransform="matrix(-27.06, 0.25, 0.25, 27.06, -181088.02, -21381.53)" xlink:href="#Безымянный_градиент_39"/><clipPath id="clip-path-5"><rect x="402.57" y="26.47" width="10.85" height="48.7" fill="none"/></clipPath><linearGradient id="Безымянный_градиент_39-4" x1="-6699.49" y1="853.92" x2="-6699.07" y2="853.92" gradientTransform="matrix(-27.06, 0.25, 0.25, 27.06, -181088.02, -21381.53)" xlink:href="#Безымянный_градиент_39"/><clipPath id="clip-path-6"><rect x="402.57" y="69.5" width="10.85" height="48.7" fill="none"/></clipPath><linearGradient id="Безымянный_градиент_39-5" x1="-6699.47" y1="855.51" x2="-6699.06" y2="855.51" gradientTransform="matrix(-27.06, 0.25, 0.25, 27.06, -181088.02, -21381.53)" xlink:href="#Безымянный_градиент_39"/><clipPath id="clip-path-7"><rect x="402.57" y="113.42" width="10.85" height="48.7" fill="none"/></clipPath><linearGradient id="Безымянный_градиент_39-6" x1="-6699.46" y1="857.14" x2="-6699.05" y2="857.14" gradientTransform="matrix(-27.06, 0.25, 0.25, 27.06, -181088.02, -21381.53)" xlink:href="#Безымянный_градиент_39"/><clipPath id="clip-path-8"><rect x="48.78" y="408.79" width="7.05" height="57.57" fill="none"/></clipPath><linearGradient id="Безымянный_градиент_39-7" x1="-6723.6" y1="952.75" x2="-6723.34" y2="952.75" xlink:href="#Безымянный_градиент_39"/><clipPath id="clip-path-9"><rect x="48.78" y="220.19" width="7.05" height="57.57" fill="none"/></clipPath><linearGradient id="Безымянный_градиент_39-8" x1="-6723.53" y1="945.78" x2="-6723.27" y2="945.78" xlink:href="#Безымянный_градиент_39"/><clipPath id="clip-path-10"><rect x="48.78" y="281.84" width="7.05" height="57.57" fill="none"/></clipPath><linearGradient id="Безымянный_градиент_39-9" x1="-6723.56" y1="948.06" x2="-6723.29" y2="948.06" xlink:href="#Безымянный_градиент_39"/><clipPath id="clip-path-11"><rect x="48.78" y="469.34" width="7.05" height="57.57" fill="none"/></clipPath><linearGradient id="Безымянный_градиент_39-10" x1="-6723.62" y1="954.99" x2="-6723.36" y2="954.99" xlink:href="#Безымянный_градиент_39"/><clipPath id="clip-path-12"><rect x="48.78" y="540.25" width="10.85" height="79.57" fill="none"/></clipPath><linearGradient id="Безымянный_градиент_39-11" x1="-6723.79" y1="958.02" x2="-6723.39" y2="958.02" gradientTransform="matrix(-0.01, -27.06, -27.06, 0.01, 25935.66, -181374.18)" xlink:href="#Безымянный_градиент_39"/><clipPath id="clip-path-13"><rect x="535.02" y="540.25" width="10.85" height="79.57" fill="none"/></clipPath><linearGradient id="Безымянный_градиент_39-12" x1="-6694.19" y1="831.79" x2="-6693.78" y2="831.79" gradientTransform="matrix(27.06, 0.01, 0.01, -27.06, 181682.01, 23132.49)" xlink:href="#Безымянный_градиент_39"/><clipPath id="clip-path-14"><rect x="48.78" y="606.82" width="9.9" height="57.57" fill="none"/></clipPath><linearGradient id="Безымянный_градиент_39-13" x1="-6723.77" y1="960.07" x2="-6723.4" y2="960.07" xlink:href="#Безымянный_градиент_39"/><clipPath id="clip-path-15"><rect x="534.24" y="606.82" width="9.9" height="57.57" fill="none"/></clipPath><linearGradient id="Безымянный_градиент_39-14" x1="-6694.23" y1="829.73" x2="-6693.86" y2="829.73" gradientTransform="matrix(27.06, -0.25, -0.25, -27.06, 181887.61, 21414.71)" xlink:href="#Безымянный_градиент_39"/><clipPath id="clip-path-16"><rect x="404.8" y="177.97" width="138.6" height="35.92" fill="#0288d1"/></clipPath><clipPath id="clip-path-17"><rect x="48.56" y="177.97" width="356.24" height="35.92" fill="#0288d1"/></clipPath><mask id="mask" x="47.97" y="177.93" width="10.07" height="36.02" maskUnits="userSpaceOnUse"><rect x="48.56" y="177.97" width="8.9" height="35.92"/><g style="isolation:isolate"><g clip-path="url(#clip-path)"><polygon points="57.46 213.94 47.97 213.89 48.56 177.93 58.05 177.98 57.46 213.94" fill="url(#Безымянный_градиент_39)"/></g></g></mask><clipPath id="clip-path-18"><rect x="48.56" y="177.97" width="8.9" height="35.92" fill="none"/></clipPath><clipPath id="clip-path-19"><rect x="48.78" y="348.57" width="495.36" height="54.21" fill="none"/></clipPath><mask id="mask-2" x="48.07" y="348.47" width="12.28" height="79.78" maskUnits="userSpaceOnUse"><rect x="48.78" y="348.57" width="10.85" height="79.57"/><g style="isolation:isolate"><g clip-path="url(#clip-path-2)"><rect x="14.37" y="382.57" width="79.67" height="11.57" transform="translate(-334.64 438.88) rotate(-89.46)" fill="url(#Безымянный_градиент_39-2)"/></g></g></mask><clipPath id="clip-path-20"><rect x="48.78" y="348.57" width="10.85" height="54.21" fill="none"/></clipPath><clipPath id="clip-path-21"><rect x="48.78" y="408.79" width="495.36" height="57.57" fill="none"/></clipPath><mask id="mask-3" x="48.32" y="408.71" width="7.98" height="57.72" maskUnits="userSpaceOnUse"><rect x="48.78" y="408.79" width="7.05" height="57.57"/><g style="isolation:isolate"><g clip-path="url(#clip-path-8)"><polygon points="55.84 466.43 48.32 466.36 48.78 408.71 56.3 408.79 55.84 466.43" fill="url(#Безымянный_градиент_39-7)"/></g></g></mask><clipPath id="clip-path-22"><rect x="48.78" y="408.79" width="7.05" height="57.57" fill="none"/></clipPath><clipPath id="clip-path-23"><rect x="48.78" y="220.19" width="495.36" height="57.57" fill="none"/></clipPath><mask id="mask-4" x="48.32" y="220.11" width="7.98" height="57.72" maskUnits="userSpaceOnUse"><rect x="48.78" y="220.19" width="7.05" height="57.57"/><g style="isolation:isolate"><g clip-path="url(#clip-path-9)"><polygon points="55.84 277.83 48.32 277.75 48.78 220.11 56.3 220.19 55.84 277.83" fill="url(#Безымянный_градиент_39-8)"/></g></g></mask><clipPath id="clip-path-24"><rect x="48.78" y="220.19" width="7.05" height="57.57" fill="none"/></clipPath><clipPath id="clip-path-25"><rect x="48.78" y="281.84" width="495.36" height="57.57" fill="none"/></clipPath><mask id="mask-5" x="48.32" y="281.76" width="7.98" height="57.72" maskUnits="userSpaceOnUse"><rect x="48.78" y="281.84" width="7.05" height="57.57"/><g style="isolation:isolate"><g clip-path="url(#clip-path-10)"><polygon points="55.84 339.48 48.32 339.4 48.78 281.76 56.3 281.84 55.84 339.48" fill="url(#Безымянный_градиент_39-9)"/></g></g></mask><clipPath id="clip-path-26"><rect x="48.78" y="281.84" width="7.05" height="57.57" fill="none"/></clipPath><clipPath id="clip-path-27"><rect x="48.78" y="469.34" width="495.36" height="57.57" fill="none"/></clipPath><mask id="mask-6" x="48.32" y="469.27" width="7.98" height="57.72" maskUnits="userSpaceOnUse"><rect x="48.78" y="469.34" width="7.05" height="57.57"/><g style="isolation:isolate"><g clip-path="url(#clip-path-11)"><polygon points="55.84 526.99 48.32 526.91 48.78 469.27 56.3 469.35 55.84 526.99" fill="url(#Безымянный_градиент_39-10)"/></g></g></mask><clipPath id="clip-path-28"><rect x="48.78" y="469.34" width="7.05" height="57.57" fill="none"/></clipPath><clipPath id="clip-path-29"><rect x="48.78" y="540.25" width="495.32" height="54.21" fill="none"/></clipPath><mask id="mask-7" x="48.07" y="540.14" width="12.28" height="79.78" maskUnits="userSpaceOnUse"><rect x="48.78" y="540.25" width="10.85" height="79.57"/><g style="isolation:isolate"><g clip-path="url(#clip-path-12)"><rect x="14.37" y="574.25" width="79.67" height="11.57" transform="translate(-526.31 628.74) rotate(-89.46)" fill="url(#Безымянный_градиент_39-11)"/></g></g></mask><clipPath id="clip-path-30"><rect x="48.78" y="540.25" width="10.85" height="54.21" fill="none"/></clipPath><mask id="mask-8" x="534.3" y="540.14" width="12.28" height="79.78" maskUnits="userSpaceOnUse"><rect x="535.02" y="540.25" width="10.85" height="79.57"/><g style="isolation:isolate"><g clip-path="url(#clip-path-13)"><rect x="534.66" y="540.2" width="11.57" height="79.67" transform="matrix(1, -0.01, 0.01, 1, -5.47, 5.15)" fill="url(#Безымянный_градиент_39-12)"/></g></g></mask><clipPath id="clip-path-31"><rect x="535.02" y="540.25" width="9.08" height="54.21" fill="none"/></clipPath><clipPath id="clip-path-32"><rect x="48.78" y="606.82" width="494.72" height="57.57" fill="none"/></clipPath><mask id="mask-9" x="48.13" y="606.74" width="11.21" height="57.72" maskUnits="userSpaceOnUse"><rect x="48.78" y="606.82" width="9.9" height="57.57"/><g style="isolation:isolate"><g clip-path="url(#clip-path-14)"><polygon points="58.68 664.46 48.13 664.38 48.78 606.74 59.34 606.82 58.68 664.46" fill="url(#Безымянный_градиент_39-13)"/></g></g></mask><clipPath id="clip-path-33"><rect x="48.78" y="606.82" width="9.9" height="57.57" fill="none"/></clipPath><mask id="mask-10" x="533.59" y="606.74" width="11.21" height="57.72" maskUnits="userSpaceOnUse"><rect x="534.24" y="606.82" width="9.9" height="57.57"/><g style="isolation:isolate"><g clip-path="url(#clip-path-15)"><polygon points="533.59 606.82 544.14 606.74 544.8 664.38 534.24 664.46 533.59 606.82" fill="url(#Безымянный_градиент_39-14)"/></g></g></mask><clipPath id="clip-path-34"><rect x="534.24" y="606.82" width="9.9" height="57.57" fill="none"/></clipPath><mask id="mask-11" x="9.93" y="595.76" width="534.05" height="20.11" maskUnits="userSpaceOnUse"><rect x="9.93" y="595.76" width="534.05" height="20.11"/><g style="isolation:isolate"><rect x="9.93" y="595.76" width="534.05" height="20.11" fill="url(#Безымянный_градиент_10)"/></g></mask><clipPath id="clip-path-35"><rect x="9.93" y="595.76" width="534.05" height="20.11" fill="none"/></clipPath><clipPath id="clip-path-36"><rect x="9.93" y="595.76" width="534.05" height="20.11" fill="none"/></clipPath><mask id="mask-12" x="9.93" y="595.68" width="534.06" height="20.28" maskUnits="userSpaceOnUse"><rect x="9.93" y="595.76" width="534.05" height="20.11"/><g style="isolation:isolate"><g clip-path="url(#clip-path-3)"><rect x="9.93" y="595.72" width="534.05" height="20.2" fill="url(#Безымянный_градиент_9)"/></g></g></mask><linearGradient id="Безымянный_градиент_8" x1="-6680.59" y1="934.75" x2="-6680.17" y2="934.75" gradientTransform="matrix(-0.01, 47.25, 47.25, 0.01, -43956.6, 316244.44)" gradientUnits="userSpaceOnUse"><stop offset="0" stop-color="#11121a"/><stop offset="1" stop-color="#20222e"/></linearGradient><mask id="mask-13" x="401.86" y="-15.59" width="12.28" height="48.83" maskUnits="userSpaceOnUse"><rect x="402.57" y="-15.52" width="10.85" height="48.7"/><g style="isolation:isolate"><g clip-path="url(#clip-path-4)"><polygon points="414.14 33.17 402.57 33.24 401.86 -15.52 413.42 -15.59 414.14 33.17" fill="url(#Безымянный_градиент_39-3)"/></g></g></mask><clipPath id="clip-path-39"><rect x="404.34" width="9.08" height="33.18" fill="none"/></clipPath><mask id="mask-14" x="401.86" y="26.41" width="12.28" height="48.83" maskUnits="userSpaceOnUse"><rect x="402.57" y="26.47" width="10.85" height="48.7"/><g style="isolation:isolate"><g clip-path="url(#clip-path-5)"><polygon points="414.14 75.17 402.57 75.24 401.86 26.48 413.42 26.41 414.14 75.17" fill="url(#Безымянный_градиент_39-4)"/></g></g></mask><clipPath id="clip-path-40"><rect x="404.34" y="42" width="9.08" height="33.18" fill="none"/></clipPath><mask id="mask-15" x="401.86" y="69.43" width="12.28" height="48.83" maskUnits="userSpaceOnUse"><rect x="402.57" y="69.5" width="10.85" height="48.7"/><g style="isolation:isolate"><g clip-path="url(#clip-path-6)"><polygon points="414.14 118.19 402.57 118.26 401.86 69.5 413.42 69.43 414.14 118.19" fill="url(#Безымянный_градиент_39-5)"/></g></g></mask><clipPath id="clip-path-41"><rect x="404.34" y="85.02" width="9.08" height="33.18" fill="none"/></clipPath><mask id="mask-16" x="401.86" y="113.35" width="12.28" height="48.83" maskUnits="userSpaceOnUse"><rect x="402.57" y="113.42" width="10.85" height="48.7"/><g style="isolation:isolate"><g clip-path="url(#clip-path-7)"><polygon points="414.14 162.11 402.57 162.18 401.86 113.42 413.42 113.35 414.14 162.11" fill="url(#Безымянный_градиент_39-6)"/></g></g></mask><clipPath id="clip-path-42"><rect x="404.34" y="128.94" width="9.08" height="33.18" fill="none"/></clipPath></defs><title>neftecontrol_2</title><g id="Слой_2" data-name="Слой 2"><g id="Layer_1" data-name="Layer 1"><g opacity="0.16"><rect x="404.8" y="177.97" width="138.6" height="35.92" fill="#0288d1"/><g clip-path="url(#clip-path-16)"><path d="M385.9,178H540.22c1.75,0,3.18.65,3.18,1.45V213.9H385.9Z" fill="#0288d1" fill-rule="evenodd"/></g></g><g opacity="0.16"><rect x="48.56" y="177.97" width="356.24" height="35.92" fill="#0288d1"/><g clip-path="url(#clip-path-17)"><path d="M0,178H396.64c4.48,0,8.15.65,8.15,1.45V213.9H0Z" fill="#0288d1" fill-rule="evenodd"/></g></g><path d="M48.56,177.86h-33c-3.08,0-5.6,1.57-5.6,3.49v32.52H48.56Z" fill="#0288d1" fill-rule="evenodd" opacity="0.5"/><g mask="url(#mask)"><g clip-path="url(#clip-path-18)"><path d="M48.56,178h8.17c.4,0,.73.19.73.41v35.31c0,.11-.17.21-.37.21H48.56Z" fill="#1f212e" fill-rule="evenodd"/></g></g><text transform="translate(67 203.06)" font-size="15.73" fill="#fff" font-family="Tahoma, Tahoma" letter-spacing="0em">Причины</text><path d="M48.78,348.31h-33c-3.08,0-5.6,3.49-5.6,7.75v46.67H48.78Z" fill="#272a38" fill-rule="evenodd"/><g opacity="0.3"><path d="M48.78,348.31h-33c-3.08,0-5.6,3.49-5.6,7.75v46.67H48.78Z" fill="#2fade4" fill-rule="evenodd"/></g><g clip-path="url(#clip-path-19)"><rect x="48.78" y="348.57" width="495.36" height="54.21" fill="#272a38"/><rect x="48.78" y="348.57" width="495.36" height="54.21" fill="#2fade4" opacity="0.15"/><rect x="48.78" y="348.57" width="495.36" height="54.21" fill="#2fade4" opacity="0.15"/></g><g mask="url(#mask-2)"><g clip-path="url(#clip-path-20)"><path d="M48.78,348.57h10a.9.9,0,0,1,.88.91v52.83a.46.46,0,0,1-.45.47H48.78Z" fill="#1f212e" fill-rule="evenodd"/></g></g><g clip-path="url(#clip-path-21)"><rect x="48.78" y="408.79" width="495.36" height="57.57" fill="#232633" opacity="0.56"/></g><g mask="url(#mask-3)"><g clip-path="url(#clip-path-22)"><path d="M48.78,408.79h6.48a.63.63,0,0,1,.58.66V466a.32.32,0,0,1-.3.33H48.78Z" fill="#1f212e" fill-rule="evenodd"/></g></g><text transform="translate(67.23 435.31)" font-size="14.32" fill="#fefefe" font-family="Tahoma, Tahoma">Провести внеплановый контроль метрологич.<tspan x="0" y="17.18">хар-к измерит. сист. р-ра Р-27</tspan></text><rect x="10.15" y="408.6" width="38.63" height="57.76" fill="#272a38"/><text transform="translate(24.56 442.56)" font-size="12.96" fill="#fff" font-family="Tahoma, Tahoma">1.</text><g clip-path="url(#clip-path-23)"><rect x="48.78" y="220.19" width="495.36" height="57.57" fill="#232633" opacity="0.56"/></g><g mask="url(#mask-4)"><g clip-path="url(#clip-path-24)"><path d="M48.78,220.19h6.48a.62.62,0,0,1,.58.65v56.58a.32.32,0,0,1-.3.34H48.78Z" fill="#1f212e" fill-rule="evenodd"/></g></g><text transform="translate(67.23 246.7)" font-size="14.32" fill="#d8d8d8" font-family="Tahoma, Tahoma">Ухудшение метрологических х-к, к узлу учета железнодорожные<tspan x="0" y="17.18">весы</tspan></text><rect x="10.15" y="220" width="38.63" height="57.76" fill="#272a38"/><text transform="translate(24.56 253.96)" font-size="12.96" fill="#fff" font-family="Tahoma, Tahoma">1.</text><g clip-path="url(#clip-path-25)"><rect x="48.78" y="281.84" width="495.36" height="57.57" fill="#232633" opacity="0.56"/></g><g mask="url(#mask-5)"><g clip-path="url(#clip-path-26)"><path d="M48.78,281.84h6.48a.62.62,0,0,1,.58.65v56.58a.32.32,0,0,1-.3.34H48.78Z" fill="#1f212e" fill-rule="evenodd"/></g></g><text transform="translate(67.23 308.35)" font-size="14.32" fill="#d8d8d8" font-family="Tahoma, Tahoma">Ухудшение метрологических х-к, ИСРВС по резервуару Р-32</text><rect x="10.15" y="281.65" width="38.63" height="57.76" fill="#272a38"/><text transform="translate(24.56 315.61)" font-size="12.96" fill="#fff" font-family="Tahoma, Tahoma">2.</text><g clip-path="url(#clip-path-27)"><rect x="48.78" y="469.34" width="495.36" height="57.57" fill="#232633" opacity="0.56"/></g><g mask="url(#mask-6)"><g clip-path="url(#clip-path-28)"><path d="M48.78,469.34h6.48a.63.63,0,0,1,.58.66v56.58a.32.32,0,0,1-.3.33H48.78Z" fill="#1f212e" fill-rule="evenodd"/></g></g><text transform="translate(67.23 502.86)" font-size="14.32" fill="#d8d8d8" font-family="Tahoma, Tahoma">Внеплановое КМХ узла коммерческого учета</text><rect x="10.15" y="469.16" width="38.63" height="57.76" fill="#272a38"/><text transform="translate(24.56 503.11)" font-size="12.96" fill="#fff" font-family="Tahoma, Tahoma">2.</text><text transform="translate(67.23 382.72)" font-size="15.73" fill="#fff" font-family="Tahoma, Tahoma">Действия по устранению</text><path d="M48.78,540h-33c-3.08,0-5.6,3.48-5.6,7.74V594.4H48.78Z" fill="#272a38" fill-rule="evenodd"/><g opacity="0.04"><path d="M48.78,540h-33c-3.08,0-5.6,3.48-5.6,7.74V594.4H48.78Z" fill="#fff" fill-rule="evenodd"/></g><g clip-path="url(#clip-path-29)"><rect x="48.78" y="540.25" width="495.32" height="54.21" fill="#272a38"/></g><g mask="url(#mask-7)"><g clip-path="url(#clip-path-30)"><path d="M48.78,540.25h10a.89.89,0,0,1,.88.9V594a.46.46,0,0,1-.45.46H48.78Z" fill="#1f212e" fill-rule="evenodd"/></g></g><g mask="url(#mask-8)"><g clip-path="url(#clip-path-31)"><path d="M545.87,540.25h-10a.89.89,0,0,0-.88.9V594a.46.46,0,0,0,.45.46h10.4Z" fill="#1f212e" fill-rule="evenodd"/></g></g><text transform="translate(67.23 574.4)" font-size="15.73" fill="#fff" font-family="Tahoma, Tahoma">Прогнозные последствия</text><path d="M38.73,367.17a.88.88,0,0,0-.89,0,5.31,5.31,0,0,1-2.78.67,5.51,5.51,0,0,1-3-.8,7.37,7.37,0,0,0-3.87-1,7.15,7.15,0,0,0-3,.57.91.91,0,0,0-1.75.34v17.52a.91.91,0,1,0,1.81,0V377a5.38,5.38,0,0,1,2.91-.74,5.54,5.54,0,0,1,3,.8,7.34,7.34,0,0,0,3.87,1,7,7,0,0,0,3.62-.88.92.92,0,0,0,.49-.81v-8.46a.89.89,0,0,0-.44-.77Zm-1.38,8.67a5.32,5.32,0,0,1-2.29.44,5.42,5.42,0,0,1-3-.81,7.37,7.37,0,0,0-3.87-1,7.05,7.05,0,0,0-2.91.55v-6.46a5.47,5.47,0,0,1,2.91-.74,5.53,5.53,0,0,1,3,.81,7.34,7.34,0,0,0,3.87,1,7.45,7.45,0,0,0,2.29-.32Z" fill="#fff" fill-rule="evenodd"/><path d="M21,203.74,29.94,187a1.2,1.2,0,0,1,1.13-.69,1.18,1.18,0,0,1,1.12.69l9,16.75a1.19,1.19,0,0,1,0,1.27,1.23,1.23,0,0,1-1.11.63H22.12A1.21,1.21,0,0,1,21,205a1.17,1.17,0,0,1,0-1.27Zm19,.61-9-16.76-8.95,16.76Zm-7.69-10.27a1.21,1.21,0,0,0-.39-.93,1.25,1.25,0,0,0-.9-.36,1.29,1.29,0,0,0-.91.36,1.24,1.24,0,0,0-.38.93v3.86a1.27,1.27,0,0,0,.38.91,1.23,1.23,0,0,0,.91.38,1.19,1.19,0,0,0,.9-.38,1.24,1.24,0,0,0,.39-.91v-3.86ZM32,200.86a1.23,1.23,0,0,0-.9-.38,1.29,1.29,0,0,0,0,2.58,1.28,1.28,0,0,0,.9-2.2Z" fill="#0288d1" fill-rule="evenodd"/><path d="M20.88,578.2H39.29v1.23H19.65V559.79h1.23v3.68H22.1v1.23H20.88v2.45H22.1v1.23H20.88v2.45H22.1v1.23H20.88v2.46H22.1v1.22H20.88v2.46Zm2.45-5.53a1.84,1.84,0,1,0,3.37-1l1.61-2.14a1.62,1.62,0,0,0,.54.1,1.86,1.86,0,0,0,1-.31L32,570.9a2,2,0,0,0-.09.55,1.85,1.85,0,1,0,3.17-1.28l2.13-4.27.23,0a1.83,1.83,0,1,0-1.33-.56L34,569.63l-.23,0a1.83,1.83,0,0,0-1,.31l-2.14-1.61a1.63,1.63,0,0,0,.1-.55,1.85,1.85,0,1,0-3.38,1l-1.6,2.14a2,2,0,0,0-.55-.09,1.84,1.84,0,0,0-1.84,1.84Zm13.5-8.59a.62.62,0,0,0,.62.62.61.61,0,0,0,.61-.62.61.61,0,0,0-.61-.61.61.61,0,0,0-.62.61Zm-3.68,7.37a.61.61,0,0,0,.61.61.61.61,0,0,0,.62-.61.62.62,0,0,0-.62-.62.61.61,0,0,0-.61.62Zm-4.91-3.69a.62.62,0,1,0,.61-.61.62.62,0,0,0-.61.61Zm-3.68,4.91a.61.61,0,0,0,.61.62.62.62,0,1,0,0-1.23A.61.61,0,0,0,24.56,572.67Z" fill="#fff" fill-rule="evenodd"/><g clip-path="url(#clip-path-32)"><rect x="48.78" y="606.82" width="494.72" height="57.57" fill="#232633" opacity="0.56"/></g><g mask="url(#mask-9)"><g clip-path="url(#clip-path-33)"><path d="M48.78,606.82h9.09a.74.74,0,0,1,.81.65v56.58a.38.38,0,0,1-.41.34H48.78Z" fill="#1f212e" fill-rule="evenodd"/></g></g><g mask="url(#mask-10)"><g clip-path="url(#clip-path-34)"><path d="M544.14,606.82h-9.09a.75.75,0,0,0-.81.65v56.58a.38.38,0,0,0,.41.34h9.49Z" fill="#1f212e" fill-rule="evenodd"/></g></g><text transform="translate(67.23 640.69)" font-size="14.32" fill="#d8d8d8" font-family="Tahoma, Tahoma">Снижение кол-ва отклонений между узлами учета Р-32 и весы ЖД</text><rect x="10.15" y="606.63" width="38.63" height="57.76" fill="#272a38"/><text transform="translate(24.96 640.69)" font-size="12.96" fill="#fff" font-family="Tahoma, Tahoma">1.</text><rect x="22.12" width="382.21" height="33.18" fill="#272a38"/><rect x="22.12" width="382.21" height="33.18" fill="#2378d8" opacity="0.5"/><rect x="404.8" width="127.99" height="33.18" fill="#272a38" opacity="0.5"/><text transform="translate(421.09 23.08)" font-size="19.88" fill="aqua" font-family="Tahoma, Tahoma">-2,4 <tspan x="41.16" y="0" font-size="12.74">т</tspan></text><text transform="translate(484.83 23.06)" font-size="18" fill="#0288d1" font-family="Tahoma, Tahoma">96 <tspan x="25.28" y="0" font-size="10">%</tspan></text><text transform="translate(56.28 21.42)" font-size="14" fill="#fff" font-family="Tahoma, Tahoma">Небалансы по Бензину Регуляр 92, по Р-32</text><path d="M42.67,9.83h-3v-1a.59.59,0,0,0-.58-.57H34.46a.59.59,0,0,0-.58.57v2.93a.56.56,0,0,0,.58.54h3.43a.53.53,0,0,0,.54-.54.56.56,0,0,0-.54-.58H35V9.33h3.54v1a.59.59,0,0,0,.58.58h3V22.24H31.46V11h.84a.56.56,0,1,0,0-1.12H30.92a.59.59,0,0,0-.58.54V22.82a.56.56,0,0,0,.58.54H42.67a.55.55,0,0,0,.54-.54V10.37a.58.58,0,0,0-.54-.54Z" fill="#fff"/><path d="M39.35,14.8a.56.56,0,0,0-.81,0L36,17.35l-1-.93a.54.54,0,1,0-.77.77l1.31,1.35a.59.59,0,0,0,.81,0l3-3a.57.57,0,0,0,0-.77Z" fill="#fff"/><g mask="url(#mask-11)"><g clip-path="url(#clip-path-35)"><g clip-path="url(#clip-path-36)"><g mask="url(#mask-12)"><g clip-path="url(#clip-path-35)"><g clip-path="url(#clip-path-36)"><rect x="9.93" y="595.72" width="534.05" height="20.2" fill="url(#Безымянный_градиент_8)"/></g></g></g></g></g></g><g mask="url(#mask-13)"><g clip-path="url(#clip-path-39)"><path d="M402.57,33.18h10c.49,0,.88-.25.88-.56V.28c0-.15-.2-.28-.45-.28h-10.4Z" fill="#1f212e" fill-rule="evenodd"/></g></g><rect x="22.12" y="42" width="382.21" height="33.18" fill="#272a38"/><rect x="22.12" y="42" width="382.21" height="33.18" fill="#272a38"/><rect x="404.8" y="42" width="127.99" height="33.18" fill="#272a38" opacity="0.5"/><text transform="translate(418.76 65.52)" font-size="21.85" fill="#fff" font-family="Tahoma, Tahoma">-1,9 <tspan x="45.24" y="0" font-size="14">т</tspan></text><text transform="translate(484.83 65.06)" font-size="18" fill="#0288d1" font-family="Tahoma, Tahoma">92 <tspan x="25.28" y="0" font-size="10">%</tspan></text><text transform="translate(56.28 63.42)" font-size="14" fill="#fff" font-family="Tahoma, Tahoma">Небалансы по ДТ-Л-К5, по Р-65</text><path d="M42.67,51.83h-3v-1a.59.59,0,0,0-.58-.58H34.46a.59.59,0,0,0-.58.58v2.93a.56.56,0,0,0,.58.54h3.43a.53.53,0,0,0,.54-.54.56.56,0,0,0-.54-.58H35V51.33h3.54v1a.59.59,0,0,0,.58.58h3V64.24H31.46V53h.84a.56.56,0,1,0,0-1.12H30.92a.59.59,0,0,0-.58.54V64.82a.57.57,0,0,0,.58.54H42.67a.56.56,0,0,0,.54-.54V52.37a.58.58,0,0,0-.54-.54Z" fill="#606580"/><path d="M39.35,56.8a.56.56,0,0,0-.81,0L36,59.35l-1-.93a.54.54,0,1,0-.77.77l1.31,1.35a.62.62,0,0,0,.81,0l3-3a.57.57,0,0,0,0-.77Z" fill="#606580"/><g mask="url(#mask-14)"><g clip-path="url(#clip-path-40)"><path d="M402.57,75.17h10c.49,0,.88-.25.88-.55V42.28c0-.15-.2-.28-.45-.28h-10.4Z" fill="#1f212e" fill-rule="evenodd"/></g></g><rect x="22.12" y="85.02" width="382.21" height="33.18" fill="#272a38"/><rect x="22.12" y="85.02" width="382.21" height="33.18" fill="#272a38"/><rect x="404.8" y="85.02" width="127.99" height="33.18" fill="#272a38" opacity="0.5"/><text transform="translate(418.76 108.54)" font-size="21.85" fill="#fff" font-family="Tahoma, Tahoma">-1,6 <tspan x="45.24" y="0" font-size="14">т</tspan></text><text transform="translate(484.83 108.08)" font-size="18" fill="#0288d1" font-family="Tahoma, Tahoma">89 <tspan x="25.28" y="0" font-size="10">%</tspan></text><text transform="translate(56.28 106.44)" font-size="14" fill="#fff" font-family="Tahoma, Tahoma">Небалансы по ТС-1, по Р-27</text><path d="M42.67,94.85h-3v-1a.59.59,0,0,0-.58-.57H34.46a.59.59,0,0,0-.58.57v2.93a.56.56,0,0,0,.58.54h3.43a.53.53,0,0,0,.54-.54.56.56,0,0,0-.54-.58H35V94.35h3.54v1a.59.59,0,0,0,.58.58h3v11.29H31.46V96h.84a.56.56,0,1,0,0-1.12H30.92a.59.59,0,0,0-.58.54v12.45a.56.56,0,0,0,.58.54H42.67a.55.55,0,0,0,.54-.54V95.39a.58.58,0,0,0-.54-.54Z" fill="#606580"/><path d="M39.35,99.82a.56.56,0,0,0-.81,0L36,102.37l-1-.93a.54.54,0,1,0-.77.77l1.31,1.35a.59.59,0,0,0,.81,0l3-3a.57.57,0,0,0,0-.77Z" fill="#606580"/><g mask="url(#mask-15)"><g clip-path="url(#clip-path-41)"><path d="M402.57,118.2h10c.49,0,.88-.26.88-.56V85.3c0-.15-.2-.28-.45-.28h-10.4Z" fill="#1f212e" fill-rule="evenodd"/></g></g><rect x="22.12" y="128.94" width="382.21" height="33.18" fill="#272a38"/><rect x="22.12" y="128.94" width="382.21" height="33.18" fill="#272a38"/><rect x="404.8" y="128.94" width="127.99" height="33.18" fill="#272a38" opacity="0.5"/><text transform="translate(418.76 152.46)" font-size="21.85" fill="#fff" font-family="Tahoma, Tahoma">-1,3 <tspan x="45.24" y="0" font-size="14">т</tspan></text><text transform="translate(484.83 152)" font-size="18" fill="#0288d1" font-family="Tahoma, Tahoma">83 <tspan x="25.28" y="0" font-size="10">%</tspan></text><text transform="translate(56.28 150.36)" font-size="14" fill="#fff" font-family="Tahoma, Tahoma">Небалансы по Бензину Регуляр 92, по Р-35</text><path d="M42.67,138.77h-3v-1a.59.59,0,0,0-.58-.57H34.46a.59.59,0,0,0-.58.57v2.93a.56.56,0,0,0,.58.54h3.43a.53.53,0,0,0,.54-.54.56.56,0,0,0-.54-.58H35v-1.81h3.54v1a.59.59,0,0,0,.58.58h3v11.29H31.46V139.89h.84a.56.56,0,1,0,0-1.12H30.92a.59.59,0,0,0-.58.54v12.45a.56.56,0,0,0,.58.54H42.67a.55.55,0,0,0,.54-.54V139.31a.58.58,0,0,0-.54-.54Z" fill="#606580"/><path d="M39.35,143.74a.56.56,0,0,0-.81,0L36,146.29l-1-.93a.54.54,0,1,0-.77.77l1.31,1.35a.55.55,0,0,0,.42.15.54.54,0,0,0,.39-.15l3-3a.57.57,0,0,0,0-.77Z" fill="#606580"/><g mask="url(#mask-16)"><g clip-path="url(#clip-path-42)"><path d="M402.57,162.12h10c.49,0,.88-.26.88-.56V129.22c0-.15-.2-.28-.45-.28h-10.4Z" fill="#1f212e" fill-rule="evenodd"/></g></g></g></g></svg>