<svg xmlns="http://www.w3.org/2000/svg" xmlns:xlink="http://www.w3.org/1999/xlink" viewBox="0 0 545.87 486.65">
    <defs>
        <clipPath id="clip-path"><rect x="48.56" y="50.25" width="8.9" height="57.57" fill="none"/></clipPath><linearGradient id="Безымянный_градиент_39" x1="-4665.83" y1="2066.12" x2="-4665.49" y2="2066.12" gradientTransform="matrix(-27.06, -0.25, -0.25, 27.06, -125683.21, -56996.61)" gradientUnits="userSpaceOnUse"><stop offset="0"/><stop offset="1" stop-color="#939394"/></linearGradient><clipPath id="clip-path-2"><rect x="397.35" y="50.25" width="8.9" height="57.57" fill="none"/></clipPath><linearGradient id="Безымянный_градиент_39-2" x1="-4788.02" y1="2063.37" x2="-4787.68" y2="2063.37" gradientTransform="matrix(27.06, -0.25, -0.25, -27.06, 130476.86, 54716.84)" xlink:href="#Безымянный_градиент_39"/><clipPath id="clip-path-3"><rect x="48.78" y="368.81" width="9.9" height="57.57" fill="none"/></clipPath><linearGradient id="Безымянный_градиент_39-3" x1="-4665.98" y1="2077.89" x2="-4665.61" y2="2077.89" xlink:href="#Безымянный_градиент_39"/><clipPath id="clip-path-4"><rect x="534.24" y="368.81" width="9.9" height="57.57" fill="none"/></clipPath><linearGradient id="Безымянный_градиент_39-4" x1="-4783.07" y1="2051.55" x2="-4782.7" y2="2051.55" gradientTransform="matrix(27.06, -0.25, -0.25, -27.06, 130476.86, 54716.84)" xlink:href="#Безымянный_градиент_39"/><clipPath id="clip-path-5"><rect x="48.78" y="429.08" width="9.9" height="57.57" fill="none"/></clipPath><linearGradient id="Безымянный_градиент_39-5" x1="-4666" y1="2080.12" x2="-4665.63" y2="2080.12" xlink:href="#Безымянный_градиент_39"/><clipPath id="clip-path-6"><rect x="534.24" y="429.08" width="9.9" height="57.57" fill="none"/></clipPath><linearGradient id="Безымянный_градиент_39-6" x1="-4783.09" y1="2049.32" x2="-4782.72" y2="2049.32" gradientTransform="matrix(27.06, -0.25, -0.25, -27.06, 130476.86, 54716.84)" xlink:href="#Безымянный_градиент_39"/><linearGradient id="Безымянный_градиент_10" x1="-4691.51" y1="2066.46" x2="-4691.08" y2="2066.46" gradientTransform="matrix(0, -47.25, -47.25, 0, 97917.26, -221295.76)" gradientUnits="userSpaceOnUse"><stop offset="0"/><stop offset="1" stop-color="#fff"/></linearGradient><clipPath id="clip-path-7"><rect x="9.93" y="357.76" width="534.05" height="20.11" fill="none"/></clipPath><linearGradient id="Безымянный_градиент_9" x1="-4726.37" y1="2061.9" x2="-4725.94" y2="2061.9" gradientTransform="matrix(-0.01, 47.25, 47.25, 0.01, -97194.78, 223657.92)" gradientUnits="userSpaceOnUse"><stop offset="0" stop-color="#575756"/><stop offset="1" stop-color="#fff"/></linearGradient><clipPath id="clip-path-8"><rect x="48.78" y="110.56" width="10.85" height="79.57" fill="none"/></clipPath><linearGradient id="Безымянный_градиент_39-7" x1="-4665.93" y1="2068.76" x2="-4665.53" y2="2068.76" gradientTransform="matrix(-0.01, -27.06, -27.06, 0.01, 56007, -126123)" xlink:href="#Безымянный_градиент_39"/><clipPath id="clip-path-9"><rect x="395.25" y="110.56" width="10.85" height="79.57" fill="none"/></clipPath><linearGradient id="Безымянный_градиент_39-8" x1="-4788.12" y1="2060.73" x2="-4787.71" y2="2060.73" gradientTransform="matrix(27.06, 0.01, 0.01, -27.06, 129953.91, 55947.09)" xlink:href="#Безымянный_градиент_39"/><clipPath id="clip-path-10"><rect x="48.78" y="170.78" width="7.05" height="57.57" fill="none"/></clipPath><linearGradient id="Безымянный_градиент_39-9" x1="-4665.81" y1="2070.57" x2="-4665.54" y2="2070.57" xlink:href="#Безымянный_градиент_39"/><clipPath id="clip-path-11"><rect x="394.65" y="170.78" width="7.05" height="57.57" fill="none"/></clipPath><linearGradient id="Безымянный_градиент_39-10" x1="-4788.16" y1="2058.92" x2="-4787.89" y2="2058.92" gradientTransform="matrix(27.06, -0.25, -0.25, -27.06, 130476.86, 54716.84)" xlink:href="#Безымянный_градиент_39"/><clipPath id="clip-path-12"><rect x="48.78" y="302.24" width="10.85" height="79.57" fill="none"/></clipPath><linearGradient id="Безымянный_градиент_39-11" x1="-4665.99" y1="2075.84" x2="-4665.59" y2="2075.84" gradientTransform="matrix(-0.01, -27.06, -27.06, 0.01, 56198.57, -125933.18)" xlink:href="#Безымянный_градиент_39"/><clipPath id="clip-path-13"><rect x="535.02" y="302.24" width="10.85" height="79.57" fill="none"/></clipPath><linearGradient id="Безымянный_градиент_39-12" x1="-4783.02" y1="2053.6" x2="-4782.62" y2="2053.6" gradientTransform="matrix(27.06, 0.01, 0.01, -27.06, 129955.69, 55945.87)" xlink:href="#Безымянный_градиент_39"/><linearGradient id="Безымянный_градиент_10-2" x1="-4689.04" y1="2066.46" x2="-4688.62" y2="2066.46" xlink:href="#Безымянный_градиент_10"/><clipPath id="clip-path-14"><rect x="9.93" y="241.35" width="534.05" height="20.11" fill="none"/></clipPath><linearGradient id="Безымянный_градиент_9-2" x1="-4728.83" y1="2061.9" x2="-4728.4" y2="2061.9" xlink:href="#Безымянный_градиент_9"/><clipPath id="clip-path-15"><rect x="404.8" y="50.25" width="138.6" height="57.57" fill="#0288d1"/></clipPath><clipPath id="clip-path-16"><rect x="48.56" y="50.25" width="356.24" height="57.57" fill="#0288d1"/></clipPath><mask id="mask" x="47.97" y="50.18" width="10.07" height="57.72" maskUnits="userSpaceOnUse"><rect x="48.56" y="50.25" width="8.9" height="57.57"/><g style="isolation:isolate"><g clip-path="url(#clip-path)"><polygon points="57.46 107.9 47.97 107.82 48.56 50.18 58.05 50.26 57.46 107.9" fill="url(#Безымянный_градиент_39)"/></g></g></mask><clipPath id="clip-path-17"><rect x="48.56" y="50.25" width="8.9" height="57.57" fill="none"/></clipPath><mask id="mask-2" x="396.76" y="50.18" width="10.07" height="57.72" maskUnits="userSpaceOnUse"><rect x="397.35" y="50.25" width="8.9" height="57.57"/><g style="isolation:isolate"><g clip-path="url(#clip-path-2)"><polygon points="396.76 50.26 406.24 50.18 406.83 107.82 397.35 107.9 396.76 50.26" fill="url(#Безымянный_градиент_39-2)"/></g></g></mask><clipPath id="clip-path-18"><rect x="397.35" y="50.25" width="7.45" height="57.57" fill="none"/></clipPath><clipPath id="clip-path-19"><rect x="404.34" y="110.56" width="138.6" height="54.21" fill="#272a38"/></clipPath><clipPath id="clip-path-20"><rect x="48.78" y="110.56" width="495.36" height="54.21" fill="none"/></clipPath><mask id="mask-3" x="48.07" y="110.46" width="12.28" height="79.78" maskUnits="userSpaceOnUse"><rect x="48.78" y="110.56" width="10.85" height="79.57"/><g style="isolation:isolate"><g clip-path="url(#clip-path-8)"><rect x="14.37" y="144.57" width="79.67" height="11.57" transform="translate(-96.65 203.13) rotate(-89.46)" fill="url(#Безымянный_градиент_39-7)"/></g></g></mask><clipPath id="clip-path-21"><rect x="48.78" y="110.56" width="10.85" height="54.21" fill="none"/></clipPath><mask id="mask-4" x="394.54" y="110.46" width="12.28" height="79.78" maskUnits="userSpaceOnUse"><rect x="395.25" y="110.56" width="10.85" height="79.57"/><g style="isolation:isolate"><g clip-path="url(#clip-path-9)"><rect x="394.9" y="110.51" width="11.57" height="79.67" transform="translate(-1.41 3.8) rotate(-0.54)" fill="url(#Безымянный_градиент_39-8)"/></g></g></mask><clipPath id="clip-path-22"><rect x="395.25" y="110.56" width="9.08" height="54.21" fill="none"/></clipPath><clipPath id="clip-path-23"><rect x="10.15" y="242.8" width="533.99" height="57.57" fill="none"/></clipPath><clipPath id="clip-path-24"><rect x="48.78" y="170.78" width="495.36" height="57.57" fill="none"/></clipPath><mask id="mask-5" x="48.32" y="170.71" width="7.98" height="57.72" maskUnits="userSpaceOnUse"><rect x="48.78" y="170.78" width="7.05" height="57.57"/><g style="isolation:isolate"><g clip-path="url(#clip-path-10)"><polygon points="55.84 228.43 48.32 228.35 48.78 170.71 56.3 170.79 55.84 228.43" fill="url(#Безымянный_градиент_39-9)"/></g></g></mask><clipPath id="clip-path-25"><rect x="48.78" y="170.78" width="7.05" height="57.57" fill="none"/></clipPath><mask id="mask-6" x="389.11" y="170.71" width="13.06" height="57.72" maskUnits="userSpaceOnUse"><rect x="394.65" y="170.78" width="7.05" height="57.57"/><g style="isolation:isolate"><g clip-path="url(#clip-path-11)"><polygon points="394.18 170.79 401.7 170.71 402.17 228.35 394.65 228.43 394.18 170.79" fill="url(#Безымянный_градиент_39-10)"/></g></g></mask><clipPath id="clip-path-26"><rect x="394.65" y="170.78" width="7.05" height="57.57" fill="none"/></clipPath><clipPath id="clip-path-27"><rect x="48.78" y="302.24" width="495.32" height="54.21" fill="none"/></clipPath><mask id="mask-7" x="48.07" y="302.14" width="12.28" height="79.78" maskUnits="userSpaceOnUse"><rect x="48.78" y="302.24" width="10.85" height="79.57"/><g style="isolation:isolate"><g clip-path="url(#clip-path-12)"><rect x="14.37" y="336.24" width="79.67" height="11.57" transform="translate(-288.32 392.99) rotate(-89.46)" fill="url(#Безымянный_градиент_39-11)"/></g></g></mask><clipPath id="clip-path-28"><rect x="48.78" y="302.24" width="10.85" height="54.21" fill="none"/></clipPath><mask id="mask-8" x="534.3" y="302.14" width="12.28" height="79.78" maskUnits="userSpaceOnUse"><rect x="535.02" y="302.24" width="10.85" height="79.57"/><g style="isolation:isolate"><g clip-path="url(#clip-path-13)"><rect x="534.66" y="302.19" width="11.57" height="79.67" transform="translate(-3.22 5.14) rotate(-0.54)" fill="url(#Безымянный_градиент_39-12)"/></g></g></mask><clipPath id="clip-path-29"><rect x="535.02" y="302.24" width="9.08" height="54.21" fill="none"/></clipPath><mask id="mask-9" x="9.93" y="241.35" width="534.05" height="20.11" maskUnits="userSpaceOnUse"><rect x="9.93" y="241.35" width="534.05" height="20.11"/><g style="isolation:isolate"><rect x="9.93" y="241.35" width="534.05" height="20.11" fill="url(#Безымянный_градиент_10-2)"/></g></mask><clipPath id="clip-path-30"><rect x="9.93" y="241.35" width="534.05" height="20.11" fill="none"/></clipPath><clipPath id="clip-path-31"><rect x="9.93" y="241.35" width="534.05" height="20.11" fill="none"/></clipPath><mask id="mask-10" x="9.93" y="241.26" width="534.06" height="20.28" maskUnits="userSpaceOnUse"><rect x="9.93" y="241.35" width="534.05" height="20.11"/><g style="isolation:isolate"><g clip-path="url(#clip-path-14)"><rect x="9.93" y="241.3" width="534.05" height="20.2" fill="url(#Безымянный_градиент_9-2)"/></g></g></mask><linearGradient id="Безымянный_градиент_8" x1="-4728.83" y1="2061.9" x2="-4728.4" y2="2061.9" gradientTransform="matrix(-0.01, 47.25, 47.25, 0.01, -97194.78, 223657.92)" gradientUnits="userSpaceOnUse"><stop offset="0" stop-color="#11121a"/><stop offset="1" stop-color="#20222e"/></linearGradient><clipPath id="clip-path-34"><rect x="48.78" y="368.81" width="494.72" height="57.57" fill="none"/></clipPath><mask id="mask-11" x="48.13" y="368.74" width="11.21" height="57.72" maskUnits="userSpaceOnUse"><rect x="48.78" y="368.81" width="9.9" height="57.57"/><g style="isolation:isolate"><g clip-path="url(#clip-path-3)"><polygon points="58.68 426.45 48.13 426.38 48.78 368.74 59.34 368.81 58.68 426.45" fill="url(#Безымянный_градиент_39-3)"/></g></g></mask><clipPath id="clip-path-35"><rect x="48.78" y="368.81" width="9.9" height="57.57" fill="none"/></clipPath><mask id="mask-12" x="533.59" y="368.74" width="11.21" height="57.72" maskUnits="userSpaceOnUse"><rect x="534.24" y="368.81" width="9.9" height="57.57"/><g style="isolation:isolate"><g clip-path="url(#clip-path-4)"><polygon points="533.59 368.81 544.14 368.74 544.8 426.38 534.24 426.45 533.59 368.81" fill="url(#Безымянный_градиент_39-4)"/></g></g></mask><clipPath id="clip-path-36"><rect x="534.24" y="368.81" width="9.9" height="57.57" fill="none"/></clipPath><clipPath id="clip-path-37"><rect x="48.78" y="429.08" width="494.72" height="57.57" fill="none"/></clipPath><mask id="mask-13" x="48.13" y="429.01" width="11.21" height="57.72" maskUnits="userSpaceOnUse"><rect x="48.78" y="429.08" width="9.9" height="57.57"/><g style="isolation:isolate"><g clip-path="url(#clip-path-5)"><polygon points="58.68 486.73 48.13 486.64 48.78 429 59.34 429.08 58.68 486.73" fill="url(#Безымянный_градиент_39-5)"/></g></g></mask><clipPath id="clip-path-38"><rect x="48.78" y="429.08" width="9.9" height="57.57" fill="none"/></clipPath><mask id="mask-14" x="533.59" y="429.01" width="11.21" height="57.72" maskUnits="userSpaceOnUse"><rect x="534.24" y="429.08" width="9.9" height="57.57"/><g style="isolation:isolate"><g clip-path="url(#clip-path-6)"><polygon points="533.59 429.08 544.14 429 544.8 486.64 534.24 486.73 533.59 429.08" fill="url(#Безымянный_градиент_39-6)"/></g></g></mask><clipPath id="clip-path-39"><rect x="534.24" y="429.08" width="9.9" height="57.57" fill="none"/></clipPath><mask id="mask-15" x="9.93" y="357.76" width="534.05" height="20.11" maskUnits="userSpaceOnUse"><rect x="9.93" y="357.76" width="534.05" height="20.11"/><g style="isolation:isolate"><rect x="9.93" y="357.76" width="534.05" height="20.11" fill="url(#Безымянный_градиент_10)"/></g></mask><clipPath id="clip-path-40"><rect x="9.93" y="357.76" width="534.05" height="20.11" fill="none"/></clipPath><clipPath id="clip-path-41"><rect x="9.93" y="357.76" width="534.05" height="20.11" fill="none"/></clipPath><mask id="mask-16" x="9.93" y="357.67" width="534.06" height="20.28" maskUnits="userSpaceOnUse"><rect x="9.93" y="357.76" width="534.05" height="20.11"/><g style="isolation:isolate"><g clip-path="url(#clip-path-7)"><rect x="9.93" y="357.72" width="534.05" height="20.2" fill="url(#Безымянный_градиент_9)"/></g></g></mask><linearGradient id="Безымянный_градиент_8-2" x1="-4726.37" y1="2061.9" x2="-4725.94" y2="2061.9" xlink:href="#Безымянный_градиент_8"/></defs>
    <g id="Слой_2" data-name="Слой 2"><g id="Layer_1" data-name="Layer 1"><g opacity="0.16"><rect x="404.8" y="50.25" width="138.6" height="57.57" fill="#0288d1"/><g clip-path="url(#clip-path-15)"><path d="M385.9,50.25H540.22c1.75,0,3.18,1,3.18,2.32v55.25H385.9Z" fill="#0288d1" fill-rule="evenodd"/></g></g><g opacity="0.16"><rect x="48.56" y="50.25" width="356.24" height="57.57" fill="#0288d1"/><g clip-path="url(#clip-path-16)"><path d="M0,50.25H396.64c4.48,0,8.15,1,8.15,2.32v55.25H0Z" fill="#0288d1" fill-rule="evenodd"/></g></g><path d="M48.56,50.07h-33a5.62,5.62,0,0,0-5.6,5.6v52.12H48.56Z" fill="#0288d1" fill-rule="evenodd" opacity="0.5"/><g mask="url(#mask)"><g clip-path="url(#clip-path-17)"><path d="M48.56,50.25h8.17a.7.7,0,0,1,.73.66v56.58a.36.36,0,0,1-.37.33H48.56Z" fill="#1f212e" fill-rule="evenodd"/></g></g><g mask="url(#mask-2)"><g clip-path="url(#clip-path-18)"><path d="M406.24,50.25h-8.17a.69.69,0,0,0-.72.66v56.58a.35.35,0,0,0,.36.33h8.53Z" fill="#1f212e" fill-rule="evenodd"/></g></g><text transform="translate(67 74.32)" font-size="15.73" fill="#fff" font-family="Tahoma, Tahoma" letter-spacing="0em">Мониторинг результатов работы<tspan x="0" y="18.88">первой смены </tspan><tspan x="105.84" y="18.88" letter-spacing="0em">(0:00-8:00 Мск)</tspan></text><text transform="translate(434.37 75.49)" font-size="16.39" fill="#0288d1" font-family="Tahoma, Tahoma">- 2 351<tspan x="51.97" y="0" font-size="12.53"> </tspan><tspan x="55.89" y="0" font-size="9.18">тыс. т</tspan></text><text transform="translate(446.35 93.61)" font-size="11.14" fill="#fff" font-family="Tahoma, Tahoma">203 488<tspan x="39.98" y="0" font-size="13.32"> </tspan><tspan x="44.14" y="0" font-size="7.46" letter-spacing="0em">тыс. т</tspan></text><polygon points="422.62 77.1 422.62 70.3 417.16 70.3 417.16 77.2 412.26 77.2 419.73 86.35 427.2 77.2 422.62 77.1" fill="#0288d1"/><g opacity="0.6"><rect x="404.34" y="110.56" width="138.6" height="54.21" fill="#272a38"/><g clip-path="url(#clip-path-19)"><path d="M385.45,110.56H539.77c1.74,0,3.17,1,3.17,2.18v52H385.45Z" fill="#272a38" fill-rule="evenodd"/></g></g><path d="M48.78,110.31h-33c-3.08,0-5.6,3.48-5.6,7.74v46.67H48.78Z" fill="#272a38" fill-rule="evenodd"/><g opacity="0.3"><path d="M48.78,110.31h-33c-3.08,0-5.6,3.48-5.6,7.74v46.67H48.78Z" fill="#2fade4" fill-rule="evenodd"/></g><g clip-path="url(#clip-path-20)"><rect x="48.78" y="110.56" width="495.36" height="54.21" fill="#272a38"/><rect x="48.78" y="110.56" width="495.36" height="54.21" fill="#2fade4" opacity="0.15"/><rect x="404.34" y="110.56" width="139.8" height="54.21" fill="#232633" opacity="0.56"/></g><g mask="url(#mask-3)"><g clip-path="url(#clip-path-21)"><path d="M48.78,110.56h10a.9.9,0,0,1,.88.91v52.84a.46.46,0,0,1-.45.46H48.78Z" fill="#1f212e" fill-rule="evenodd"/></g></g><g mask="url(#mask-4)"><g clip-path="url(#clip-path-22)"><path d="M406.11,110.56h-10a.9.9,0,0,0-.89.91v52.84a.46.46,0,0,0,.45.46h10.41Z" fill="#1f212e" fill-rule="evenodd"/></g></g><g clip-path="url(#clip-path-23)"><rect x="10.15" y="242.8" width="533.99" height="57.57" fill="#232633" opacity="0.56"/></g><g clip-path="url(#clip-path-24)"><rect x="48.78" y="170.78" width="495.36" height="57.57" fill="#232633" opacity="0.56"/></g><g mask="url(#mask-5)"><g clip-path="url(#clip-path-25)"><path d="M48.78,170.78h6.48a.63.63,0,0,1,.58.66V228a.32.32,0,0,1-.3.33H48.78Z" fill="#1f212e" fill-rule="evenodd"/></g></g><g mask="url(#mask-6)"><g clip-path="url(#clip-path-26)"><path d="M401.62,170.78H390.13c-.56,0-1,.3-1,.66V228c0,.18.23.33.52.33h12Z" fill="#1f212e" fill-rule="evenodd"/></g></g><text transform="translate(433.69 205.19)" font-size="11" fill="#fff" font-family="Tahoma, Tahoma"><tspan xml:space="preserve">+  </tspan><tspan x="14.88" y="0" font-size="16.39">916</tspan><tspan x="41.71" y="0" font-size="12.53"> </tspan><tspan x="45.63" y="0" font-size="9.18">тыс. т </tspan></text><text transform="translate(67.22 197.3)" font-size="14.32" fill="#d8d8d8" font-family="Tahoma, Tahoma">Провести внеплановый контроль контроль<tspan x="0" y="17.18">метрологич. хар-к измерит. сист. р-ра Р-27</tspan></text><rect x="10.15" y="170.6" width="38.63" height="57.76" fill="#272a38"/><text transform="translate(24.96 153.2)" font-size="12.96" fill="#fff" font-family="Tahoma, Tahoma">1.</text><text transform="translate(434.59 133.69)" font-size="11" fill="#2fade4" font-family="Tahoma, Tahoma">+<tspan x="8" y="0" xml:space="preserve" font-size="16.39"> 1 916</tspan><tspan x="54.02" y="0" font-size="12.53"> </tspan><tspan x="57.94" y="0" font-size="9.18">тыс. т</tspan></text><text transform="translate(447.02 151.8)" font-size="11.14" fill="#fff" font-family="Tahoma, Tahoma">205 404<tspan x="39.98" y="0" font-size="13.32"> </tspan><tspan x="44.14" y="0" font-size="7.46" letter-spacing="0em">тыс. т</tspan></text><polygon points="417.06 137.74 417.06 144.54 422.53 144.54 422.53 137.64 427.42 137.64 419.95 128.49 412.49 137.64 417.06 137.74" fill="#00973a"/><text transform="translate(67.22 144.72)" font-size="15.73" fill="#fff" font-family="Tahoma, Tahoma">Действия по устранению</text><path d="M48.78,302h-33c-3.08,0-5.6,3.49-5.6,7.75V356.4H48.78Z" fill="#272a38" fill-rule="evenodd"/><g opacity="0.04"><path d="M48.78,302h-33c-3.08,0-5.6,3.49-5.6,7.75V356.4H48.78Z" fill="#fff" fill-rule="evenodd"/></g><g clip-path="url(#clip-path-27)"><rect x="48.78" y="302.24" width="495.32" height="54.21" fill="#272a38"/></g><g mask="url(#mask-7)"><g clip-path="url(#clip-path-28)"><path d="M48.78,302.24h10a.9.9,0,0,1,.88.91V356a.46.46,0,0,1-.45.47H48.78Z" fill="#1f212e" fill-rule="evenodd"/></g></g><g mask="url(#mask-8)"><g clip-path="url(#clip-path-29)"><path d="M545.87,302.24h-10a.9.9,0,0,0-.88.91V356a.46.46,0,0,0,.45.47h10.4Z" fill="#1f212e" fill-rule="evenodd"/></g></g><text transform="translate(67.22 336.39)" font-size="15.73" fill="#fff" font-family="Tahoma, Tahoma">Прогнозные последствия</text><path d="M38.73,129.16a.91.91,0,0,0-.89,0,5.31,5.31,0,0,1-2.78.68,5.6,5.6,0,0,1-3-.8,7.27,7.27,0,0,0-3.87-1,7,7,0,0,0-3,.58.9.9,0,0,0-.84-.58.91.91,0,0,0-.91.91v17.53a.91.91,0,1,0,1.81,0V139a5.47,5.47,0,0,1,2.91-.74,5.54,5.54,0,0,1,3,.8,7.25,7.25,0,0,0,3.87,1,7,7,0,0,0,3.62-.88.89.89,0,0,0,.49-.8v-8.47a.92.92,0,0,0-.44-.77Zm-1.38,8.67a5.18,5.18,0,0,1-2.29.44,5.51,5.51,0,0,1-3-.8,7.28,7.28,0,0,0-3.87-1,7.24,7.24,0,0,0-2.91.54v-6.45a5.47,5.47,0,0,1,2.91-.74,5.54,5.54,0,0,1,3,.8,7.34,7.34,0,0,0,3.87,1,7.45,7.45,0,0,0,2.29-.32Z" fill="#fff" fill-rule="evenodd"/><path d="M21,86.81l8.94-16.75a1.2,1.2,0,0,1,1.13-.69,1.18,1.18,0,0,1,1.12.69l9,16.75a1.19,1.19,0,0,1,0,1.27,1.23,1.23,0,0,1-1.11.63H22.12a1.21,1.21,0,0,1-1.1-.63,1.17,1.17,0,0,1,0-1.27Zm19,.61-9-16.76L22.12,87.42ZM32.36,77.15a1.21,1.21,0,0,0-.39-.93,1.25,1.25,0,0,0-.9-.36,1.29,1.29,0,0,0-.91.36,1.24,1.24,0,0,0-.38.93V81a1.27,1.27,0,0,0,.38.91,1.23,1.23,0,0,0,.91.38,1.19,1.19,0,0,0,.9-.38,1.24,1.24,0,0,0,.39-.91V77.15ZM32,83.93a1.23,1.23,0,0,0-.9-.38,1.29,1.29,0,0,0,0,2.58,1.28,1.28,0,0,0,.9-2.2Z" fill="#0288d1" fill-rule="evenodd"/><path d="M20.88,340.19H39.29v1.23H19.65V321.78h1.23v3.68H22.1v1.23H20.88v2.46H22.1v1.22H20.88v2.46H22.1v1.22H20.88v2.46H22.1v1.23H20.88v2.45Zm2.45-5.52a1.84,1.84,0,1,0,3.68,0,1.78,1.78,0,0,0-.31-1l1.61-2.14a1.91,1.91,0,0,0,.54.09,1.86,1.86,0,0,0,1-.31L32,332.9a1.91,1.91,0,0,0-.09.54,1.85,1.85,0,1,0,3.17-1.27l2.13-4.28a1.81,1.81,0,0,0,.23,0,1.85,1.85,0,1,0-1.84-1.84,1.82,1.82,0,0,0,.51,1.27L34,331.62l-.23,0a1.83,1.83,0,0,0-1,.31L30.6,330.3a1.62,1.62,0,0,0,.1-.54,1.85,1.85,0,1,0-3.38,1l-1.6,2.14a1.71,1.71,0,0,0-.55-.09,1.84,1.84,0,0,0-1.84,1.84Zm13.5-8.59a.61.61,0,0,0,.62.61.61.61,0,0,0,.61-.61.61.61,0,0,0-.61-.62.62.62,0,0,0-.62.62Zm-3.68,7.36a.61.61,0,0,0,.61.61.61.61,0,1,0,0-1.22.61.61,0,0,0-.61.61Zm-4.91-3.68a.62.62,0,1,0,.61-.61.61.61,0,0,0-.61.61Zm-3.68,4.91a.61.61,0,0,0,.61.61.61.61,0,0,0,.62-.61.62.62,0,0,0-.62-.62A.61.61,0,0,0,24.56,334.67Z" fill="#fff" fill-rule="evenodd"/><g mask="url(#mask-9)"><g clip-path="url(#clip-path-30)"><g clip-path="url(#clip-path-31)"><g mask="url(#mask-10)"><g clip-path="url(#clip-path-30)"><g clip-path="url(#clip-path-31)"><rect x="9.93" y="241.3" width="534.05" height="20.2" fill="url(#Безымянный_градиент_8)"/></g></g></g></g></g></g><path d="M63.24,290.06H389.47c2.85,0,5.18-1.9,5.18-4.22V261.1c0-2.32-2.33-4.22-5.18-4.22H63.24c-2.85,0-5.18,1.9-5.18,4.22v24.74C58.06,288.16,60.39,290.06,63.24,290.06Z" fill="#1a1c26" fill-rule="evenodd" opacity="0.56"/><text transform="translate(67.22 278.58)" font-size="14.32" fill="#afb2c0" font-family="Tahoma, Tahoma">Добавить корректирующее мероприятие</text><g clip-path="url(#clip-path-34)"><rect x="48.78" y="368.81" width="494.72" height="57.57" fill="#232633" opacity="0.56"/></g><g mask="url(#mask-11)"><g clip-path="url(#clip-path-35)"><path d="M48.78,368.81h9.09a.75.75,0,0,1,.81.66v56.58a.38.38,0,0,1-.41.33H48.78Z" fill="#1f212e" fill-rule="evenodd"/></g></g><g mask="url(#mask-12)"><g clip-path="url(#clip-path-36)"><path d="M544.14,368.81h-9.09a.75.75,0,0,0-.81.66v56.58a.38.38,0,0,0,.41.33h9.49Z" fill="#1f212e" fill-rule="evenodd"/></g></g><text transform="translate(67.22 395.33)" font-size="14.32" fill="#d8d8d8" font-family="Tahoma, Tahoma">Снижение систематической ошибки избыточной отгрузки<tspan x="0" y="17.18">нефтепродуктов в рамках метрологич. погрешности изм-ия.</tspan></text><rect x="10.15" y="368.63" width="38.63" height="57.76" fill="#272a38"/><text transform="translate(24.96 351.23)" font-size="12.96" fill="#fff" font-family="Tahoma, Tahoma">1.</text><g clip-path="url(#clip-path-37)"><rect x="48.78" y="429.08" width="494.72" height="57.57" fill="#232633" opacity="0.56"/></g><g mask="url(#mask-13)"><g clip-path="url(#clip-path-38)"><path d="M48.78,429.08h9.09a.75.75,0,0,1,.81.66v56.58a.38.38,0,0,1-.41.33H48.78Z" fill="#1f212e" fill-rule="evenodd"/></g></g><g mask="url(#mask-14)"><g clip-path="url(#clip-path-39)"><path d="M544.14,429.08h-9.09a.75.75,0,0,0-.81.66v56.58a.38.38,0,0,0,.41.33h9.49Z" fill="#1f212e" fill-rule="evenodd"/></g></g><text></text><rect x="10.15" y="428.9" width="38.63" height="57.76" fill="#272a38"/><text transform="translate(24.96 411.49)" font-size="12.96" fill="#fff" font-family="Tahoma, Tahoma">2.</text><path d="M499.21,280.29v-2.61a.62.62,0,1,0-1.23,0v2h-7.3V269.59H498v2.19a.62.62,0,1,0,1.23,0V269a.64.64,0,0,0-.65-.61H490a.57.57,0,0,0-.56.61v11.32a.57.57,0,0,0,.56.61h8.55A.64.64,0,0,0,499.21,280.29Z" fill="#afb2c0" fill-rule="evenodd"/><path d="M494.59,274.52a.61.61,0,0,0,.61.62h8.36l-2.34,2.63a.61.61,0,0,0-.16.41.62.62,0,0,0,1.08.41l3.16-3.54a.63.63,0,0,0,.15-.41.6.6,0,0,0-.13-.38.66.66,0,0,0-.25-.27l-2.95-3.07a.62.62,0,1,0-.89.85l2,2.14H495.2A.61.61,0,0,0,494.59,274.52Z" fill="#afb2c0" fill-rule="evenodd"/><circle cx="439.23" cy="274.63" r="7.65" fill="none" stroke="#afb2c0" stroke-miterlimit="10" stroke-width="1.2"/><line x1="439.23" y1="271.57" x2="439.23" y2="277.68" fill="none" stroke="#afb2c0" stroke-linecap="round" stroke-miterlimit="10" stroke-width="1.2"/><line x1="436.18" y1="274.63" x2="442.29" y2="274.63" fill="none" stroke="#afb2c0" stroke-linecap="round" stroke-miterlimit="10" stroke-width="1.2"/><path d="M468.6,277l-4.11,4.11a2,2,0,0,1-2.83,0,2,2,0,0,1,0-2.82l4.11-4.12a4.91,4.91,0,0,1,1.11-5.22,5,5,0,0,1,2.41-1.32,4.91,4.91,0,0,1,2.76.19l.73.27-2.94,2.94a1.35,1.35,0,0,0,0,1.9,1.34,1.34,0,0,0,1.91,0l2.94-2.94.27.74a5,5,0,0,1,.18,2.75A4.9,4.9,0,0,1,468.6,277Zm-4.82,3.41,4.6-4.6.31.15a4,4,0,0,0,2.34.31,3.83,3.83,0,0,0,2.08-1.09,3.88,3.88,0,0,0,1.06-1.91,3.83,3.83,0,0,0,.05-1.39l-1.76,1.76a2.35,2.35,0,0,1-3.33,0,2.37,2.37,0,0,1,0-3.32l1.77-1.77a4.07,4.07,0,0,0-1.39.06,3.89,3.89,0,0,0-3,3.13,3.93,3.93,0,0,0,.3,2.34l.15.32L462.37,279a1,1,0,0,0,0,1.42,1,1,0,0,0,1.41,0Z" fill="#afb2c0" fill-rule="evenodd"/><rect x="22.12" width="352.81" height="33.18" fill="#272a38"/><rect x="22.12" width="352.81" height="33.18" fill="#2378d8" opacity="0.5"/><rect x="374.93" width="157.85" height="33.18" fill="#272a38" opacity="0.5"/><polygon points="393.48 15.07 393.48 9.66 389.13 9.66 389.13 15.15 385.23 15.15 391.18 22.43 397.13 15.15 393.48 15.07" fill="#0288d1"/><text transform="translate(401.9 23.52)" font-size="21.85" fill="#fff" font-family="Tahoma, Tahoma">13<tspan x="23.86" y="0" letter-spacing="-0.01em">4</tspan><tspan x="35.57" y="0" letter-spacing="0em">,4 </tspan><tspan x="60.95" y="0" font-size="14">т</tspan></text><text transform="translate(477.59 23.06)" font-size="14" fill="#0288d1" font-family="Tahoma, Tahoma">- 38,5 т</text><text transform="translate(56.28 21.42)" font-size="14" fill="#fff" font-family="Tahoma, Tahoma">Систематическая ошибка отгрузки</text><path d="M42.67,9.83h-3v-1a.59.59,0,0,0-.58-.57H34.46a.59.59,0,0,0-.58.57v2.93a.56.56,0,0,0,.58.54h3.43a.53.53,0,0,0,.54-.54.56.56,0,0,0-.54-.58H35V9.33h3.54v1a.59.59,0,0,0,.58.58h3V22.24H31.46V11h.84a.56.56,0,1,0,0-1.12H30.92a.59.59,0,0,0-.58.54V22.82a.56.56,0,0,0,.58.54H42.67a.55.55,0,0,0,.54-.54V10.37a.58.58,0,0,0-.54-.54Z" fill="#fff"/><path d="M39.35,14.8a.56.56,0,0,0-.81,0L36,17.35l-1-.93a.54.54,0,1,0-.77.77l1.31,1.35a.59.59,0,0,0,.81,0l3-3a.57.57,0,0,0,0-.77Z" fill="#fff"/><g mask="url(#mask-15)"><g clip-path="url(#clip-path-40)"><g clip-path="url(#clip-path-41)"><g mask="url(#mask-16)"><g clip-path="url(#clip-path-40)"><g clip-path="url(#clip-path-41)"><rect x="9.93" y="357.72" width="534.05" height="20.2" fill="url(#Безымянный_градиент_8-2)"/></g></g></g></g></g></g><text transform="translate(67.22 460.89)" font-size="14.32" fill="#d8d8d8" font-family="Tahoma, Tahoma">Снижение потерь количества отгружаемых нефтепродуктов.</text></g></g></svg>
