<svg xmlns="http://www.w3.org/2000/svg" xmlns:xlink="http://www.w3.org/1999/xlink" viewBox="0 0 534.21 65.77"><defs><linearGradient id="Безымянный_градиент_10" x1="-4713.09" y1="1148.02" x2="-4712.88" y2="1148.02" gradientTransform="matrix(0, -47.25, -47.25, 0, 54511.02, -222683.34)" gradientUnits="userSpaceOnUse"><stop offset="0"/><stop offset="1" stop-color="#fff"/></linearGradient><clipPath id="clip-path"><rect x="0.01" y="0.04" width="534.05" height="10" fill="none"/></clipPath><linearGradient id="Безымянный_градиент_9" x1="-4724.43" y1="1143.46" x2="-4724.21" y2="1143.46" gradientTransform="matrix(-0.01, 47.25, 47.25, 0.01, -53808.5, 223217.78)" gradientUnits="userSpaceOnUse"><stop offset="0" stop-color="#575756"/><stop offset="1" stop-color="#fff"/></linearGradient><clipPath id="clip-path-2"><rect x="0.23" y="0.04" width="533.99" height="65.72" fill="none"/></clipPath><mask id="mask" x="0" y="0.04" width="534.05" height="10" maskUnits="userSpaceOnUse"><rect x="0.01" y="0.04" width="534.05" height="10"/><g style="isolation:isolate"><rect x="0.01" y="0.04" width="534.05" height="10" fill="url(#Безымянный_градиент_10)"/></g></mask><clipPath id="clip-path-3"><rect y="0.04" width="534.05" height="10" fill="none"/></clipPath><clipPath id="clip-path-4"><rect x="0.01" y="0.04" width="534.05" height="10" fill="none"/></clipPath><mask id="mask-2" x="0" y="0" width="534.06" height="10.09" maskUnits="userSpaceOnUse"><rect x="0.01" y="0.04" width="534.05" height="10"/><g style="isolation:isolate"><g clip-path="url(#clip-path)"><rect y="0.02" width="534.05" height="10.04" fill="url(#Безымянный_градиент_9)"/></g></g></mask><linearGradient id="Безымянный_градиент_8" x1="-4724.43" y1="1143.46" x2="-4724.21" y2="1143.46" gradientTransform="matrix(-0.01, 47.25, 47.25, 0.01, -53808.5, 223217.78)" gradientUnits="userSpaceOnUse"><stop offset="0" stop-color="#11121a"/><stop offset="1" stop-color="#20222e"/></linearGradient></defs><title>neftecontrol1</title><g id="Слой_2" data-name="Слой 2"><g id="Layer_1" data-name="Layer 1"><g clip-path="url(#clip-path-2)"><rect x="0.22" y="0.04" width="533.99" height="65.72" fill="#232633" opacity="0.56"/></g><g mask="url(#mask)"><g clip-path="url(#clip-path-3)"><g clip-path="url(#clip-path-4)"><g mask="url(#mask-2)"><g clip-path="url(#clip-path-3)"><g clip-path="url(#clip-path-4)"><rect y="0.02" width="534.05" height="10.04" fill="url(#Безымянный_градиент_8)"/></g></g></g></g></g></g><path d="M53.31,47.3H379.55c2.84,0,5.17-1.9,5.17-4.22V18.34c0-2.32-2.33-4.22-5.17-4.22H53.31c-2.85,0-5.18,1.9-5.18,4.22V43.08C48.13,45.4,50.46,47.3,53.31,47.3Z" fill="#1a1c26" fill-rule="evenodd" opacity="0.56"/><text transform="translate(57.3 35.82)" font-size="14.32" fill="#afb2c0" font-family="Tahoma, Tahoma">Добавить корректирующее мероприятие</text><path d="M489.28,37.53V34.92a.61.61,0,0,0-.61-.62.62.62,0,0,0-.62.62v2h-7.3V26.83h7.3V29a.62.62,0,0,0,.62.62.61.61,0,0,0,.61-.62V26.2a.63.63,0,0,0-.64-.6h-8.55a.57.57,0,0,0-.57.6V37.53a.57.57,0,0,0,.57.6h8.55A.63.63,0,0,0,489.28,37.53Z" fill="#afb2c0" fill-rule="evenodd"/><path d="M484.66,31.76a.62.62,0,0,0,.61.62h8.36L491.29,35a.61.61,0,0,0,0,.87.61.61,0,0,0,.87-.05l3.16-3.54a.63.63,0,0,0,.15-.41.6.6,0,0,0-.13-.38.6.6,0,0,0-.25-.27l-2.95-3.07a.62.62,0,0,0-.89.85l2.05,2.14h-8.08A.61.61,0,0,0,484.66,31.76Z" fill="#afb2c0" fill-rule="evenodd"/><circle cx="429.31" cy="31.87" r="7.65" fill="none" stroke="#afb2c0" stroke-miterlimit="10" stroke-width="1.2"/><line x1="429.31" y1="28.81" x2="429.31" y2="34.92" fill="none" stroke="#afb2c0" stroke-linecap="round" stroke-miterlimit="10" stroke-width="1.2"/><line x1="426.25" y1="31.87" x2="432.36" y2="31.87" fill="none" stroke="#afb2c0" stroke-linecap="round" stroke-miterlimit="10" stroke-width="1.2"/><path d="M458.67,34.26l-4.11,4.11a2,2,0,0,1-2.83-2.82l4.11-4.12A4.91,4.91,0,0,1,457,26.21a4.85,4.85,0,0,1,2.41-1.32,5,5,0,0,1,2.76.18l.73.27-2.94,2.94a1.37,1.37,0,0,0-.39,1,1.35,1.35,0,0,0,2.3,1l2.94-2.94L465,28a5,5,0,0,1,.18,2.75,4.85,4.85,0,0,1-1.32,2.41,4.9,4.9,0,0,1-2.61,1.36,5,5,0,0,1-2.61-.25Zm-4.82,3.41,4.6-4.6.31.15a3.92,3.92,0,0,0,5.48-2.69,3.87,3.87,0,0,0,.05-1.4l-1.76,1.77a2.38,2.38,0,0,1-3.33,0,2.37,2.37,0,0,1,0-3.32L461,25.81A3.9,3.9,0,0,0,456.58,29a3.93,3.93,0,0,0,.3,2.34l.15.32-4.59,4.59a1,1,0,0,0-.29.71,1,1,0,0,0,1.7.71Z" fill="#afb2c0" fill-rule="evenodd"/></g></g></svg>