<?xml version="1.0" encoding="UTF-8"?>
<!DOCTYPE svg PUBLIC "-//W3C//DTD SVG 1.1//EN" "http://www.w3.org/Graphics/SVG/1.1/DTD/svg11.dtd">
<!-- Creator: CorelDRAW X8 -->
<svg xmlns="http://www.w3.org/2000/svg" xml:space="preserve" width="100%" height="100%" version="1.1" shape-rendering="geometricPrecision" text-rendering="geometricPrecision" image-rendering="optimizeQuality" fill-rule="evenodd" clip-rule="evenodd"
viewBox="0 0 1104 909"
 xmlns:xlink="http://www.w3.org/1999/xlink">
 <g id="Слой_x0020_1">
  <metadata id="CorelCorpID_0Corel-Layer"/>
  <g id="_1653851320400">
   <path fill="#005899" d="M851 741c-47,15 -76,28 -134,34 -143,16 -285,-31 -394,-108 -91,-66 -200,-203 -178,-322 8,-41 27,-78 62,-98l6 -5c-65,-33 -153,-13 -177,36 -70,146 -34,341 71,460l43 46c5,5 11,9 17,14 84,73 220,124 369,108 112,-12 256,-81 315,-165z"/>
   <path fill="#005899" d="M495 712c66,-6 84,-2 141,-30 43,-22 70,-46 102,-71 52,-40 124,-120 216,-132 10,-14 24,-29 35,-43l68 -86c9,-12 26,-31 30,-42 -40,-7 -85,-11 -127,-8 -48,4 -69,12 -100,35 -30,23 -77,74 -99,102 -24,31 -68,76 -93,106l-32 35c-81,78 -96,95 -238,81 9,10 79,50 97,53z"/>
   <path fill="#ED1B24" d="M495 712c26,22 136,41 180,45 71,5 134,-6 191,-33 36,-18 89,-70 124,-100l114 -110c-3,-3 -1,-1 -5,-4 -33,-23 -102,-31 -145,-31 -92,12 -164,92 -216,132 -32,25 -59,49 -102,71 -57,28 -75,24 -141,30z"/>
   <path fill="#005899" d="M782 105c0,5 -153,271 -159,281 -40,67 -107,177 -173,219 -15,9 -26,11 -39,17 23,-1 40,-7 58,-18 42,-26 84,-75 112,-114 70,-96 118,-175 181,-276 20,-33 41,-61 63,-90 46,-61 151,-80 230,-74 0,11 -68,117 -77,135 4,-10 109,-155 117,-172 -38,-22 -147,-12 -189,2 -97,32 -108,83 -124,90z"/>
   <path fill="#005899" d="M782 105c-9,-13 -64,-43 -77,-50 -95,-49 -208,-63 -315,-45 -70,12 -130,39 -181,72 -43,27 -105,82 -128,125 152,-37 44,29 143,-63 101,-93 266,-132 406,-101 93,21 127,54 152,62z"/>
  </g>
 </g>
</svg>
