<svg xmlns="http://www.w3.org/2000/svg" viewBox="0 0 12.87 15.14">
  <title>Ресурс 33</title>
  <g id="Слой_2" data-name="Слой 2">
    <g id="Слой_10" data-name="Слой 10">
      <g>
        <path d="M12.33,1.62h-3v-1A.59.59,0,0,0,8.75,0H4.12a.59.59,0,0,0-.58.58V3.51a.57.57,0,0,0,.58.54H7.55a.53.53,0,0,0,.54-.54.56.56,0,0,0-.54-.58H4.66V1.12H8.21v1a.59.59,0,0,0,.57.58h3V14H1.12V2.74H2a.59.59,0,0,0,.58-.58A.59.59,0,0,0,2,1.62H.58A.59.59,0,0,0,0,2.16V14.6a.56.56,0,0,0,.58.54H12.33a.55.55,0,0,0,.54-.54V2.16a.58.58,0,0,0-.54-.54Z" style="fill: #fff"/>
        <path d="M9,6.59a.56.56,0,0,0-.81,0L5.63,9.13l-1-.92A.54.54,0,0,0,3.89,9L5.2,10.33a.61.61,0,0,0,.43.15A.58.58,0,0,0,6,10.33l3-3a.59.59,0,0,0,0-.77Z" style="fill: #fff"/>
      </g>
    </g>
  </g>
</svg>
