<svg xmlns="http://www.w3.org/2000/svg" xml:space="preserve" width="15.4356mm" height="15.4373mm" version="1.1" shape-rendering="geometricPrecision" text-rendering="geometricPrecision" image-rendering="optimizeQuality" fill-rule="evenodd" clip-rule="evenodd"
viewBox="0 0 44.92 44.92"
 xmlns:xlink="http://www.w3.org/1999/xlink">
 <g id="Слой_x0020_1">
  <metadata id="CorelCorpID_0Corel-Layer"/>
  <path fill="#0084FF" fill-rule="nonzero" d="M15.16 37.04c1.64,-3.21 3.81,-7.46 6.12,-11.99l-9.02 0c-0.07,-0.17 -0.14,-0.35 -0.22,-0.53 5.91,-5.67 11.82,-11.34 17.48,-16.77 -1.95,3.78 -4.1,7.96 -6.43,12.47l9.11 0c0.05,0.15 0.11,0.29 0.16,0.44 -5.98,5.7 -11.96,11.4 -17.2,16.39zm7.34 -37.04c-12.43,-0.01 -22.5,10.04 -22.5,22.46 -0,12.41 10.08,22.48 22.5,22.46 12.33,-0.02 22.39,-10.06 22.42,-22.38 0.03,-12.42 -10.02,-22.53 -22.42,-22.54z"/>
 </g>
</svg>
