<svg xmlns="http://www.w3.org/2000/svg" viewBox="0 0 75.8 100.62">
    <g id="Слой_2" data-name="Слой 2"><g id="Layer_2" data-name="Layer 2"><path id="Path_3498" data-name="Path 3498" d="M15.21,91.57A71,71,0,0,1,3,74.33,39,39,0,0,1,.71,51.85a48.42,48.42,0,0,1,9.67-20.78,20,20,0,0,0,5,14.7,35,35,0,0,1,8-29A60,60,0,0,1,49,0a20.73,20.73,0,0,0-3.57,19.75,83.38,83.38,0,0,0,9.45,18.7,41.63,41.63,0,0,1,7.15,19.3A67.84,67.84,0,0,0,67.3,46.61a22,22,0,0,0,.84-12.17,31.17,31.17,0,0,1,6.93,15.1,50.49,50.49,0,0,1,.73,8v1.78a73.83,73.83,0,0,1-.52,8,44.59,44.59,0,0,1-6.1,18.69A35.08,35.08,0,0,1,50.9,99.75a55.74,55.74,0,0,1-11.82.84A20.94,20.94,0,0,0,55.94,69.88c0-.21-.21-.21-.21-.42a21.24,21.24,0,0,1-5.25,18.46A19.6,19.6,0,0,0,48.6,72c-2.52-4.85-6.1-9.23-8.83-13.86a22.34,22.34,0,0,1-3.58-15.75A27.64,27.64,0,0,0,26.13,57.9a28.2,28.2,0,0,0,2.09,18.46,13.9,13.9,0,0,1-5.67-10.07,21.65,21.65,0,0,0-5.25,14.5A21.4,21.4,0,0,0,31.16,99.25a19.59,19.59,0,0,0,2.09.68,36.36,36.36,0,0,1-18.06-8.46Z" fill="#fff" fill-opacity="0.5"/></g></g></svg>
