<svg xmlns="http://www.w3.org/2000/svg" viewBox="0 0 10.76 16.21">
  <title>fire-icon</title>
  <g id="Слой_2" data-name="Слой 2">
    <g id="Слой_10" data-name="Слой 10">
      <g style="opacity: 0.5">
        <polygon points="4.22 0 4.22 0 4.22 0.36 4.22 0.73 4.22 1.09 4.14 1.38 4.07 1.74 4.07 2.04 4 2.4 3.93 2.69 3.71 3.27 3.49 3.85 3.34 4.43 3.05 4.95 2.76 5.45 2.47 5.96 1.89 6.98 1.31 7.85 1.02 8.29 0.8 8.72 0.58 9.16 0.36 9.6 0.22 9.96 0.07 10.4 0.07 10.62 0 10.83 0 11.05 0 11.27 0 11.49 0.07 11.71 0.07 11.93 0.15 12.14 0.22 12.36 0.29 12.58 0.43 12.79 0.51 13.09 0.65 13.31 0.8 13.52 1.02 13.81 1.24 14.03 1.45 14.25 1.67 14.54 1.96 14.76 2.25 15.05 2.62 15.34 2.91 15.63 3.71 16.14 3.71 16.14 3.49 15.85 3.42 15.48 3.27 15.19 3.2 14.91 3.13 14.62 3.05 14.4 3.05 14.1 3.05 13.89 3.05 13.6 3.13 13.31 3.2 13.09 3.2 12.79 3.42 12.36 3.64 11.85 4.07 10.83 4.29 10.25 4.51 9.74 4.58 9.45 4.65 9.09 4.72 8.8 4.8 8.43 4.87 8.14 4.87 7.78 4.87 7.34 4.87 6.98 4.87 6.98 5.09 7.2 5.31 7.34 5.53 7.56 5.74 7.78 5.96 8.07 6.11 8.36 6.25 8.58 6.47 8.87 6.54 9.23 6.69 9.53 6.84 9.81 6.91 10.18 6.98 10.47 7.05 10.83 7.12 11.2 7.12 11.49 7.2 11.85 7.2 12.22 7.12 12.58 7.12 12.87 7.05 13.23 6.98 13.52 6.91 13.89 6.84 14.18 6.69 14.47 6.54 14.76 6.4 15.05 6.18 15.34 6.03 15.56 5.82 15.78 5.53 16 5.24 16.21 5.24 16.21 5.74 16.07 6.18 15.92 6.54 15.71 6.98 15.56 7.34 15.41 7.63 15.19 8 15.05 8.29 14.83 8.58 14.62 8.8 14.4 9.09 14.18 9.31 13.96 9.53 13.74 9.67 13.52 9.89 13.31 10.03 13.02 10.18 12.79 10.25 12.5 10.4 12.29 10.47 12 10.54 11.78 10.62 11.49 10.69 11.2 10.69 10.98 10.76 10.69 10.76 10.4 10.69 10.11 10.69 9.81 10.69 9.53 10.62 9.23 10.47 8.65 10.25 8.07 10.11 7.49 9.81 6.91 9.53 6.33 9.16 5.74 8.87 5.16 8.43 4.58 8.07 4 7.63 3.49 7.12 2.91 6.69 2.4 6.18 1.89 5.67 1.38 5.24 0.87 4.72 0.43 4.22 0 4.22 0" style="fill: #606580;fill-rule: evenodd"/>
        <polygon points="4.22 0 4.22 0 4.22 0.36 4.22 0.73 4.22 1.09 4.14 1.38 4.07 1.74 4.07 2.04 4 2.4 3.93 2.69 3.71 3.27 3.49 3.85 3.34 4.43 3.05 4.95 2.76 5.45 2.47 5.96 1.89 6.98 1.31 7.85 1.02 8.29 0.8 8.72 0.58 9.16 0.36 9.6 0.22 9.96 0.07 10.4 0.07 10.62 0 10.83 0 11.05 0 11.27 0 11.49 0.07 11.71 0.07 11.93 0.15 12.14 0.22 12.36 0.29 12.58 0.43 12.79 0.51 13.09 0.65 13.31 0.8 13.52 1.02 13.81 1.24 14.03 1.45 14.25 1.67 14.54 1.96 14.76 2.25 15.05 2.62 15.34 2.91 15.63 3.71 16.14 3.71 16.14 3.49 15.85 3.42 15.48 3.27 15.19 3.2 14.91 3.13 14.62 3.05 14.4 3.05 14.1 3.05 13.89 3.05 13.6 3.13 13.31 3.2 13.09 3.2 12.79 3.42 12.36 3.64 11.85 4.07 10.83 4.29 10.25 4.51 9.74 4.58 9.45 4.65 9.09 4.72 8.8 4.8 8.43 4.87 8.14 4.87 7.78 4.87 7.34 4.87 6.98 4.87 6.98 5.09 7.2 5.31 7.34 5.53 7.56 5.74 7.78 5.96 8.07 6.11 8.36 6.25 8.58 6.47 8.87 6.54 9.23 6.69 9.53 6.84 9.81 6.91 10.18 6.98 10.47 7.05 10.83 7.12 11.2 7.12 11.49 7.2 11.85 7.2 12.22 7.12 12.58 7.12 12.87 7.05 13.23 6.98 13.52 6.91 13.89 6.84 14.18 6.69 14.47 6.54 14.76 6.4 15.05 6.18 15.34 6.03 15.56 5.82 15.78 5.53 16 5.24 16.21 5.24 16.21 5.74 16.07 6.18 15.92 6.54 15.71 6.98 15.56 7.34 15.41 7.63 15.19 8 15.05 8.29 14.83 8.58 14.62 8.8 14.4 9.09 14.18 9.31 13.96 9.53 13.74 9.67 13.52 9.89 13.31 10.03 13.02 10.18 12.79 10.25 12.5 10.4 12.29 10.47 12 10.54 11.78 10.62 11.49 10.69 11.2 10.69 10.98 10.76 10.69 10.76 10.4 10.69 10.11 10.69 9.81 10.69 9.53 10.62 9.23 10.47 8.65 10.25 8.07 10.11 7.49 9.81 6.91 9.53 6.33 9.16 5.74 8.87 5.16 8.43 4.58 8.07 4 7.63 3.49 7.12 2.91 6.69 2.4 6.18 1.89 5.67 1.38 5.24 0.87 4.72 0.43 4.22 0 4.22 0" style="fill: #606580;fill-rule: evenodd"/>
      </g>
    </g>
  </g>
</svg>
