<svg xmlns="http://www.w3.org/2000/svg" viewBox="0 0 15.72 19.34">
  <title>flag-icon</title>
  <g id="Слой_2" data-name="Слой 2">
    <g id="реакция">
      <path d="M15.28,1.17a.89.89,0,0,0-.89,0,5.34,5.34,0,0,1-2.78.67,5.51,5.51,0,0,1-3-.8A7.37,7.37,0,0,0,4.72,0a7.15,7.15,0,0,0-3,.57A.92.92,0,0,0,.91,0,.91.91,0,0,0,0,.91V18.43a.91.91,0,1,0,1.81,0V11a5.38,5.38,0,0,1,2.91-.74,5.54,5.54,0,0,1,3,.8,7.34,7.34,0,0,0,3.87,1,7.08,7.08,0,0,0,3.62-.88.92.92,0,0,0,.49-.81V1.94a.89.89,0,0,0-.44-.77ZM13.9,9.84a5.36,5.36,0,0,1-2.29.44,5.5,5.5,0,0,1-3-.81,7.37,7.37,0,0,0-3.87-1A7.24,7.24,0,0,0,1.81,9V2.55a5.47,5.47,0,0,1,2.91-.74,5.54,5.54,0,0,1,3,.8,7.24,7.24,0,0,0,3.87,1,7.45,7.45,0,0,0,2.29-.32Z" style="fill: #fff;fill-rule: evenodd"/>
    </g>
  </g>
</svg>
