<svg xmlns="http://www.w3.org/2000/svg" viewBox="0 0 12.44 17.09">
  <title>flask-icon</title>
  <g id="Слой_2" data-name="Слой 2">
    <g id="Слой_10" data-name="Слой 10">
      <path d="M11.27,7.27l-.06-.11-.05-.08-.08,0L11,7l0-.11-.09,0-.05-.11-.08,0-.06-.09-.11-.11,0,0-.11-.06,0-.11-.11,0-.05-.11-.09-.06-.11,0L10,5.93l-.05,0-.09-.06-.1-.11-.06,0L9.6,5.66l-.08,0-.11-.06-.08,0-.11,0-.09-.06L9,5.36l0,0-.08,0-.11-.06V4.05h.55L9.41,4h.13l.06-.05.08,0h.06l0-.05.08-.06.06,0H10l.06,0,.08-.06.05-.1.06,0,0-.06.05-.05,0-.06V3.28l.06,0,0-.06.05-.08V3L10.56,3V2.82l0-.11V1.34l0-.11V1.09L10.5,1V1L10.45.9l0-.08-.06,0V.71l0-.08L10.26.57l0,0L10.17.46l-.05,0L10,.38,10,.33,9.93.3l-.06,0L9.79.19h0l-.06,0L9.6.11H9.46L9.41.05H9.16L9.08,0H3.36L3.28.05H3L3,.11H2.84l-.08,0,0,0H2.65L2.57.25l0,0-.06,0-.08,0L2.32.44l0,0,0,.06-.05,0L2.13.63l0,.08L2.05.77l0,0V.9L1.94,1l0,.05v.14l0,.08V2.82l0,.08V3l0,0L2,3.17v.06l0,0,.06.08,0,.06.06.05.05.06,0,0,0,.1.06.06.08,0h.06l0,0,.08.06.06.05h0l.08,0L2.9,4H3l.1.06h.52V5.22l-.19.11-.24.08L3,5.55l-.2.11-.13.14-.19.13L2.32,6l-.13.14L2,6.32l-.14.19-.14.14-.16.16L1.42,7l-.13.19-.14.17L1,7.52.9,7.71l-.08.17-.11.19-.08.19L.52,8.5l-.08.2-.11.19,0,.24,0,.2-.06.21,0,.2,0,.24-.06.25v.41l0,.24.05.33v.28l.06.35,0,.27.11.33,0,.3L.44,13l.08.3.11.27.14.25.13.27.19.25.2.22.13.24.25.25.19.19.19.22.22.19.25.19.24.17.25.16.27.16.28.14.24.08.3.17.28.08.32.05L5,17l.28.05.33,0h.3l.33,0,.32,0h.28l.32,0L7.47,17l.32-.09.28-.05.3-.08.27-.17.3-.08.22-.14.3-.16L9.68,16l.25-.17.24-.19.25-.19.16-.22.25-.19.19-.25.19-.24.14-.22.19-.25.14-.27.16-.25.08-.27.14-.3.11-.28.05-.3.09-.33,0-.27.06-.35v-.28l0-.33v-.13l0-.11v-.47L12.36,10V9.79l0-.11V9.54l-.06-.08,0-.13V9.22l-.05-.14L12.11,9V8.89l0-.14,0-.11,0-.14-.06-.08-.05-.11,0-.08-.05-.16L11.73,8l-.08-.11-.05-.09-.06-.13,0-.11-.09-.08-.05-.11ZM5.91,10.69v-.27l-.06-.06v-.13l0-.06v-.05l-.06-.06,0-.08V9.93l-.06-.06,0,0-.06-.05,0,0,0-.06-.06,0,0-.05h0l0-.06-.06,0H5.14l0-.06H5l0-.05H4.9l-.06-.06H4.32l-.08.06H4.18l0,.05H4.05L4,9.52H3.94l0,0L3.8,9.6h0l0,.05-.06,0-.05.06,0,0v.05l0,0-.06.06L3.42,10l-.06.08v.06l0,.05v.06l-.06.08v.11l0,.08v.38l0,.06v.14H2.19v.19l.05.19v.19l0,.22,0,.19.06.16.08.2.06.16.11.19.08.17.11.19.08.13L3,13.4l.1.14.14.13.14.17.14.13.16.14.14.11L4,14.3l.19.08.14.11.19.09.19.11.14.05.19.08.19.06.19,0h.2l.24,0h.8l.19,0H7l.19,0,.19-.06.19-.08.19-.05.14-.11.19-.09.19-.11.14-.08.16-.08.14-.11L8.89,14,9,13.84l.14-.17.17-.13.08-.14.13-.14.11-.13.09-.19.1-.17.09-.19.05-.16.08-.2.06-.16.05-.19.06-.22,0-.19v-.38H5.85V11l.06,0v-.28Zm.52-3.33v0h0v.06h0v0h0v0h0l-.06,0h0v.06h0v0H6.26v0h0v0H6.13v.06H5.8V7.79H5.72v0H5.66v0h0v0H5.55V7.6h0l0,0h0v0h0v0h0V7.41h0v0h0v0h0V7.27h0v0h0V7.16h0v0h0l.06-.06h0l0,0h0L5.72,7h0V7h.17l0-.06H6L6,7h.14V7h.06l0,.06h0l.06,0h0l0,.06h0v0h.06v.06h0v0h0v.06h0v0ZM8.26,9.22v.13h0v.17l-.05,0h0V9.6l-.06.05v0h0v.06l0,0H8l0,.05H8l-.06,0h0l0,.06h0L7.79,10H7.71V10H7.16l0-.06H7.08l0-.05H7V9.87H7l-.06,0h0l0-.05h0l0,0V9.68H6.75v0l0-.05V9.54h0V9.41l0-.06h0V9h0V8.89l0-.06h0l0-.05v0l.06-.05h0l0-.06h0l0,0v0H7L7,8.5H7l0-.05h.06l0,0h.25V8.37l.06.05h.24v0h.08l.06.05h0l0,.06H8v0l0,0H8l0,.06h0l0,.05v0l.06.05h0v.06l.05,0V9h0l0,.06v.14Zm-2,6.42h-.5l-.22-.05-.24-.06-.25,0-.22,0-.19-.11-.24-.08-.2-.11-.24-.08L3.75,15l-.19-.14-.2-.13-.19-.14L3,14.38l-.2-.13-.13-.19-.14-.14-.14-.19-.16-.19-.08-.19-.14-.2-.11-.21-.08-.2-.11-.24-.08-.19-.06-.25-.05-.22,0-.24v-.25l-.05-.22V10.5l.05-.19v-.19l0-.14.05-.19.06-.19.05-.14,0-.19.05-.19.11-.14,0-.19.11-.14.08-.16.11-.14.08-.19L2.43,8l.14-.14.08-.14.17-.11.08-.13L3,7.33l.13-.11.17-.14L3.47,7l.14-.08.19-.08.14-.11.16-.08.17-.06.19-.11.16,0,0-.06h0l.06,0h0V6.26h0l.06,0h0V6.18H5v0H5V6.07H5V6H5V5.93H5v0h.06V5.85h0V5.74h0V3.14h0V3h0L5,3H5V2.9H5l0-.06H5v0H5V2.76H5l0,0H4.84V2.65h0l0,0H4.65l0-.06H3.42v0H3.36l0-.06h0v0h0V2.38H3.28V2.32h0V1.67h0l.06-.06h0V1.56h0l0,0h0l.06-.05H9l.06.05h.05v0h0v.05h0v.06h0v.65h0v.06h0v.05h0v0h0v.06H9v0H7.85l-.06.06H7.71l0,0H7.6v.06h0l0,0h0l0,.06h0v0H7.41V2.9h0V3l0,.06h0V3h0v.1h0v2.6l0,.06h0v0h0v.06h0V6h0V6h0v0h.06v.06h0l0,0h0l0,.06h0l0,0h.06v.06h0l0,0h0l.06.06.14,0,.19.11.19.06.13.08.2.11.13.08L9,7l.16.11.14.14.14.11.13.14.14.08.11.16.14.14L10,8l.08.13.11.14.08.16.11.14.08.19.06.14.08.19,0,.14.08.19.06.19.05.14v.19l.06.19,0,.19v1l0,.25-.06.24-.05.22-.06.25-.08.19-.11.24-.08.2-.08.21-.11.2-.14.19-.13.19-.17.19-.13.14-.14.19-.19.13-.14.17-.19.14-.19.13L8.7,15l-.2.11-.19.08-.24.11-.19.08-.22.11-.25,0-.25,0L7,15.59l-.25.05H6.24Z" style="fill: #606580;fill-rule: evenodd"/>
    </g>
  </g>
</svg>
