<svg xmlns="http://www.w3.org/2000/svg" viewBox="0 0 19.64 19.64">
  <title>graph-icon</title>
  <g id="Слой_2" data-name="Слой 2">
    <g id="реакция">
      <path d="M1.23,18.41H19.64v1.23H0V0H1.23V3.68H2.45V4.91H1.23V7.37H2.45V8.59H1.23v2.46H2.45v1.22H1.23v2.46H2.45V16H1.23v2.45Zm2.45-5.52a1.85,1.85,0,1,0,3.38-1l1.6-2.14a1.8,1.8,0,0,0,1.57-.22l2.14,1.61a1.62,1.62,0,0,0-.1.54,1.85,1.85,0,1,0,3.17-1.27l2.14-4.28a1.46,1.46,0,0,0,.22,0,1.86,1.86,0,1,0-1.32-.57L14.34,9.84l-.22,0a1.86,1.86,0,0,0-1,.31L11,8.52A1.91,1.91,0,0,0,11.05,8,1.84,1.84,0,1,0,7.67,9l-1.6,2.14a1.67,1.67,0,0,0-.55-.09,1.84,1.84,0,0,0-1.84,1.84ZM17.18,4.3a.61.61,0,0,0,.62.61.61.61,0,0,0,.61-.61.61.61,0,0,0-.61-.62.62.62,0,0,0-.62.62ZM13.5,11.66a.61.61,0,0,0,.62.61.61.61,0,0,0,0-1.22.61.61,0,0,0-.62.61ZM8.59,8a.61.61,0,0,0,.62.61.61.61,0,0,0,0-1.22A.61.61,0,0,0,8.59,8ZM4.91,12.89a.61.61,0,0,0,.61.61.61.61,0,0,0,.62-.61.62.62,0,0,0-.62-.62A.61.61,0,0,0,4.91,12.89Z" style="fill: #fff;fill-rule: evenodd"/>
    </g>
  </g>
</svg>
