<svg xmlns="http://www.w3.org/2000/svg" xml:space="preserve" width="10.8354mm" height="17.312mm" version="1.1" shape-rendering="geometricPrecision" text-rendering="geometricPrecision" image-rendering="optimizeQuality" fill-rule="evenodd" clip-rule="evenodd"
viewBox="0 0 22.33 35.67"
 xmlns:xlink="http://www.w3.org/1999/xlink">
 <g id="Слой_x0020_1">
  <metadata id="CorelCorpID_0Corel-Layer"/>
  <path fill="#0063BF" fill-rule="nonzero" d="M13.38 32c-0.21,0.08 -0.43,0.11 -0.68,0.1 0.27,-0.22 0.54,-0.42 0.8,-0.66 0.95,-0.87 1.21,-1.9 0.72,-3.03 -0.14,-0.33 -0.37,-0.63 -0.62,-0.89 -0.98,-1 -0.99,-0.99 -1.06,-2.45 -0.36,0.45 -0.67,0.82 -0.97,1.19 -0.05,-0.02 -0.1,-0.04 -0.14,-0.06 0.56,-1.51 0.37,-2.89 -0.63,-4.11 -0.04,0 -0.08,0.01 -0.12,0.01 0.02,0.19 0.02,0.38 0.05,0.56 0.16,1 0.03,1.95 -0.51,2.83 -0.35,0.57 -0.72,1.12 -1.05,1.7 -0.36,0.64 -0.63,1.31 -0.68,2.06 -0.07,1.01 0.32,1.8 1.13,2.36 0.44,0.3 0.93,0.51 1.41,0.84 -0.58,-0.07 -1.19,-0.07 -1.75,-0.23 -2.36,-0.64 -3.92,-2.15 -4.44,-4.55 -0.49,-2.31 0.22,-4.29 2.08,-5.81 0.23,-0.19 0.48,-0.37 0.7,-0.57 0.89,-0.83 1.15,-1.83 0.75,-2.98 -0.12,-0.34 -0.25,-0.68 -0.4,-1.09 1.03,0.24 1.63,0.9 2.22,1.64 -0.09,-1.63 -0.29,-3.27 0.39,-4.83 0.65,-1.5 1.5,-2.87 2.8,-3.93 -0.2,0.63 -0.42,1.25 -0.59,1.89 -0.7,2.53 -0.26,4.84 1.19,7.04 0.91,1.38 1.66,2.87 2.39,4.35 0.52,1.06 0.76,2.23 0.73,3.43 -0.06,2.05 -1.8,4.48 -3.73,5.17zm7.15 -14.36c-2.82,-5.89 -5.95,-11.62 -9.13,-17.32 -0.06,-0.11 -0.16,-0.19 -0.27,-0.32 -0.08,0.11 -0.1,0.14 -0.12,0.17 -3.19,5.72 -6.31,11.49 -9.17,17.39 -1.5,3.1 -2.15,6.36 -1.7,9.8 0.2,1.53 0.72,2.94 1.76,4.13 2.07,2.34 4.64,3.73 7.74,4.09 3.11,0.36 6,-0.27 8.6,-2.06 2.4,-1.65 3.88,-3.86 4.05,-6.83 0.18,-3.16 -0.4,-6.19 -1.76,-9.04z"/>
 </g>
</svg>
