<svg xmlns="http://www.w3.org/2000/svg" viewBox="0 0 16 14.26">
  <title>home-icon</title>
  <g id="Слой_2" data-name="Слой 2">
    <g id="реакция">
      <path d="M.57,8.5h1.3v5.22a.53.53,0,0,0,.54.54H6.24a.54.54,0,0,0,.56-.54V9.89H9.13v3.83a.54.54,0,0,0,.54.54h3.65a.54.54,0,0,0,.54-.54V8.5h1.59A.56.56,0,0,0,16,8.16a.63.63,0,0,0-.11-.62L8.56.17a.54.54,0,0,0-.79,0L.17,7.54a.58.58,0,0,0-.17.4H0a.6.6,0,0,0,.06.22.52.52,0,0,0,.51.34ZM8.16,1.36l6,6h-.8a.57.57,0,0,0-.56.57v5.21H10.23V9.33a.56.56,0,0,0-.56-.54H6.24a.56.56,0,0,0-.57.54v3.82H3V7.94a.58.58,0,0,0-.57-.57H1.93Z" style="fill: #606580"/>
    </g>
  </g>
</svg>
