<svg xmlns="http://www.w3.org/2000/svg" viewBox="0 0 8.41 14.83">
  <title>lighting-icon</title>
  <g id="Слой_2" data-name="Слой 2">
    <g id="Слой_10" data-name="Слой 10">
      <path d="M.25,14.83a.35.35,0,0,1-.14,0A.27.27,0,0,1,0,14.49L2.79,7.91H.25A.24.24,0,0,1,0,7.8a.26.26,0,0,1,0-.24L3.74.14A.23.23,0,0,1,4,0h4a.26.26,0,0,1,.22.13.25.25,0,0,1,0,.25L5.23,5H8.16a.24.24,0,0,1,.22.14.19.19,0,0,1,0,.1h0a.21.21,0,0,1-.07.15L.43,14.75a.23.23,0,0,1-.18.08Z" style="fill: #606580"/>
    </g>
  </g>
</svg>
