<svg xmlns="http://www.w3.org/2000/svg" viewBox="0 0 16 12.54">
  <title>logout-icon</title>
  <g id="Слой_2" data-name="Слой 2">
    <g id="реакция">
      <g>
        <path d="M9.76,11.93V9.32a.61.61,0,0,0-.61-.62.62.62,0,0,0-.62.62v2H1.23V1.23h7.3V3.42A.62.62,0,0,0,9.15,4a.61.61,0,0,0,.61-.62V.61A.64.64,0,0,0,9.12,0H.57A.57.57,0,0,0,0,.61V11.93a.57.57,0,0,0,.57.61H9.12A.64.64,0,0,0,9.76,11.93Z" style="fill: #afb2c0;fill-rule: evenodd"/>
        <path d="M5.14,6.17a.61.61,0,0,0,.61.61h8.36L11.77,9.41a.61.61,0,0,0-.16.41.62.62,0,0,0,1.08.42l3.16-3.55a.62.62,0,0,0,.15-.4.61.61,0,0,0-.13-.39.65.65,0,0,0-.25-.27L12.67,2.56a.62.62,0,1,0-.89.85l2.05,2.14H5.75A.62.62,0,0,0,5.14,6.17Z" style="fill: #afb2c0;fill-rule: evenodd"/>
      </g>
    </g>
  </g>
</svg>
