<svg xmlns="http://www.w3.org/2000/svg" xml:space="preserve" width="33.8355mm" height="43.5649mm" version="1.1" shape-rendering="geometricPrecision" text-rendering="geometricPrecision" image-rendering="optimizeQuality" fill-rule="evenodd" clip-rule="evenodd"
viewBox="0 0 88.09 113.43"
 xmlns:xlink="http://www.w3.org/1999/xlink">
 <g id="Слой_x0020_1">
  <metadata id="CorelCorpID_0Corel-Layer"/>
  <path fill="black" d="M28.17 92.18c0.61,0.7 1.09,1.57 1.42,2.61 0.34,1.04 0.51,2.23 0.51,3.56 0,1.3 -0.17,2.47 -0.5,3.52 -0.33,1.05 -0.81,1.93 -1.43,2.64 -0.65,0.74 -1.42,1.29 -2.29,1.65 -0.87,0.35 -1.83,0.53 -2.88,0.53 -1.09,0 -2.07,-0.18 -2.93,-0.55 -0.87,-0.36 -1.62,-0.91 -2.24,-1.63 -0.61,-0.71 -1.09,-1.59 -1.42,-2.63 -0.33,-1.04 -0.5,-2.22 -0.5,-3.53 0,-1.35 0.17,-2.53 0.5,-3.55 0.33,-1.02 0.81,-1.9 1.43,-2.62 0.61,-0.71 1.37,-1.25 2.24,-1.62 0.87,-0.37 1.85,-0.55 2.93,-0.55 1.09,0 2.08,0.19 2.95,0.57 0.88,0.38 1.62,0.92 2.22,1.61zm-0.3 6.17c0,-1.06 -0.12,-2 -0.35,-2.81 -0.23,-0.82 -0.55,-1.5 -0.97,-2.03 -0.42,-0.55 -0.94,-0.96 -1.54,-1.24 -0.6,-0.27 -1.27,-0.42 -2.02,-0.42 -0.78,0 -1.46,0.14 -2.03,0.4 -0.58,0.27 -1.09,0.68 -1.54,1.25 -0.42,0.54 -0.75,1.23 -0.97,2.05 -0.22,0.82 -0.34,1.76 -0.34,2.79 0,2.1 0.44,3.71 1.32,4.82 0.88,1.11 2.07,1.67 3.56,1.67 1.48,0 2.67,-0.56 3.55,-1.67 0.88,-1.11 1.32,-2.72 1.32,-4.82zm16.17 8.01l-2.14 0 0 -7.85 -7.34 0 0 7.85 -2.14 0 0 -16.03 2.14 0 0 6.28 7.34 0 0 -6.28 2.14 0 0 16.03zm14.89 0l-2.14 0 0 -14.13 -7.34 0 0 14.13 -2.14 0 0 -16.03 11.62 0 0 16.03zm11.55 -7.73c0.36,0.3 0.66,0.69 0.89,1.15 0.23,0.46 0.35,1.06 0.35,1.79 0,0.72 -0.15,1.38 -0.43,2 -0.28,0.61 -0.69,1.15 -1.19,1.61 -0.51,0.47 -1.15,0.84 -1.91,1.09 -0.76,0.25 -1.61,0.37 -2.54,0.37 -1,0 -1.92,-0.1 -2.75,-0.3 -0.83,-0.19 -1.5,-0.4 -2,-0.62l0 -2.39 0.15 0c0.57,0.38 1.27,0.72 2.09,1.01 0.82,0.29 1.64,0.44 2.47,0.44 0.53,0 1.05,-0.07 1.57,-0.21 0.52,-0.14 0.96,-0.37 1.3,-0.68 0.35,-0.32 0.61,-0.66 0.78,-1.03 0.16,-0.37 0.25,-0.83 0.25,-1.39 0,-0.55 -0.1,-1.01 -0.29,-1.38 -0.19,-0.37 -0.48,-0.67 -0.83,-0.9 -0.35,-0.23 -0.77,-0.39 -1.26,-0.49 -0.49,-0.1 -1.02,-0.15 -1.58,-0.15l-1.68 0 0 -1.79 1.45 0c1.13,0 2.04,-0.23 2.72,-0.68 0.68,-0.45 1.03,-1.11 1.03,-1.98 0,-0.39 -0.09,-0.74 -0.25,-1.02 -0.16,-0.28 -0.4,-0.52 -0.71,-0.69 -0.34,-0.19 -0.69,-0.33 -1.06,-0.39 -0.37,-0.07 -0.77,-0.1 -1.21,-0.1 -0.46,0 -0.91,0.05 -1.35,0.16 -0.44,0.1 -0.86,0.23 -1.25,0.39 -0.37,0.15 -0.7,0.31 -0.97,0.48 -0.28,0.17 -0.51,0.3 -0.69,0.41l-0.14 0 0 -2.36c0.49,-0.23 1.15,-0.44 1.99,-0.64 0.84,-0.19 1.67,-0.29 2.48,-0.29 0.83,0 1.54,0.07 2.13,0.21 0.6,0.14 1.14,0.37 1.63,0.68 0.54,0.35 0.94,0.76 1.21,1.24 0.27,0.48 0.4,1.05 0.4,1.7 0,0.87 -0.29,1.63 -0.87,2.27 -0.58,0.65 -1.33,1.07 -2.26,1.27l0 0.16c0.36,0.07 0.75,0.18 1.17,0.35 0.42,0.16 0.81,0.4 1.16,0.7zm-70.36 14.79l87.98 0 0 -25.05 0 -5.01 0 -33.07 0 -0.4 -0.2 -0.4 0 -0.4 0 -0.4 -0.2 -0.4 0 -0.4 -0.2 -0.2 0 -0.4 -0.2 -0.4 -0.2 -0.4 -0.2 -0.2 -0.2 -0.4 -0.2 -0.2 -0.2 -0.4 -0.2 -0.2 -0.4 -0.4 -0.2 -0.2 -0.2 -0.2 -0.4 -0.2 -0.2 -0.2 -0.4 -0.2 -0.4 -0.2 -0.2 -0.2 -0.4 -0.2 -0.4 -0.2 -0.2 0 -0.4 -0.2 -0.4 0 -0.4 -0.2 -0.4 0 -0.4 0 -0.4 0 0 0 -5.01 0 0.2 0.2 0.2 0.2 0.4 0.2 0.2 0.2 0.2 0.2 0.2 0.2 0 0.2 0.2 0.2 0 0 0.2 0.2 0 0.2 0 0 0.2 0.2 0 0.2 0.2 0.4 0.2 0.4 0 0.2 0.2 0.4 0 0.4 0.2 0.4 0 0.4 0 0.4 0.2 0.4 0 0.4 0 0.4 0 0.4 0 0.4 0 0.4 0 33.07 -3.81 0 0 -33.07 0 -0.4 0 -0.4 0 -0.4 -0.2 -0.4 0 -0.4 0 -0.4 -0.2 -0.2 -0.2 -0.4 0 -0.4 -0.2 -0.4 -0.2 -0.2 -0.2 -0.4 -0.2 -0.2 -0.2 -0.4 -0.4 -0.2 -0.2 -0.4 -0.2 -0.2 -0.4 -0.2 -0.2 -0.2 -0.4 -0.2 -0.2 -0.2 -0.4 -0.2 -0.2 -0.2 -0.4 -0.2 -0.4 -0.2 -0.4 0 -0.4 -0.2 -0.2 0 -0.4 -0.2 -0.4 0 -0.4 0 -0.4 0 0 0 0 -4.21 0 -0.4 -0.2 -0.4 0 -0.2 0 -0.4 0 -0.4 -0.2 -0.4 -0.2 -0.4 0 -0.2 -0.2 -0.4 -0.2 -0.2 -0.2 -0.4 -0.2 -0.2 -0.2 -0.4 -0.2 -0.2 -0.2 -0.4 -0.2 -0.2 -0.2 -0.2 -0.2 -0.2 -0.4 -0.2 -0.2 -0.2 -0.4 -0.2 -0.2 -0.2 -0.4 -0.2 -0.2 -0.2 -0.4 0 -0.4 -0.2 -0.2 0 -0.4 -0.2 -0.4 0 -0.4 0 -0.4 -0.2 -0.4 0 -10.42 0 -0.2 0 -0.4 0.2 -0.4 0 -0.4 0 -0.4 0.2 -0.2 0 -0.4 0.2 -0.4 0 -0.2 0.2 -0.4 0.2 -0.4 0.2 -0.2 0.2 -0.2 0.2 -0.4 0.2 -0.2 0.2 -0.2 0.2 -0.4 0.2 -0.2 0.4 -0.2 0.2 -0.2 0.4 -0.2 0.2 -0.2 0.4 -0.2 0.2 0 0.4 -0.2 0.2 -0.2 0.4 0 0.4 0 0.4 -0.2 0.4 0 0.2 0 0.4 0 0.4 0 23.45 -7.82 0 -5.61 0 -27.25 0c-1.12,18.84 -1,32.61 -1,51.7zm20.64 -110.82l0 -0.2 0 0 0 -0.2 0 0 -0.2 -0.2 0 -0.2 0 0 0 -0.2 -0.2 0 0 -0.2 0 0 -0.2 -0.2 0 0 0 -0.2 -0.2 0 0 -0.2 -0.2 0 0 -0.2 -0.2 0 0 0 -0.2 -0.2 0 0 -0.2 0 -0.2 0 0 -0.2 -0.2 0 0 0 -0.2 0 -0.2 0 0 0 -0.2 -0.2 -0.2 0 -10.22 0 -0.2 0 0 0.2 -0.2 0 -0.2 0 0 0 -0.2 0 -0.2 0 0 0.2 -0.2 0 0 0 -0.2 0 0 0.2 -0.2 0 0 0 -0.2 0.2 0 0 -0.2 0.2 0 0 -0.2 0.2 0 0 0 0.2 -0.2 0 0 0.2 0 0 -0.2 0.2 0 0 0 0.2 0 0.2 0 0 -0.2 0.2 0 0 0 0.2 -3.41 53.31 22.65 0 -3.41 -53.31zm32.46 80.76l-3.81 0 0 -21.64 -1.8 0 0 -23.45 0 -0.2 0 -0.2 0 0 0 -0.2 0.2 -0.2 0 0 0 -0.2 0.2 0 0 -0.2 0.2 0 0.2 -0.2 0 0 0.2 0 0.2 -0.2 0.2 0 0 0 10.42 0 0.2 0 0.2 0 0.2 0.2 0 0 0.2 0 0.2 0.2 0 0 0.2 0.2 0 0 0.2 0.2 0 0 0 0.2 0.2 0.2 0 0 0 0.2 0 0.2 0 4.21 -0.4 0 -0.4 0 -0.4 0 -0.4 0.2 -0.4 0 -0.2 0.2 -0.4 0 -0.4 0.2 -0.4 0.2 -0.2 0.2 -0.4 0.2 -0.4 0.2 -0.2 0.2 -0.4 0.2 -0.2 0.2 -0.2 0.2 -0.4 0.4 -0.2 0.2 -0.2 0.4 -0.2 0.2 -0.2 0.4 -0.2 0.2 -0.2 0.4 -0.2 0.4 0 0.4 -0.2 0.2 0 0.4 -0.2 0.4 0 0.4 0 0.4 -0.2 0.4 0 0.4 0 33.07z"/>
 </g>
</svg>
