<svg xmlns="http://www.w3.org/2000/svg" viewBox="0 0 16.02 12.53">
  <title>shipping-icon</title>
  <g id="Слой_2" data-name="Слой 2">
    <g id="Слой_10" data-name="Слой 10">
      <g>
        <path d="M9.78,11.93V9.33a.63.63,0,0,0-.62-.63.64.64,0,0,0-.63.63v2H1.25V1.25H8.53V3.43a.63.63,0,0,0,.63.62.62.62,0,0,0,.62-.62V.6A.65.65,0,0,0,9.13,0H.57A.58.58,0,0,0,0,.6V11.93a.57.57,0,0,0,.57.6H9.13a.63.63,0,0,0,.65-.6Z" style="fill: #606580"/>
        <path d="M5.13,6.18a.6.6,0,0,0,.62.59h8.37L11.76,9.41a.79.79,0,0,0-.14.43.56.56,0,0,0,.2.45.62.62,0,0,0,.88-.06l3.15-3.54a.58.58,0,0,0,.17-.4.63.63,0,0,0-.15-.39.53.53,0,0,0-.25-.26L12.67,2.55a.63.63,0,0,0-.88,0,.6.6,0,0,0,0,.85l2,2.16H5.75a.62.62,0,0,0-.62.62Z" style="fill: #606580"/>
      </g>
    </g>
  </g>
</svg>
