<svg xmlns="http://www.w3.org/2000/svg" viewBox="0 0 14.18 14.18">
  <title>spanner-icon</title>
  <g id="Слой_2" data-name="Слой 2">
    <g id="реакция">
      <path d="M7.52,9.49,3.41,13.6A2,2,0,0,1,2,14.18a2,2,0,0,1-2-2,2,2,0,0,1,.58-1.41L4.7,6.66a4.86,4.86,0,0,1-.25-2.61A4.8,4.8,0,0,1,5.81,1.44,4.77,4.77,0,0,1,8.22.12,4.87,4.87,0,0,1,11,.3l.73.27L8.76,3.51a1.36,1.36,0,0,0,0,1.91,1.37,1.37,0,0,0,1,.39,1.33,1.33,0,0,0,.95-.39l2.94-2.94.27.73a4.91,4.91,0,0,1-3.75,6.53,5,5,0,0,1-2.61-.25Zm-4.81,3.4L7.3,8.3l.32.15a3.93,3.93,0,0,0,2.34.3,3.89,3.89,0,0,0,3.13-3,4.07,4.07,0,0,0,.06-1.39L11.38,6.12A2.35,2.35,0,1,1,8.06,2.8L9.82,1a3.83,3.83,0,0,0-1.39.05,3.89,3.89,0,0,0-3,3.13,3.85,3.85,0,0,0,.31,2.34l.15.32-4.6,4.6A1,1,0,0,0,2,13.18,1,1,0,0,0,2.71,12.89Z" style="fill: #afb2c0;fill-rule: evenodd"/>
    </g>
  </g>
</svg>
