<svg xmlns="http://www.w3.org/2000/svg" xml:space="preserve" width="11.4302mm" height="15.3793mm" version="1.1" shape-rendering="geometricPrecision" text-rendering="geometricPrecision" image-rendering="optimizeQuality" fill-rule="evenodd" clip-rule="evenodd"
viewBox="0 0 24.82 33.39"
 xmlns:xlink="http://www.w3.org/1999/xlink">
 <g id="Слой_x0020_1">
  <path fill="#004280" fill-rule="nonzero" d="M14.92 0c0.06,0.38 0.23,0.8 0.16,1.14 -1.01,4.72 -0.34,9.28 0.95,13.79 0.73,2.55 1.27,5.13 1.07,7.84 -0.35,4.89 -2.73,8.24 -6.51,10.51 -0.23,0.14 -0.59,0.12 -0.85,0.04 -0.09,-0.03 -0.15,-0.51 -0.09,-0.74 1.12,-4.57 0.49,-9.02 -0.71,-13.43 -0.61,-2.25 -1.22,-4.49 -1.28,-6.88 -0.12,-5.06 1.81,-8.88 5.65,-11.55 0.32,-0.23 0.62,-0.48 0.93,-0.73l0.67 0z"/>
  <path fill="#004280" fill-rule="nonzero" d="M19.39 28.78c0.16,-1.08 0.32,-1.92 0.4,-2.77 0.24,-2.69 -0.18,-5.3 -0.92,-7.85 -0.67,-2.32 -1.11,-4.66 -0.62,-7.11 0.56,-2.79 2.1,-4.71 4.31,-6.05 0.18,-0.11 0.52,-0.2 0.6,-0.11 0.14,0.16 0.21,0.5 0.16,0.72 -0.72,3.47 -0.18,6.81 0.77,10.13 0.73,2.54 1.08,5.12 0.23,7.73 -0.75,2.3 -2.2,3.9 -4.09,5.06 -0.2,0.12 -0.45,0.14 -0.85,0.25z"/>
  <path fill="#004280" fill-rule="nonzero" d="M5.35 5.44c-0.88,3.94 -0.03,7.63 0.97,11.34 1.32,4.94 -0.11,9.14 -3.8,11.56 -0.17,0.11 -0.34,0.23 -0.52,0.3 -0.47,0.17 -0.73,0.03 -0.59,-0.57 0.86,-3.46 0.29,-6.81 -0.65,-10.12 -0.75,-2.65 -1.16,-5.29 -0.27,-8 0.75,-2.26 2.18,-3.85 4.06,-4.97 0.54,-0.32 0.83,-0.11 0.79,0.47z"/>
 </g>
</svg>
