<svg xmlns="http://www.w3.org/2000/svg" viewBox="0 0 11.61 14.94">
  <title>thermostat-icon</title>
  <g id="Слой_2" data-name="Слой 2">
    <g id="Слой_10" data-name="Слой 10">
      <g style="opacity: 0.5">
        <path d="M5.13,10.09V1.53l-.06-.11V1.31L5,1.25,5,1.15V1.09l0-.11-.06,0,0-.06L4.74.76l0-.05L4.63.65l-.1-.1L4.47.49l0,0L4.31.38l-.06,0L4.14.27h0L4,.22,3.87.16l-.05,0H3.71L3.6.05H3.33L3.22,0H3L2.89.05H2.56L2.51.11H2.4L2.29.16l0,.06L2.13.27H2L2,.33l-.11,0L1.8.44l-.06,0-.1.06-.06.1L1.53.71,1.47.76,1.42.82,1.36.93,1.31,1l-.06.11-.05.06v.1l-.05.06-.06.11v.16L1,1.69v8.4H1l0,.05-.06,0-.05.06-.06.05-.05.06-.06.05-.05.06v.11l0,.05-.06.06,0,.05-.06,0v.06l0,.05V11l-.06.06-.05,0v.06l-.06.11v.05l0,.05v.17l-.06,0v.33L0,12v.28l.05.16v.16l.06.11v.17L.16,13l.06.1.05.17.06.11,0,.11.11.11.06.1.1.17.06.05L.82,14l.11.11.11.11.11,0,.1.11.11.06.17.11.11,0,.1.06.17.05.11.06.16.05.16.05h.11l.17.06h.92l.17-.06h.16L4,14.83l.1-.05.17-.06.11-.05.16-.06.11,0,.11-.11L5,14.39l.11-.11.11,0,.11-.11L5.4,14l0-.11.11-.05.11-.17.06-.1,0-.11.11-.11.05-.11L6,13.08l0-.1.06-.11V12.7l0-.11v-.92l0-.06v-.16l-.06-.06v-.05l0-.05v-.11l-.06-.06v0L5.89,11V10.9l-.06-.05,0-.06v0l0-.05-.06-.06,0-.05-.06-.11,0-.06-.06-.05V10.3l0-.05-.06-.06,0,0-.06-.05ZM10,2.73V2.07H9.27V1.25H10V.6h.87v.65h.76v.82h-.76v.66ZM9.27,12.92h2.34v.82H9.27Zm0-4.09h2.34v.82H9.27Zm0-1.63h2.34V8H9.27Zm0-1.64h2.34v.82H9.27ZM3.6,10.85v-.06h0v0h0V6.05h0V6h0V5.94h0V5.89H3.54V5.83h0v0h0l-.05,0H3.38V5.67H3.27v0H2.94v0h-.1v.06H2.78l0,0h0l-.06,0h0v.06h0v.05h0V6h0l-.06,0h0v4.69h0v0h0l.06.06H2.51l-.06.05H2.4L2.34,11h0l0,0H2.18l-.05.06-.06,0H2v.06L2,11.23H1.91v.06l-.06.05-.05.05h0l-.06.06v.05l-.05.06v0l-.05.06v.11l-.06.05v.6l.06.05v.17l.05,0v.06l.05.05.06.06v.05l.05.06.06,0,.05.05.06.06,0,0,.06.06h.05l.06.05,0,.06h0l.11.05h.06l.05.06h.06l.11,0H3l.11.06.05-.06h.33l0,0h.11l.06-.06h0l.06-.05h.05L4,13.3,4,13.25h0l0-.06.06,0,0-.06L4.31,13v0l.05-.06.06-.05,0-.06v-.05l.06-.06v0l0-.11v-.11l0,0v-.49l0-.06v-.11l0-.05v-.06l-.06,0V11.5l0-.05v-.06H4.36v-.05l-.05-.05-.06-.06h0l0-.05-.06-.06h0v0L4,11H4l0,0H3.87l-.05-.06H3.76l0-.05H3.6ZM3.11,14H2.78l-.11,0H2.51L2.4,13.9l-.11-.05h0l-.11-.06-.11,0L2,13.68l-.11,0-.05-.05-.06-.06-.1,0-.06-.06-.05-.05-.06-.11-.05-.06-.06,0L1.31,13l-.06,0-.05-.11v-.06l-.05-.11-.06-.11v-.16L1,12.32v-.38l.05,0v-.17l.06-.05v-.11l.05-.11v-.06l.05-.05v-.05l.06-.06v-.05h.05l.06-.06v0L1.47,11l.06,0,.05-.06.06-.05h0l.05-.06.05,0,.06-.05h.05l.06-.06L2,10.58H2l0-.06V1.69l.06-.05h0V1.58l.05-.05V1.42h.06V1.36l0-.05h0l0-.06H2.4V1.2l.05-.05h.06V1.09h.11l0-.05h.06l0-.06h.6L3.44,1h.1l.06.05h0l.06.06h0l.06.05v.05h.05v.06h.06v.05l0,.06H4L4,1.47v.11l0,.06h0v.1l0,.06v8.72l.06.06h0l.06.05.05.06h.06l0,.05v0l.06.06h0l0,.05.06.06,0,0v.06l.06,0,0,.06h0l.06.05v.06l0,.05v.05l.06.06v.11l.05,0v.11l.06.06v.76l-.06.05v.11L5,12.81,5,12.87V13l0,0-.06.11,0,0-.06.06,0,.11-.06.05-.1.06-.06,0,0,.06-.11.05-.06,0-.11.06,0,0L4,13.85H3.87l-.05.05L3.71,14H3.49l-.05,0H3.11Z" style="fill: #5b607d;fill-rule: evenodd"/>
      </g>
    </g>
  </g>
</svg>
