<svg xmlns="http://www.w3.org/2000/svg" viewBox="0 0 20.53 19.33">
  <title>warning-icon</title>
  <g id="Слой_2" data-name="Слой 2">
    <g id="реакция">
      <path d="M.18,17.44,9.12.68a1.27,1.27,0,0,1,2.25,0l9,16.76a1.17,1.17,0,0,1,0,1.27,1.25,1.25,0,0,1-1.11.62H1.3a1.22,1.22,0,0,1-1.1-.62,1.15,1.15,0,0,1,0-1.27Zm19.05.6-9-16.75L1.3,18ZM11.53,7.77a1.19,1.19,0,0,0-.38-.92,1.25,1.25,0,0,0-.9-.36,1.29,1.29,0,0,0-.91.36A1.19,1.19,0,0,0,9,7.77v3.87a1.19,1.19,0,0,0,.38.9,1.24,1.24,0,0,0,.91.39,1.32,1.32,0,0,0,1.28-1.29V7.77Zm-.38,6.79a1.19,1.19,0,0,0-.9-.38A1.3,1.3,0,0,0,9,15.47a1.19,1.19,0,0,0,.38.9,1.24,1.24,0,0,0,.91.39,1.32,1.32,0,0,0,1.28-1.29A1.23,1.23,0,0,0,11.15,14.56Z" style="fill: #e5340d;fill-rule: evenodd"/>
    </g>
  </g>
</svg>
